SplineFontDB: 3.2
FontName: HKGrotesk-Medium
FullName: HK Grotesk Medium
FamilyName: HK Grotesk Medium
Weight: Medium
Copyright: Copyright (c) 2019 by Alfredo Marco Pradil. All rights reserved.
Version: 2.410
ItalicAngle: 0
UnderlinePosition: -120
UnderlineWidth: 27
Ascent: 800
Descent: 200
InvalidEm: 0
sfntRevision: 0x000268f5
LayerCount: 2
Layer: 0 1 "Back" 1
Layer: 1 1 "Fore" 0
XUID: [1021 825 171699219 4436042]
StyleMap: 0x0040
FSType: 8
OS2Version: 3
OS2_WeightWidthSlopeOnly: 0
OS2_UseTypoMetrics: 0
CreationTime: 1568225968
ModificationTime: 1579743787
PfmFamily: 81
TTFWeight: 500
TTFWidth: 5
LineGap: 0
VLineGap: 0
Panose: 0 0 6 0 0 0 0 0 0 0
OS2TypoAscent: 1000
OS2TypoAOffset: 0
OS2TypoDescent: -254
OS2TypoDOffset: 0
OS2TypoLinegap: 0
OS2WinAscent: 1000
OS2WinAOffset: 0
OS2WinDescent: 254
OS2WinDOffset: 0
HheadAscent: 1000
HheadAOffset: 0
HheadDescent: -254
HheadDOffset: 0
OS2SubXSize: 650
OS2SubYSize: 600
OS2SubXOff: 0
OS2SubYOff: 75
OS2SupXSize: 650
OS2SupYSize: 600
OS2SupXOff: 0
OS2SupYOff: 350
OS2StrikeYSize: 27
OS2StrikeYPos: 295
OS2CapHeight: 697
OS2XHeight: 493
OS2Vendor: 'AMMP'
OS2CodePages: 20000193.00000000
OS2UnicodeRanges: 20000007.00000000.00000000.00000000
Lookup: 1 0 0 "'aalt' Access All Alternates lookup 0" { "'aalt' Access All Alternates lookup 0 subtable"  } ['aalt' ('DFLT' <'dflt' > 'cyrl' <'TAT ' 'dflt' > 'latn' <'AZE ' 'CRT ' 'KAZ ' 'MOL ' 'ROM ' 'TRK ' 'dflt' > ) ]
Lookup: 3 0 0 "'aalt' Access All Alternates lookup 1" { "'aalt' Access All Alternates lookup 1 subtable"  } ['aalt' ('DFLT' <'dflt' > 'cyrl' <'TAT ' 'dflt' > 'latn' <'AZE ' 'CRT ' 'KAZ ' 'MOL ' 'ROM ' 'TRK ' 'dflt' > ) ]

StartChar: .notdef
Encoding: 65536 -1 0
Width: 640
Flags: W
LayerCount: 2
Fore
SplineSet
115 474 m 1,0,-1
 525 474 l 1,1,-1
 525 0 l 1,2,-1
 115 0 l 1,3,-1
 115 474 l 1,0,-1
502 24 m 1,4,-1
 502 451 l 1,5,-1
 138 451 l 1,6,-1
 138 24 l 1,7,-1
 502 24 l 1,4,-1
EndSplineSet
EndChar

StartChar: exclam
Encoding: 33 33 4
Width: 318
GlyphClass: 2
Flags: W
LayerCount: 2
Fore
SplineSet
116 697 m 1,0,-1
 202 697 l 1,1,-1
 192 202 l 1,2,-1
 126 202 l 1,3,-1
 116 697 l 1,0,-1
108 117 m 1,4,-1
 211 117 l 1,5,-1
 211 0 l 1,6,-1
 108 0 l 1,7,-1
 108 117 l 1,4,-1
EndSplineSet
EndChar

StartChar: quotedbl
Encoding: 34 34 5
Width: 436
GlyphClass: 2
Flags: W
LayerCount: 2
Fore
SplineSet
100 697 m 1,0,-1
 173 697 l 1,1,-1
 173 450 l 1,2,-1
 100 450 l 1,3,-1
 100 697 l 1,0,-1
263 697 m 1,4,-1
 336 697 l 1,5,-1
 336 450 l 1,6,-1
 263 450 l 1,7,-1
 263 697 l 1,4,-1
EndSplineSet
EndChar

StartChar: numbersign
Encoding: 35 35 6
Width: 696
GlyphClass: 2
Flags: W
LayerCount: 2
Fore
SplineSet
171 209 m 1,0,-1
 52 209 l 1,1,-1
 52 270 l 1,2,-1
 185 270 l 1,3,-1
 220 438 l 1,4,-1
 93 438 l 1,5,-1
 93 502 l 1,6,-1
 232 502 l 1,7,-1
 277 697 l 1,8,-1
 345 697 l 1,9,-1
 302 500 l 1,10,-1
 457 500 l 1,11,-1
 499 697 l 1,12,-1
 568 697 l 1,13,-1
 524 500 l 1,14,-1
 645 500 l 1,15,-1
 645 438 l 1,16,-1
 511 438 l 1,17,-1
 475 270 l 1,18,-1
 604 270 l 1,19,-1
 604 209 l 1,20,-1
 463 209 l 1,21,-1
 418 0 l 1,22,-1
 350 0 l 1,23,-1
 394 209 l 1,24,-1
 238 209 l 1,25,-1
 195 0 l 1,26,-1
 127 0 l 1,27,-1
 171 209 l 1,0,-1
409 270 m 1,28,-1
 443 438 l 1,29,-1
 288 438 l 1,30,-1
 253 270 l 1,31,-1
 409 270 l 1,28,-1
EndSplineSet
EndChar

StartChar: dollar
Encoding: 36 36 7
Width: 611
GlyphClass: 2
Flags: W
AnchorPoint: "Anchor-1" 306 697 basechar 0
AnchorPoint: "Anchor-0" 306 0 basechar 0
LayerCount: 2
Fore
SplineSet
494 53.5 m 128,-1,1
 443 1 443 1 352 -9 c 1,2,-1
 352 -115 l 1,3,-1
 273 -116 l 1,4,-1
 273 -8 l 1,5,6
 189 3 189 3 132 55.5 c 128,-1,7
 75 108 75 108 62 188 c 1,8,-1
 150 210 l 1,9,10
 159 144 159 144 203.5 106.5 c 128,-1,11
 248 69 248 69 315 69 c 256,12,13
 382 69 382 69 418.5 100 c 128,-1,14
 455 131 455 131 455 181 c 0,15,16
 455 230 455 230 420.5 262 c 128,-1,17
 386 294 386 294 298 328 c 0,18,19
 225 356 225 356 183.5 384 c 128,-1,20
 142 412 142 412 123.5 446 c 128,-1,21
 105 480 105 480 105 528 c 0,22,23
 105 600 105 600 150 647.5 c 128,-1,24
 195 695 195 695 271 706 c 1,25,-1
 271 808 l 1,26,-1
 350 808 l 1,27,-1
 350 706 l 1,28,29
 403 699 403 699 444.5 669.5 c 128,-1,30
 486 640 486 640 513 591 c 1,31,-1
 438 545 l 1,32,33
 417 585 417 585 383 607 c 128,-1,34
 349 629 349 629 307 629 c 0,35,36
 259 629 259 629 226.5 600.5 c 128,-1,37
 194 572 194 572 194 531 c 0,38,39
 194 489 194 489 228 461 c 128,-1,40
 262 433 262 433 346 400 c 0,41,42
 423 371 423 371 466 341 c 128,-1,43
 509 311 509 311 527 275 c 128,-1,44
 545 239 545 239 545 189 c 0,45,0
 545 106 545 106 494 53.5 c 128,-1,1
EndSplineSet
EndChar

StartChar: percent
Encoding: 37 37 8
Width: 738
GlyphClass: 2
Flags: W
LayerCount: 2
Fore
SplineSet
96 434.5 m 128,-1,1
 59 481 59 481 59 547 c 256,2,3
 59 613 59 613 95.5 659.5 c 128,-1,4
 132 706 132 706 193 706 c 0,5,6
 232 706 232 706 263 685 c 128,-1,7
 294 664 294 664 311.5 627.5 c 128,-1,8
 329 591 329 591 329 546 c 0,9,10
 329 502 329 502 312 465.5 c 128,-1,11
 295 429 295 429 264.5 408.5 c 128,-1,12
 234 388 234 388 196 388 c 0,13,0
 133 388 133 388 96 434.5 c 128,-1,1
539 697 m 1,14,-1
 601 697 l 1,15,-1
 199 0 l 1,16,-1
 137 0 l 1,17,-1
 539 697 l 1,14,-1
249 475 m 128,-1,19
 270 503 270 503 270 546 c 0,20,21
 270 590 270 590 249.5 618.5 c 128,-1,22
 229 647 229 647 193 647 c 256,23,24
 157 647 157 647 137.5 618 c 128,-1,25
 118 589 118 589 118 547 c 0,26,27
 118 504 118 504 138 475.5 c 128,-1,28
 158 447 158 447 196 447 c 0,29,18
 228 447 228 447 249 475 c 128,-1,19
446 38 m 128,-1,31
 409 85 409 85 409 151 c 0,32,33
 409 216 409 216 445 262.5 c 128,-1,34
 481 309 481 309 543 309 c 0,35,36
 582 309 582 309 613 288 c 128,-1,37
 644 267 644 267 661.5 231 c 128,-1,38
 679 195 679 195 679 150 c 0,39,40
 679 82 679 82 641.5 36.5 c 128,-1,41
 604 -9 604 -9 546 -9 c 0,42,30
 483 -9 483 -9 446 38 c 128,-1,31
599 78 m 128,-1,44
 620 106 620 106 620 150 c 0,45,46
 620 193 620 193 599.5 221.5 c 128,-1,47
 579 250 579 250 543 250 c 256,48,49
 507 250 507 250 487.5 221.5 c 128,-1,50
 468 193 468 193 468 151 c 0,51,52
 468 108 468 108 488 79 c 128,-1,53
 508 50 508 50 546 50 c 0,54,43
 578 50 578 50 599 78 c 128,-1,44
EndSplineSet
EndChar

StartChar: ampersand
Encoding: 38 38 9
Width: 697
GlyphClass: 2
Flags: W
LayerCount: 2
Fore
SplineSet
584 -34 m 1,0,-1
 491 74 l 1,1,2
 448 34 448 34 394 12.5 c 128,-1,3
 340 -9 340 -9 278 -9 c 0,4,5
 182 -9 182 -9 120.5 36.5 c 128,-1,6
 59 82 59 82 59 161 c 0,7,8
 59 233 59 233 103.5 280.5 c 128,-1,9
 148 328 148 328 228 373 c 1,10,11
 191 412 191 412 164.5 454 c 128,-1,12
 138 496 138 496 138 543 c 0,13,14
 138 591 138 591 163.5 627.5 c 128,-1,15
 189 664 189 664 231.5 684 c 128,-1,16
 274 704 274 704 323 704 c 0,17,18
 371 704 371 704 411.5 683 c 128,-1,19
 452 662 452 662 475.5 625 c 128,-1,20
 499 588 499 588 499 544 c 0,21,22
 499 482 499 482 460.5 439.5 c 128,-1,23
 422 397 422 397 352 356 c 1,24,-1
 488 200 l 1,25,26
 519 264 519 264 522 340 c 1,27,-1
 606 332 l 1,28,29
 598 219 598 219 543 136 c 1,30,-1
 645 19 l 1,31,-1
 584 -34 l 1,0,-1
242 479 m 128,-1,33
 263 447 263 447 296 409 c 1,34,35
 357 442 357 442 388 472 c 128,-1,36
 419 502 419 502 419 543 c 0,37,38
 419 582 419 582 393 609 c 128,-1,39
 367 636 367 636 323 636 c 256,40,41
 279 636 279 636 250 610.5 c 128,-1,42
 221 585 221 585 221 542 c 0,43,32
 221 511 221 511 242 479 c 128,-1,33
441 132 m 1,45,-1
 282 317 l 1,46,47
 214 278 214 278 178.5 243.5 c 128,-1,48
 143 209 143 209 143 160 c 0,49,50
 143 115 143 115 179 89.5 c 128,-1,51
 215 64 215 64 276 64 c 0,52,44
 373 64 373 64 441 132 c 1,45,-1
EndSplineSet
EndChar

StartChar: quotesingle
Encoding: 39 39 10
Width: 273
GlyphClass: 2
Flags: W
LayerCount: 2
Fore
SplineSet
100 697 m 1,0,-1
 173 697 l 1,1,-1
 173 464 l 1,2,-1
 100 464 l 1,3,-1
 100 697 l 1,0,-1
EndSplineSet
EndChar

StartChar: parenleft
Encoding: 40 40 11
Width: 285
GlyphClass: 2
Flags: W
LayerCount: 2
Fore
SplineSet
96.5 129 m 128,-1,1
 64 242 64 242 64 348 c 0,2,3
 64 471 64 471 94.5 572.5 c 128,-1,4
 125 674 125 674 181 738 c 1,5,-1
 260 738 l 1,6,7
 194 657 194 657 163 557 c 128,-1,8
 132 457 132 457 132 346 c 0,9,10
 132 229 132 229 163.5 133.5 c 128,-1,11
 195 38 195 38 259 -43 c 1,12,-1
 182 -43 l 1,13,0
 129 16 129 16 96.5 129 c 128,-1,1
EndSplineSet
EndChar

StartChar: parenright
Encoding: 41 41 12
Width: 286
GlyphClass: 2
Flags: W
LayerCount: 2
Fore
SplineSet
27 -43 m 1,0,1
 90 38 90 38 121.5 133.5 c 128,-1,2
 153 229 153 229 153 346 c 0,3,4
 153 457 153 457 122 557 c 128,-1,5
 91 657 91 657 26 738 c 1,6,-1
 104 738 l 1,7,8
 160 674 160 674 191 572.5 c 128,-1,9
 222 471 222 471 222 348 c 0,10,11
 222 241 222 241 189.5 128.5 c 128,-1,12
 157 16 157 16 103 -43 c 1,13,-1
 27 -43 l 1,0,1
EndSplineSet
EndChar

StartChar: asterisk
Encoding: 42 42 13
Width: 445
GlyphClass: 2
Flags: W
LayerCount: 2
Fore
SplineSet
104 458 m 1,0,-1
 184 545 l 1,1,-1
 70 562 l 1,2,-1
 94 633 l 1,3,-1
 199 588 l 1,4,-1
 183 697 l 1,5,-1
 259 697 l 1,6,-1
 244 588 l 1,7,-1
 349 633 l 1,8,-1
 372 562 l 1,9,-1
 258 545 l 1,10,-1
 338 458 l 1,11,-1
 275 414 l 1,12,-1
 221 525 l 1,13,-1
 166 414 l 1,14,-1
 104 458 l 1,0,-1
EndSplineSet
EndChar

StartChar: plus
Encoding: 43 43 14
Width: 622
GlyphClass: 2
Flags: W
LayerCount: 2
Fore
SplineSet
275 273 m 1,0,-1
 57 273 l 1,1,-1
 57 345 l 1,2,-1
 275 345 l 1,3,-1
 275 563 l 1,4,-1
 347 563 l 1,5,-1
 347 345 l 1,6,-1
 564 345 l 1,7,-1
 564 273 l 1,8,-1
 347 273 l 1,9,-1
 347 55 l 1,10,-1
 275 55 l 1,11,-1
 275 273 l 1,0,-1
EndSplineSet
EndChar

StartChar: comma
Encoding: 44 44 15
Width: 323
GlyphClass: 2
Flags: W
LayerCount: 2
Fore
SplineSet
158 129 m 1,0,-1
 264 129 l 1,1,-1
 134 -153 l 1,2,-1
 76 -153 l 1,3,-1
 158 129 l 1,0,-1
EndSplineSet
EndChar

StartChar: hyphen
Encoding: 45 45 16
Width: 434
GlyphClass: 2
Flags: W
LayerCount: 2
Fore
SplineSet
80 336 m 1,0,-1
 354 336 l 1,1,-1
 354 270 l 1,2,-1
 80 270 l 1,3,-1
 80 336 l 1,0,-1
EndSplineSet
EndChar

StartChar: period
Encoding: 46 46 17
Width: 332
GlyphClass: 2
Flags: W
LayerCount: 2
Fore
SplineSet
116 117 m 1,0,-1
 216 117 l 1,1,-1
 216 0 l 1,2,-1
 116 0 l 1,3,-1
 116 117 l 1,0,-1
EndSplineSet
EndChar

StartChar: slash
Encoding: 47 47 18
Width: 440
GlyphClass: 2
Flags: W
LayerCount: 2
Fore
SplineSet
359 697 m 1,0,-1
 441 697 l 1,1,-1
 162 0 l 1,2,-1
 81 0 l 1,3,-1
 359 697 l 1,0,-1
EndSplineSet
EndChar

StartChar: zero
Encoding: 48 48 19
Width: 573
GlyphClass: 2
Flags: W
LayerCount: 2
Fore
SplineSet
62 348 m 0,1,2
 62 707 62 707 284 707 c 0,3,4
 405 707 405 707 459 605.5 c 128,-1,5
 513 504 513 504 513 347 c 0,6,7
 513 191 513 191 461 90.5 c 128,-1,8
 409 -10 409 -10 291 -10 c 0,9,0
 62 -10 62 -10 62 348 c 0,1,2
392.5 147 m 128,-1,11
 420 222 420 222 420 348 c 0,12,13
 420 477 420 477 391.5 551 c 128,-1,14
 363 625 363 625 284 625 c 256,15,16
 205 625 205 625 177.5 550 c 128,-1,17
 150 475 150 475 150 348 c 0,18,19
 150 222 150 222 178 147 c 128,-1,20
 206 72 206 72 289 72 c 0,21,10
 365 72 365 72 392.5 147 c 128,-1,11
EndSplineSet
Substitution2: "'case' Case-Sensitive Forms lookup 16 subtable" zero.lf
Substitution2: "'pnum' Proportional Numbers lookup 14 subtable" zero.lf
Substitution2: "'aalt' Access All Alternates lookup 0 subtable" zero.lf
EndChar

StartChar: one
Encoding: 49 49 20
Width: 573
GlyphClass: 2
Flags: W
LayerCount: 2
Fore
SplineSet
382 697 m 1,0,-1
 382 0 l 1,1,-1
 291 0 l 1,2,-1
 294 574 l 1,3,-1
 165 456 l 1,4,-1
 114 516 l 1,5,-1
 291 697 l 1,6,7
 291 697 l 257,8,9
 291 697 l 1,10,-1
 291 697 l 1,11,-1
 382 697 l 1,0,-1
EndSplineSet
Substitution2: "'case' Case-Sensitive Forms lookup 16 subtable" one.lf
Substitution2: "'pnum' Proportional Numbers lookup 14 subtable" one.lf
Substitution2: "'aalt' Access All Alternates lookup 0 subtable" one.lf
EndChar

StartChar: two
Encoding: 50 50 21
Width: 573
GlyphClass: 2
Flags: W
LayerCount: 2
Fore
SplineSet
507 81 m 1,0,-1
 507 0 l 1,1,-1
 44 0 l 1,2,-1
 43 79 l 1,3,4
 76 121 76 121 201 227 c 2,5,6
 201 227 201 227 343 345 c 1,7,8
 415 432 415 432 413 485 c 0,9,10
 410 553 410 553 377.5 588.5 c 128,-1,11
 345 624 345 624 284 624 c 0,12,13
 213 624 213 624 178 577 c 128,-1,14
 143 530 143 530 141 455 c 1,15,-1
 56 461 l 1,16,17
 56 529 56 529 83 585 c 128,-1,18
 110 641 110 641 161.5 674 c 128,-1,19
 213 707 213 707 285 707 c 0,20,21
 380 707 380 707 438 650 c 0,22,23
 490 599 490 599 497 494 c 0,24,25
 505 375 505 375 393 283 c 1,26,27
 393 283 393 283 253 159 c 1,28,-1
 171 81 l 1,29,-1
 507 81 l 1,0,-1
EndSplineSet
Substitution2: "'case' Case-Sensitive Forms lookup 16 subtable" two.lf
Substitution2: "'pnum' Proportional Numbers lookup 14 subtable" two.lf
Substitution2: "'aalt' Access All Alternates lookup 0 subtable" two.lf
EndChar

StartChar: three
Encoding: 51 51 22
Width: 573
GlyphClass: 2
Flags: W
LayerCount: 2
Fore
SplineSet
153.5 15.5 m 128,-1,1
 97 41 97 41 64.5 91.5 c 128,-1,2
 32 142 32 142 32 212 c 1,3,-1
 117 217 l 1,4,5
 117 149 117 149 163 110.5 c 128,-1,6
 209 72 209 72 283 72 c 0,7,8
 353 72 353 72 398.5 108 c 128,-1,9
 444 144 444 144 444 209 c 0,10,11
 444 282 444 282 388.5 306.5 c 128,-1,12
 333 331 333 331 248 331 c 1,13,-1
 248 401 l 1,14,15
 324 401 324 401 365.5 429.5 c 128,-1,16
 407 458 407 458 407 514 c 0,17,18
 407 568 407 568 372.5 596.5 c 128,-1,19
 338 625 338 625 284 625 c 0,20,21
 224 625 224 625 187.5 592.5 c 128,-1,22
 151 560 151 560 150 502 c 1,23,-1
 66 508 l 1,24,25
 66 568 66 568 94.5 613.5 c 128,-1,26
 123 659 123 659 172 683 c 128,-1,27
 221 707 221 707 281 707 c 0,28,29
 338 707 338 707 386.5 685.5 c 128,-1,30
 435 664 435 664 464 622.5 c 128,-1,31
 493 581 493 581 493 525 c 0,32,33
 493 472 493 472 465.5 431.5 c 128,-1,34
 438 391 438 391 396 374 c 1,35,36
 456 360 456 360 493 314.5 c 128,-1,37
 530 269 530 269 530 200 c 0,38,39
 530 135 530 135 496.5 87.5 c 128,-1,40
 463 40 463 40 406.5 15 c 128,-1,41
 350 -10 350 -10 281 -10 c 0,42,0
 210 -10 210 -10 153.5 15.5 c 128,-1,1
EndSplineSet
Substitution2: "'case' Case-Sensitive Forms lookup 16 subtable" three.lf
Substitution2: "'pnum' Proportional Numbers lookup 14 subtable" three.lf
Substitution2: "'aalt' Access All Alternates lookup 0 subtable" three.lf
EndChar

StartChar: four
Encoding: 52 52 23
Width: 573
GlyphClass: 2
Flags: W
LayerCount: 2
Fore
SplineSet
556 248 m 1,0,-1
 556 165 l 1,1,-1
 444 165 l 1,2,-1
 444 0 l 1,3,-1
 358 0 l 1,4,-1
 358 165 l 1,5,-1
 16 165 l 1,6,-1
 16 219 l 1,7,-1
 366 697 l 1,8,-1
 444 697 l 1,9,-1
 444 248 l 1,10,-1
 556 248 l 1,0,-1
358 248 m 1,11,-1
 358 571 l 1,12,-1
 128 248 l 1,13,-1
 358 248 l 1,11,-1
EndSplineSet
Substitution2: "'case' Case-Sensitive Forms lookup 16 subtable" four.lf
Substitution2: "'pnum' Proportional Numbers lookup 14 subtable" four.lf
Substitution2: "'aalt' Access All Alternates lookup 0 subtable" four.lf
EndChar

StartChar: five
Encoding: 53 53 24
Width: 573
GlyphClass: 2
Flags: W
LayerCount: 2
Fore
SplineSet
418.5 439 m 128,-1,1
 471 408 471 408 500.5 355 c 128,-1,2
 530 302 530 302 530 238 c 0,3,4
 530 172 530 172 498 115.5 c 128,-1,5
 466 59 466 59 409.5 25 c 128,-1,6
 353 -9 353 -9 284 -9 c 0,7,8
 221 -9 221 -9 169.5 18 c 128,-1,9
 118 45 118 45 85 92 c 128,-1,10
 52 139 52 139 42 196 c 1,11,-1
 126 210 l 1,12,13
 136 151 136 151 177.5 112.5 c 128,-1,14
 219 74 219 74 283 74 c 0,15,16
 330 74 330 74 365.5 96.5 c 128,-1,17
 401 119 401 119 420 156.5 c 128,-1,18
 439 194 439 194 439 238 c 0,19,20
 439 303 439 303 399 346.5 c 128,-1,21
 359 390 359 390 290 390 c 0,22,23
 200 390 200 390 148 313 c 1,24,-1
 63 335 l 1,25,-1
 128 697 l 1,26,-1
 498 697 l 1,27,-1
 498 615 l 1,28,-1
 199 615 l 1,29,-1
 164 421 l 1,30,31
 222 470 222 470 300 470 c 0,32,0
 366 470 366 470 418.5 439 c 128,-1,1
EndSplineSet
Substitution2: "'case' Case-Sensitive Forms lookup 16 subtable" five.lf
Substitution2: "'pnum' Proportional Numbers lookup 14 subtable" five.lf
Substitution2: "'aalt' Access All Alternates lookup 0 subtable" five.lf
EndChar

StartChar: six
Encoding: 54 54 25
Width: 573
GlyphClass: 2
Flags: W
LayerCount: 2
Fore
SplineSet
416 427.5 m 128,-1,1
 469 397 469 397 499.5 344 c 128,-1,2
 530 291 530 291 530 227 c 0,3,4
 530 162 530 162 497.5 108 c 128,-1,5
 465 54 465 54 409.5 22.5 c 128,-1,6
 354 -9 354 -9 288 -9 c 256,7,8
 222 -9 222 -9 166 22 c 128,-1,9
 110 53 110 53 77.5 107 c 128,-1,10
 45 161 45 161 45 226 c 0,11,12
 45 292 45 292 82 352 c 2,13,-1
 291 697 l 1,14,-1
 389 697 l 1,15,-1
 234 449 l 1,16,17
 264 458 264 458 298 458 c 0,18,0
 363 458 363 458 416 427.5 c 128,-1,1
365.5 94 m 128,-1,20
 401 114 401 114 422 149 c 128,-1,21
 443 184 443 184 443 227 c 256,22,23
 443 270 443 270 422 305 c 128,-1,24
 401 340 401 340 365.5 360 c 128,-1,25
 330 380 330 380 288 380 c 0,26,27
 245 380 245 380 209.5 360 c 128,-1,28
 174 340 174 340 153 305 c 128,-1,29
 132 270 132 270 132 227 c 256,30,31
 132 184 132 184 153 149 c 128,-1,32
 174 114 174 114 209.5 94 c 128,-1,33
 245 74 245 74 288 74 c 0,34,19
 330 74 330 74 365.5 94 c 128,-1,20
EndSplineSet
Substitution2: "'case' Case-Sensitive Forms lookup 16 subtable" six.lf
Substitution2: "'pnum' Proportional Numbers lookup 14 subtable" six.lf
Substitution2: "'aalt' Access All Alternates lookup 0 subtable" six.lf
EndChar

StartChar: seven
Encoding: 55 55 26
Width: 573
GlyphClass: 2
Flags: W
LayerCount: 2
Fore
SplineSet
536 697 m 1,0,-1
 536 647 l 1,1,-1
 206 0 l 1,2,-1
 108 0 l 1,3,-1
 429 615 l 1,4,-1
 36 615 l 1,5,-1
 36 697 l 1,6,-1
 536 697 l 1,0,-1
EndSplineSet
Substitution2: "'case' Case-Sensitive Forms lookup 16 subtable" seven.lf
Substitution2: "'pnum' Proportional Numbers lookup 14 subtable" seven.lf
Substitution2: "'aalt' Access All Alternates lookup 0 subtable" seven.lf
EndChar

StartChar: eight
Encoding: 56 56 27
Width: 573
GlyphClass: 2
Flags: W
LayerCount: 2
Fore
SplineSet
167.5 15 m 128,-1,1
 112 39 112 39 78 86 c 128,-1,2
 44 133 44 133 44 200 c 0,3,4
 44 263 44 263 75.5 309.5 c 128,-1,5
 107 356 107 356 164 379 c 1,6,7
 125 401 125 401 103 438.5 c 128,-1,8
 81 476 81 476 81 524 c 0,9,10
 81 579 81 579 110 620.5 c 128,-1,11
 139 662 139 662 186.5 684 c 128,-1,12
 234 706 234 706 288 706 c 0,13,14
 343 706 343 706 390 683 c 128,-1,15
 437 660 437 660 465 618 c 128,-1,16
 493 576 493 576 493 521 c 0,17,18
 493 474 493 474 470.5 436.5 c 128,-1,19
 448 399 448 399 410 379 c 1,20,21
 467 357 467 357 498 309.5 c 128,-1,22
 529 262 529 262 529 200 c 0,23,24
 529 133 529 133 495.5 86 c 128,-1,25
 462 39 462 39 406.5 15 c 128,-1,26
 351 -9 351 -9 287 -9 c 256,27,0
 223 -9 223 -9 167.5 15 c 128,-1,1
374.5 434.5 m 128,-1,29
 408 465 408 465 408 515 c 0,30,31
 408 563 408 563 374.5 593 c 128,-1,32
 341 623 341 623 288 623 c 0,33,34
 236 623 236 623 201.5 594 c 128,-1,35
 167 565 167 565 167 517 c 0,36,37
 167 465 167 465 200 434.5 c 128,-1,38
 233 404 233 404 288 404 c 0,39,28
 341 404 341 404 374.5 434.5 c 128,-1,29
399 108 m 128,-1,41
 444 143 444 143 444 207 c 0,42,43
 444 270 444 270 400.5 307 c 128,-1,44
 357 344 357 344 287 344 c 256,45,46
 217 344 217 344 173.5 307 c 128,-1,47
 130 270 130 270 130 207 c 0,48,49
 130 143 130 143 175 108 c 128,-1,50
 220 73 220 73 287 73 c 256,51,40
 354 73 354 73 399 108 c 128,-1,41
EndSplineSet
Substitution2: "'case' Case-Sensitive Forms lookup 16 subtable" eight.lf
Substitution2: "'pnum' Proportional Numbers lookup 14 subtable" eight.lf
Substitution2: "'aalt' Access All Alternates lookup 0 subtable" eight.lf
EndChar

StartChar: nine
Encoding: 57 57 28
Width: 573
GlyphClass: 2
Flags: W
LayerCount: 2
Fore
SplineSet
407.5 675 m 128,-1,1
 463 644 463 644 496 590 c 128,-1,2
 529 536 529 536 529 471 c 0,3,4
 529 405 529 405 492 345 c 2,5,-1
 283 0 l 1,6,-1
 185 0 l 1,7,-1
 339 248 l 1,8,9
 309 239 309 239 275 239 c 0,10,11
 211 239 211 239 158 269.5 c 128,-1,12
 105 300 105 300 74.5 353 c 128,-1,13
 44 406 44 406 44 470 c 0,14,15
 44 535 44 535 76.5 589 c 128,-1,16
 109 643 109 643 164.5 674.5 c 128,-1,17
 220 706 220 706 286 706 c 256,18,0
 352 706 352 706 407.5 675 c 128,-1,1
364 337 m 128,-1,20
 400 357 400 357 420.5 392 c 128,-1,21
 441 427 441 427 441 470 c 256,22,23
 441 513 441 513 420.5 548 c 128,-1,24
 400 583 400 583 364.5 603 c 128,-1,25
 329 623 329 623 286 623 c 0,26,27
 244 623 244 623 208 603 c 128,-1,28
 172 583 172 583 151.5 548 c 128,-1,29
 131 513 131 513 131 470 c 256,30,31
 131 427 131 427 151.5 392 c 128,-1,32
 172 357 172 357 208 337 c 128,-1,33
 244 317 244 317 286 317 c 256,34,19
 328 317 328 317 364 337 c 128,-1,20
EndSplineSet
Substitution2: "'case' Case-Sensitive Forms lookup 16 subtable" nine.lf
Substitution2: "'pnum' Proportional Numbers lookup 14 subtable" nine.lf
Substitution2: "'aalt' Access All Alternates lookup 0 subtable" nine.lf
EndChar

StartChar: colon
Encoding: 58 58 29
Width: 338
GlyphClass: 2
Flags: W
LayerCount: 2
Fore
SplineSet
118 471 m 1,0,-1
 221 471 l 1,1,-1
 221 354 l 1,2,-1
 118 354 l 1,3,-1
 118 471 l 1,0,-1
118 117 m 1,4,-1
 221 117 l 1,5,-1
 221 0 l 1,6,-1
 118 0 l 1,7,-1
 118 117 l 1,4,-1
EndSplineSet
EndChar

StartChar: semicolon
Encoding: 59 59 30
Width: 333
GlyphClass: 2
Flags: W
LayerCount: 2
Fore
SplineSet
139 471 m 1,0,-1
 243 471 l 1,1,-1
 243 354 l 1,2,-1
 139 354 l 1,3,-1
 139 471 l 1,0,-1
138 129 m 1,4,-1
 244 129 l 1,5,-1
 114 -153 l 1,6,-1
 56 -153 l 1,7,-1
 138 129 l 1,4,-1
EndSplineSet
EndChar

StartChar: less
Encoding: 60 60 31
Width: 643
GlyphClass: 2
Flags: W
LayerCount: 2
Fore
SplineSet
42 298 m 1,0,-1
 549 587 l 1,1,-1
 582 530 l 1,2,-1
 175 298 l 1,3,-1
 582 66 l 1,4,-1
 549 9 l 1,5,-1
 42 298 l 1,0,-1
EndSplineSet
EndChar

StartChar: equal
Encoding: 61 61 32
Width: 645
GlyphClass: 2
Flags: W
LayerCount: 2
Fore
SplineSet
125 470 m 1,0,-1
 520 470 l 1,1,-1
 520 398 l 1,2,-1
 125 398 l 1,3,-1
 125 470 l 1,0,-1
125 267 m 1,4,-1
 520 267 l 1,5,-1
 520 194 l 1,6,-1
 125 194 l 1,7,-1
 125 267 l 1,4,-1
EndSplineSet
EndChar

StartChar: greater
Encoding: 62 62 33
Width: 643
GlyphClass: 2
Flags: W
LayerCount: 2
Fore
SplineSet
62 66 m 1,0,-1
 468 298 l 1,1,-1
 62 530 l 1,2,-1
 94 587 l 1,3,-1
 601 298 l 1,4,-1
 94 9 l 1,5,-1
 62 66 l 1,0,-1
EndSplineSet
EndChar

StartChar: question
Encoding: 63 63 34
Width: 515
GlyphClass: 2
Flags: W
LayerCount: 2
Fore
SplineSet
217 278 m 2,0,1
 217 315 217 315 229.5 340 c 128,-1,2
 242 365 242 365 260 379 c 128,-1,3
 278 393 278 393 308 410 c 0,4,5
 348 432 348 432 368.5 454 c 128,-1,6
 389 476 389 476 389 518 c 0,7,8
 389 575 389 575 352.5 604.5 c 128,-1,9
 316 634 316 634 252 634 c 0,10,11
 187 634 187 634 153 599.5 c 128,-1,12
 119 565 119 565 118 502 c 1,13,-1
 42 502 l 1,14,15
 42 597 42 597 98.5 651.5 c 128,-1,16
 155 706 155 706 249 706 c 256,17,18
 343 706 343 706 403.5 656 c 128,-1,19
 464 606 464 606 464 517 c 0,20,21
 464 469 464 469 448 437 c 128,-1,22
 432 405 432 405 410 387 c 128,-1,23
 388 369 388 369 354 349 c 0,24,25
 321 330 321 330 305.5 315.5 c 128,-1,26
 290 301 290 301 290 277 c 2,27,-1
 290 200 l 1,28,-1
 217 200 l 1,29,-1
 217 278 l 2,0,1
203 117 m 1,30,-1
 306 117 l 1,31,-1
 306 0 l 1,32,-1
 203 0 l 1,33,-1
 203 117 l 1,30,-1
EndSplineSet
EndChar

StartChar: at
Encoding: 64 64 35
Width: 1029
GlyphClass: 2
Flags: W
LayerCount: 2
Fore
SplineSet
288.5 -120.5 m 128,-1,1
 188 -68 188 -68 129 29.5 c 128,-1,2
 70 127 70 127 70 256 c 0,3,4
 70 382 70 382 127 485 c 128,-1,5
 184 588 184 588 286.5 647.5 c 128,-1,6
 389 707 389 707 520 707 c 0,7,8
 650 707 650 707 750.5 648.5 c 128,-1,9
 851 590 851 590 906 490.5 c 128,-1,10
 961 391 961 391 961 272 c 0,11,12
 961 192 961 192 936 122.5 c 128,-1,13
 911 53 911 53 859.5 9.5 c 128,-1,14
 808 -34 808 -34 734 -34 c 0,15,16
 685 -34 685 -34 655 -10.5 c 128,-1,17
 625 13 625 13 618 59 c 0,18,19
 614 88 614 88 614 116 c 1,20,21
 582 73 582 73 539 48.5 c 128,-1,22
 496 24 496 24 447 24 c 0,23,24
 371 24 371 24 330 77 c 128,-1,25
 289 130 289 130 289 211 c 0,26,27
 289 280 289 280 318 352 c 128,-1,28
 347 424 347 424 402 472 c 128,-1,29
 457 520 457 520 531 520 c 0,30,31
 582 520 582 520 616 495 c 128,-1,32
 650 470 650 470 663 426 c 1,33,-1
 678 495 l 1,34,-1
 748 494 l 1,35,36
 735 430 735 430 721 372 c 0,37,38
 697 267 697 267 685.5 206.5 c 128,-1,39
 674 146 674 146 674 102 c 0,40,41
 674 69 674 69 687 52.5 c 128,-1,42
 700 36 700 36 731 36 c 0,43,44
 786 36 786 36 823 70 c 128,-1,45
 860 104 860 104 877 158.5 c 128,-1,46
 894 213 894 213 894 273 c 0,47,48
 894 374 894 374 847.5 458 c 128,-1,49
 801 542 801 542 716 591.5 c 128,-1,50
 631 641 631 641 520 641 c 0,51,52
 408 641 408 641 321 590.5 c 128,-1,53
 234 540 234 540 186 453 c 128,-1,54
 138 366 138 366 138 258 c 0,55,56
 138 147 138 147 188 64.5 c 128,-1,57
 238 -18 238 -18 323.5 -61 c 128,-1,58
 409 -104 409 -104 511 -104 c 0,59,60
 574 -104 574 -104 639 -83 c 1,61,-1
 663 -147 l 1,62,63
 592 -173 592 -173 510 -173 c 0,64,0
 389 -173 389 -173 288.5 -120.5 c 128,-1,1
552 131.5 m 128,-1,66
 594 169 594 169 616 226 c 128,-1,67
 638 283 638 283 638 338 c 0,68,69
 638 392 638 392 614 421 c 128,-1,70
 590 450 590 450 541 450 c 0,71,72
 483 450 483 450 441 413 c 128,-1,73
 399 376 399 376 377 319.5 c 128,-1,74
 355 263 355 263 355 208 c 256,75,76
 355 153 355 153 379.5 123.5 c 128,-1,77
 404 94 404 94 453 94 c 0,78,65
 510 94 510 94 552 131.5 c 128,-1,66
EndSplineSet
EndChar

StartChar: A
Encoding: 65 65 36
Width: 654
GlyphClass: 2
Flags: W
AnchorPoint: "Anchor-4" 327 697 basechar 0
AnchorPoint: "Anchor-3" 629 0 basechar 0
AnchorPoint: "Anchor-2" 327 0 basechar 0
LayerCount: 2
Fore
SplineSet
469 173 m 1,0,-1
 185 173 l 1,1,-1
 123 0 l 1,2,-1
 25 0 l 1,3,-1
 292 697 l 1,4,-1
 362 697 l 1,5,-1
 629 0 l 1,6,-1
 531 0 l 1,7,-1
 469 173 l 1,0,-1
440 252 m 1,8,-1
 327 568 l 1,9,-1
 214 252 l 1,10,-1
 440 252 l 1,8,-1
EndSplineSet
Substitution2: "Single Substitution lookup 23 subtable" ordfeminine
Substitution2: "'aalt' Access All Alternates lookup 0 subtable" ordfeminine
EndChar

StartChar: B
Encoding: 66 66 37
Width: 635
GlyphClass: 2
Flags: W
AnchorPoint: "Anchor-4" 317 697 basechar 0
AnchorPoint: "Anchor-2" 317 0 basechar 0
LayerCount: 2
Fore
SplineSet
105 697 m 1,0,-1
 329 697 l 2,1,2
 429 697 429 697 485 651 c 128,-1,3
 541 605 541 605 541 522 c 0,4,5
 541 470 541 470 518.5 431 c 128,-1,6
 496 392 496 392 454 373 c 1,7,8
 515 356 515 356 546.5 311 c 128,-1,9
 578 266 578 266 578 198 c 0,10,11
 578 104 578 104 519 52 c 128,-1,12
 460 0 460 0 353 0 c 2,13,-1
 105 0 l 1,14,-1
 105 697 l 1,0,-1
338 402 m 2,15,16
 393 402 393 402 422.5 429.5 c 128,-1,17
 452 457 452 457 452 507 c 0,18,19
 452 558 452 558 419.5 586.5 c 128,-1,20
 387 615 387 615 329 615 c 2,21,-1
 194 615 l 1,22,-1
 194 402 l 1,23,-1
 338 402 l 2,15,16
347 82 m 2,24,25
 414 82 414 82 451 114 c 128,-1,26
 488 146 488 146 488 205 c 0,27,28
 488 261 488 261 454.5 291.5 c 128,-1,29
 421 322 421 322 359 322 c 2,30,-1
 194 322 l 1,31,-1
 194 82 l 1,32,-1
 347 82 l 2,24,25
EndSplineSet
EndChar

StartChar: C
Encoding: 67 67 38
Width: 723
GlyphClass: 2
Flags: W
AnchorPoint: "Anchor-4" 390 697 basechar 0
AnchorPoint: "Anchor-2" 390 0 basechar 0
LayerCount: 2
Fore
SplineSet
210 31.5 m 128,-1,1
 137 75 137 75 98 156.5 c 128,-1,2
 59 238 59 238 59 350 c 0,3,4
 59 461 59 461 98.5 542 c 128,-1,5
 138 623 138 623 211.5 666 c 128,-1,6
 285 709 285 709 386 709 c 0,7,8
 493 709 493 709 568 659.5 c 128,-1,9
 643 610 643 610 680 514 c 1,10,-1
 598 482 l 1,11,12
 546 624 546 624 386 624 c 0,13,14
 272 624 272 624 210 552.5 c 128,-1,15
 148 481 148 481 148 350 c 0,16,17
 148 218 148 218 209.5 145.5 c 128,-1,18
 271 73 271 73 383 73 c 0,19,20
 461 73 461 73 516 109.5 c 128,-1,21
 571 146 571 146 598 218 c 1,22,-1
 682 187 l 1,23,24
 644 90 644 90 567 39 c 128,-1,25
 490 -12 490 -12 383 -12 c 0,26,0
 283 -12 283 -12 210 31.5 c 128,-1,1
EndSplineSet
EndChar

StartChar: D
Encoding: 68 68 39
Width: 714
GlyphClass: 2
Flags: W
AnchorPoint: "Anchor-5" 174 349 basechar 0
AnchorPoint: "Anchor-4" 358 697 basechar 0
AnchorPoint: "Anchor-2" 358 0 basechar 0
LayerCount: 2
Fore
SplineSet
105 697 m 1,0,-1
 299 697 l 2,1,2
 470 697 470 697 563.5 604.5 c 128,-1,3
 657 512 657 512 657 343 c 0,4,5
 657 177 657 177 564.5 88.5 c 128,-1,6
 472 0 472 0 298 0 c 2,7,-1
 105 0 l 1,8,-1
 105 697 l 1,0,-1
290 82 m 2,9,10
 431 82 431 82 499 147 c 128,-1,11
 567 212 567 212 567 347 c 0,12,13
 567 615 567 615 297 615 c 2,14,-1
 194 615 l 1,15,-1
 194 82 l 1,16,-1
 290 82 l 2,9,10
EndSplineSet
EndChar

StartChar: E
Encoding: 69 69 40
Width: 625
GlyphClass: 2
Flags: W
AnchorPoint: "Anchor-4" 335 697 basechar 0
AnchorPoint: "Anchor-3" 565 0 basechar 0
AnchorPoint: "Anchor-2" 335 0 basechar 0
LayerCount: 2
Fore
SplineSet
105 697 m 1,0,-1
 565 697 l 1,1,-1
 565 615 l 1,2,-1
 194 615 l 1,3,-1
 194 397 l 1,4,-1
 531 397 l 1,5,-1
 531 315 l 1,6,-1
 194 315 l 1,7,-1
 194 82 l 1,8,-1
 565 82 l 1,9,-1
 565 0 l 1,10,-1
 105 0 l 1,11,-1
 105 697 l 1,0,-1
EndSplineSet
EndChar

StartChar: F
Encoding: 70 70 41
Width: 620
GlyphClass: 2
Flags: W
AnchorPoint: "Anchor-4" 311 697 basechar 0
AnchorPoint: "Anchor-2" 311 0 basechar 0
LayerCount: 2
Fore
SplineSet
105 697 m 1,0,-1
 585 697 l 1,1,-1
 585 615 l 1,2,-1
 194 615 l 1,3,-1
 194 397 l 1,4,-1
 537 397 l 1,5,-1
 537 315 l 1,6,-1
 194 315 l 1,7,-1
 194 0 l 1,8,-1
 105 0 l 1,9,-1
 105 697 l 1,0,-1
EndSplineSet
EndChar

StartChar: G
Encoding: 71 71 42
Width: 762
GlyphClass: 2
Flags: W
AnchorPoint: "Anchor-4" 382 697 basechar 0
AnchorPoint: "Anchor-2" 382 0 basechar 0
LayerCount: 2
Fore
SplineSet
682 366 m 1,0,-1
 682 0 l 1,1,-1
 614 0 l 1,2,-1
 602 95 l 1,3,4
 572 44 572 44 514 16 c 128,-1,5
 456 -12 456 -12 381 -12 c 0,6,7
 282 -12 282 -12 209 34 c 128,-1,8
 136 80 136 80 97 162 c 128,-1,9
 58 244 58 244 58 350 c 0,10,11
 58 455 58 455 96.5 536 c 128,-1,12
 135 617 135 617 209 663 c 128,-1,13
 283 709 283 709 386 709 c 0,14,15
 494 709 494 709 569 658.5 c 128,-1,16
 644 608 644 608 680 514 c 1,17,-1
 597 482 l 1,18,19
 546 624 546 624 385 624 c 0,20,21
 270 624 270 624 208.5 551.5 c 128,-1,22
 147 479 147 479 147 352 c 256,23,24
 147 225 147 225 208 149 c 128,-1,25
 269 73 269 73 387 73 c 0,26,27
 480 73 480 73 538 123 c 128,-1,28
 596 173 596 173 596 271 c 2,29,-1
 596 289 l 1,30,-1
 432 289 l 1,31,-1
 432 366 l 1,32,-1
 682 366 l 1,0,-1
EndSplineSet
EndChar

StartChar: H
Encoding: 72 72 43
Width: 732
GlyphClass: 2
Flags: W
AnchorPoint: "Anchor-5" 366 547 basechar 0
AnchorPoint: "Anchor-4" 367 697 basechar 0
AnchorPoint: "Anchor-2" 367 201 basechar 0
LayerCount: 2
Fore
SplineSet
105 697 m 1,0,-1
 194 697 l 1,1,-1
 194 398 l 1,2,-1
 537 398 l 1,3,-1
 537 697 l 1,4,-1
 627 697 l 1,5,-1
 627 0 l 1,6,-1
 537 0 l 1,7,-1
 537 315 l 1,8,-1
 194 315 l 1,9,-1
 194 0 l 1,10,-1
 105 0 l 1,11,-1
 105 697 l 1,0,-1
EndSplineSet
EndChar

StartChar: I
Encoding: 73 73 44
Width: 300
GlyphClass: 2
Flags: W
AnchorPoint: "Anchor-4" 150 697 basechar 0
AnchorPoint: "Anchor-3" 194 0 basechar 0
AnchorPoint: "Anchor-2" 150 0 basechar 0
LayerCount: 2
Fore
SplineSet
105 697 m 1,0,-1
 194 697 l 1,1,-1
 194 0 l 1,2,-1
 105 0 l 1,3,-1
 105 697 l 1,0,-1
EndSplineSet
EndChar

StartChar: J
Encoding: 74 74 45
Width: 576
GlyphClass: 2
Flags: W
AnchorPoint: "Anchor-4" 288 697 basechar 0
AnchorPoint: "Anchor-2" 288 0 basechar 0
LayerCount: 2
Fore
SplineSet
99 46.5 m 128,-1,1
 38 105 38 105 31 208 c 1,2,-1
 119 218 l 1,3,4
 124 146 124 146 159.5 109 c 128,-1,5
 195 72 195 72 259 72 c 0,6,7
 327 72 327 72 361 116.5 c 128,-1,8
 395 161 395 161 395 252 c 2,9,-1
 395 615 l 1,10,-1
 226 615 l 1,11,-1
 226 697 l 1,12,-1
 484 697 l 1,13,-1
 484 247 l 2,14,15
 484 124 484 124 424.5 56 c 128,-1,16
 365 -12 365 -12 259 -12 c 0,17,0
 160 -12 160 -12 99 46.5 c 128,-1,1
EndSplineSet
EndChar

StartChar: K
Encoding: 75 75 46
Width: 709
GlyphClass: 2
Flags: W
AnchorPoint: "Anchor-4" 355 697 basechar 0
AnchorPoint: "Anchor-2" 355 0 basechar 0
LayerCount: 2
Fore
SplineSet
579 0 m 1,0,-1
 310 326 l 1,1,-1
 194 211 l 1,2,-1
 194 0 l 1,3,-1
 105 0 l 1,4,-1
 105 697 l 1,5,-1
 194 697 l 1,6,-1
 194 324 l 1,7,-1
 553 697 l 1,8,-1
 670 697 l 1,9,-1
 374 388 l 1,10,-1
 682 0 l 1,11,-1
 579 0 l 1,0,-1
EndSplineSet
EndChar

StartChar: L
Encoding: 76 76 47
Width: 531
GlyphClass: 2
Flags: W
AnchorPoint: "Anchor-6" 411 493 basechar 0
AnchorPoint: "Anchor-5" 197 351 basechar 0
AnchorPoint: "Anchor-4" 150 697 basechar 0
AnchorPoint: "Anchor-2" 306 0 basechar 0
LayerCount: 2
Fore
SplineSet
105 697 m 1,0,-1
 194 697 l 1,1,-1
 194 82 l 1,2,-1
 506 82 l 1,3,-1
 506 0 l 1,4,-1
 105 0 l 1,5,-1
 105 697 l 1,0,-1
EndSplineSet
EndChar

StartChar: M
Encoding: 77 77 48
Width: 892
GlyphClass: 2
Flags: W
AnchorPoint: "Anchor-4" 446 697 basechar 0
AnchorPoint: "Anchor-2" 446 0 basechar 0
LayerCount: 2
Fore
SplineSet
787 697 m 1,0,-1
 787 0 l 1,1,-1
 697 0 l 1,2,-1
 697 576 l 1,3,-1
 490 59 l 1,4,-1
 403 59 l 1,5,-1
 194 578 l 1,6,-1
 194 0 l 1,7,-1
 105 0 l 1,8,-1
 105 697 l 1,9,-1
 234 697 l 1,10,-1
 446 161 l 1,11,-1
 658 697 l 1,12,-1
 787 697 l 1,0,-1
EndSplineSet
EndChar

StartChar: N
Encoding: 78 78 49
Width: 721
GlyphClass: 2
Flags: W
AnchorPoint: "Anchor-4" 361 697 basechar 0
AnchorPoint: "Anchor-2" 361 0 basechar 0
LayerCount: 2
Fore
SplineSet
616 697 m 1,0,-1
 616 0 l 1,1,-1
 520 0 l 1,2,-1
 194 545 l 1,3,-1
 194 0 l 1,4,-1
 105 0 l 1,5,-1
 105 697 l 1,6,-1
 200 697 l 1,7,-1
 527 154 l 1,8,-1
 527 697 l 1,9,-1
 616 697 l 1,0,-1
EndSplineSet
EndChar

StartChar: O
Encoding: 79 79 50
Width: 763
GlyphClass: 2
Flags: W
AnchorPoint: "Anchor-6" 701 493 basechar 0
AnchorPoint: "Anchor-5" 381 349 basechar 0
AnchorPoint: "Anchor-4" 381 697 basechar 0
AnchorPoint: "Anchor-3" 455 0 basechar 0
AnchorPoint: "Anchor-2" 381 0 basechar 0
LayerCount: 2
Fore
SplineSet
212 33 m 128,-1,1
 139 78 139 78 98.5 159.5 c 128,-1,2
 58 241 58 241 58 348 c 256,3,4
 58 455 58 455 98.5 537 c 128,-1,5
 139 619 139 619 212 664 c 128,-1,6
 285 709 285 709 381 709 c 256,7,8
 477 709 477 709 550.5 664 c 128,-1,9
 624 619 624 619 664.5 537 c 128,-1,10
 705 455 705 455 705 348 c 256,11,12
 705 241 705 241 664.5 159.5 c 128,-1,13
 624 78 624 78 550.5 33 c 128,-1,14
 477 -12 477 -12 381 -12 c 256,15,0
 285 -12 285 -12 212 33 c 128,-1,1
505 106.5 m 128,-1,17
 558 140 558 140 587 202.5 c 128,-1,18
 616 265 616 265 616 348 c 0,19,20
 616 432 616 432 587 494 c 128,-1,21
 558 556 558 556 505 590 c 128,-1,22
 452 624 452 624 381 624 c 256,23,24
 310 624 310 624 257 590.5 c 128,-1,25
 204 557 204 557 175.5 494.5 c 128,-1,26
 147 432 147 432 147 348 c 0,27,28
 147 265 147 265 175.5 202.5 c 128,-1,29
 204 140 204 140 257 106.5 c 128,-1,30
 310 73 310 73 381 73 c 256,31,16
 452 73 452 73 505 106.5 c 128,-1,17
EndSplineSet
Substitution2: "Single Substitution lookup 23 subtable" ordmasculine
Substitution2: "'aalt' Access All Alternates lookup 0 subtable" ordmasculine
EndChar

StartChar: P
Encoding: 80 80 51
Width: 587
GlyphClass: 2
Flags: W
AnchorPoint: "Anchor-4" 294 697 basechar 0
AnchorPoint: "Anchor-2" 294 0 basechar 0
LayerCount: 2
Fore
SplineSet
105 697 m 1,0,-1
 314 697 l 2,1,2
 427 697 427 697 486.5 646.5 c 128,-1,3
 546 596 546 596 546 500 c 0,4,5
 546 403 546 403 486 351 c 128,-1,6
 426 299 426 299 314 299 c 2,7,-1
 194 299 l 1,8,-1
 194 0 l 1,9,-1
 105 0 l 1,10,-1
 105 697 l 1,0,-1
305 381 m 2,11,12
 457 381 457 381 457 499 c 0,13,14
 457 615 457 615 305 615 c 2,15,-1
 194 615 l 1,16,-1
 194 381 l 1,17,-1
 305 381 l 2,11,12
EndSplineSet
EndChar

StartChar: Q
Encoding: 81 81 52
Width: 778
GlyphClass: 2
Flags: W
AnchorPoint: "Anchor-4" 389 697 basechar 0
AnchorPoint: "Anchor-2" 389 0 basechar 0
LayerCount: 2
Fore
SplineSet
668 -56 m 1,0,-1
 565 44 l 1,1,2
 486 -12 486 -12 380 -12 c 0,3,4
 284 -12 284 -12 210.5 33 c 128,-1,5
 137 78 137 78 96.5 159.5 c 128,-1,6
 56 241 56 241 56 348 c 256,7,8
 56 455 56 455 96.5 537 c 128,-1,9
 137 619 137 619 210.5 664 c 128,-1,10
 284 709 284 709 380 709 c 256,11,12
 476 709 476 709 549.5 664 c 128,-1,13
 623 619 623 619 663.5 537 c 128,-1,14
 704 455 704 455 704 348 c 0,15,16
 704 272 704 272 683 208 c 128,-1,17
 662 144 662 144 623 97 c 1,18,-1
 724 -3 l 1,19,-1
 668 -56 l 1,0,-1
502 105 m 1,21,-1
 396 208 l 1,22,-1
 453 263 l 1,23,-1
 560 158 l 1,24,25
 615 232 615 232 615 348 c 0,26,27
 615 432 615 432 586 494 c 128,-1,28
 557 556 557 556 504 590 c 128,-1,29
 451 624 451 624 380 624 c 256,30,31
 309 624 309 624 256 590 c 128,-1,32
 203 556 203 556 174 494 c 128,-1,33
 145 432 145 432 145 348 c 0,34,35
 145 265 145 265 174 202.5 c 128,-1,36
 203 140 203 140 256 106.5 c 128,-1,37
 309 73 309 73 380 73 c 0,38,20
 450 73 450 73 502 105 c 1,21,-1
EndSplineSet
EndChar

StartChar: R
Encoding: 82 82 53
Width: 629
GlyphClass: 2
Flags: W
AnchorPoint: "Anchor-4" 315 697 basechar 0
AnchorPoint: "Anchor-2" 315 0 basechar 0
LayerCount: 2
Fore
SplineSet
494 0 m 1,0,-1
 274 302 l 1,1,-1
 274 302 l 1,2,-1
 194 302 l 1,3,-1
 194 0 l 1,4,-1
 105 0 l 1,5,-1
 105 697 l 1,6,-1
 314 697 l 2,7,8
 429 697 429 697 487.5 646.5 c 128,-1,9
 546 596 546 596 546 501 c 0,10,11
 539.285442722 418.260201693 539.285442722 418.260201693 504 372.75 c 0,12,13
 460 316 460 316 380 302 c 1,14,-1
 597 0 l 1,15,-1
 494 0 l 1,0,-1
305 385 m 2,16,17
 381 385 381 385 419 413 c 128,-1,18
 457 441 457 441 457 500 c 256,19,20
 457 559 457 559 419 587 c 128,-1,21
 381 615 381 615 305 615 c 2,22,-1
 194 615 l 1,23,-1
 194 385 l 1,24,-1
 305 385 l 2,16,17
EndSplineSet
EndChar

StartChar: S
Encoding: 83 83 54
Width: 569
GlyphClass: 2
Flags: W
AnchorPoint: "Anchor-4" 284 697 basechar 0
AnchorPoint: "Anchor-2" 284 0 basechar 0
LayerCount: 2
Fore
SplineSet
123.5 43.5 m 128,-1,1
 54 98 54 98 40 188 c 1,2,-1
 128 210 l 1,3,4
 137 144 137 144 181.5 106.5 c 128,-1,5
 226 69 226 69 293 69 c 256,6,7
 360 69 360 69 396.5 100 c 128,-1,8
 433 131 433 131 433 181 c 0,9,10
 433 230 433 230 398.5 262 c 128,-1,11
 364 294 364 294 276 328 c 0,12,13
 203 356 203 356 161.5 384 c 128,-1,14
 120 412 120 412 101.5 446 c 128,-1,15
 83 480 83 480 83 528 c 0,16,17
 83 581 83 581 109 622.5 c 128,-1,18
 135 664 135 664 181.5 686.5 c 128,-1,19
 228 709 228 709 288 709 c 0,20,21
 355 709 355 709 407 679 c 128,-1,22
 459 649 459 649 491 591 c 1,23,-1
 416 545 l 1,24,25
 395 585 395 585 361 607 c 128,-1,26
 327 629 327 629 285 629 c 0,27,28
 237 629 237 629 204.5 600.5 c 128,-1,29
 172 572 172 572 172 531 c 0,30,31
 172 489 172 489 206 461 c 128,-1,32
 240 433 240 433 324 400 c 0,33,34
 401 371 401 371 444 341 c 128,-1,35
 487 311 487 311 505 275 c 128,-1,36
 523 239 523 239 523 189 c 0,37,38
 523 98 523 98 461 43.5 c 128,-1,39
 399 -11 399 -11 292 -11 c 0,40,0
 193 -11 193 -11 123.5 43.5 c 128,-1,1
EndSplineSet
EndChar

StartChar: T
Encoding: 84 84 55
Width: 608
GlyphClass: 2
Flags: W
AnchorPoint: "Anchor-5" 304 349 basechar 0
AnchorPoint: "Anchor-4" 304 697 basechar 0
AnchorPoint: "Anchor-2" 304 0 basechar 0
LayerCount: 2
Fore
SplineSet
259 615 m 1,0,-1
 25 615 l 1,1,-1
 25 697 l 1,2,-1
 583 697 l 1,3,-1
 583 615 l 1,4,-1
 349 615 l 1,5,-1
 349 0 l 1,6,-1
 259 0 l 1,7,-1
 259 615 l 1,0,-1
EndSplineSet
EndChar

StartChar: U
Encoding: 85 85 56
Width: 693
GlyphClass: 2
Flags: W
AnchorPoint: "Anchor-6" 667 493 basechar 0
AnchorPoint: "Anchor-4" 347 697 basechar 0
AnchorPoint: "Anchor-3" 422 0 basechar 0
AnchorPoint: "Anchor-2" 347 0 basechar 0
LayerCount: 2
Fore
SplineSet
156 55 m 128,-1,1
 91 122 91 122 91 252 c 2,2,-1
 91 697 l 1,3,-1
 180 697 l 1,4,-1
 180 261 l 2,5,6
 180 164 180 164 220 119.5 c 128,-1,7
 260 75 260 75 346 75 c 0,8,9
 433 75 433 75 473 120 c 128,-1,10
 513 165 513 165 513 263 c 2,11,-1
 513 697 l 1,12,-1
 602 697 l 1,13,-1
 602 257 l 2,14,15
 602 125 602 125 537 56.5 c 128,-1,16
 472 -12 472 -12 346 -12 c 0,17,0
 221 -12 221 -12 156 55 c 128,-1,1
EndSplineSet
EndChar

StartChar: V
Encoding: 86 86 57
Width: 674
GlyphClass: 2
Flags: W
AnchorPoint: "Anchor-4" 337 697 basechar 0
AnchorPoint: "Anchor-2" 337 0 basechar 0
LayerCount: 2
Fore
SplineSet
648 697 m 1,0,-1
 372 0 l 1,1,-1
 302 0 l 1,2,-1
 25 697 l 1,3,-1
 124 697 l 1,4,-1
 338 142 l 1,5,-1
 550 697 l 1,6,-1
 648 697 l 1,0,-1
EndSplineSet
EndChar

StartChar: W
Encoding: 87 87 58
Width: 987
GlyphClass: 2
Flags: W
AnchorPoint: "Anchor-4" 494 697 basechar 0
AnchorPoint: "Anchor-2" 494 0 basechar 0
LayerCount: 2
Fore
SplineSet
32 697 m 1,0,-1
 124 697 l 1,1,-1
 285 134 l 1,2,-1
 454 659 l 1,3,-1
 532 659 l 1,4,-1
 701 134 l 1,5,-1
 861 697 l 1,6,-1
 955 697 l 1,7,-1
 751 0 l 1,8,-1
 662 0 l 1,9,-1
 494 518 l 1,10,-1
 324 0 l 1,11,-1
 236 0 l 1,12,-1
 32 697 l 1,0,-1
EndSplineSet
EndChar

StartChar: X
Encoding: 88 88 59
Width: 661
GlyphClass: 2
Flags: W
AnchorPoint: "Anchor-4" 331 697 basechar 0
AnchorPoint: "Anchor-2" 331 0 basechar 0
LayerCount: 2
Fore
SplineSet
269 350 m 1,0,-1
 33 697 l 1,1,-1
 141 697 l 1,2,-1
 331 412 l 1,3,-1
 522 697 l 1,4,-1
 628 697 l 1,5,-1
 392 350 l 1,6,-1
 632 0 l 1,7,-1
 525 0 l 1,8,-1
 330 285 l 1,9,-1
 138 0 l 1,10,-1
 30 0 l 1,11,-1
 269 350 l 1,0,-1
EndSplineSet
EndChar

StartChar: Y
Encoding: 89 89 60
Width: 658
GlyphClass: 2
Flags: W
AnchorPoint: "Anchor-4" 329 697 basechar 0
AnchorPoint: "Anchor-2" 329 0 basechar 0
LayerCount: 2
Fore
SplineSet
285 269 m 1,0,-1
 19 697 l 1,1,-1
 124 697 l 1,2,-1
 328 355 l 1,3,-1
 533 697 l 1,4,-1
 639 697 l 1,5,-1
 374 269 l 1,6,-1
 374 0 l 1,7,-1
 285 0 l 1,8,-1
 285 269 l 1,0,-1
EndSplineSet
EndChar

StartChar: Z
Encoding: 90 90 61
Width: 640
GlyphClass: 2
Flags: W
AnchorPoint: "Anchor-5" 320 349 basechar 0
AnchorPoint: "Anchor-4" 320 697 basechar 0
AnchorPoint: "Anchor-2" 320 0 basechar 0
LayerCount: 2
Fore
SplineSet
594 629 m 1,0,-1
 160 82 l 1,1,-1
 592 82 l 1,2,-1
 592 0 l 1,3,-1
 40 0 l 1,4,-1
 40 65 l 1,5,-1
 477 615 l 1,6,-1
 63 615 l 1,7,-1
 63 697 l 1,8,-1
 594 697 l 1,9,-1
 594 629 l 1,0,-1
EndSplineSet
EndChar

StartChar: bracketleft
Encoding: 91 91 62
Width: 326
GlyphClass: 2
Flags: W
LayerCount: 2
Fore
SplineSet
101 764 m 1,0,-1
 296 764 l 1,1,-1
 296 706 l 1,2,-1
 171 706 l 1,3,-1
 171 -10 l 1,4,-1
 296 -10 l 1,5,-1
 296 -69 l 1,6,-1
 101 -69 l 1,7,-1
 101 764 l 1,0,-1
EndSplineSet
EndChar

StartChar: backslash
Encoding: 92 92 63
Width: 440
GlyphClass: 2
Flags: W
LayerCount: 2
Fore
SplineSet
273 0 m 1,0,-1
 0 697 l 1,1,-1
 81 697 l 1,2,-1
 357 0 l 5,3,-1
 273 0 l 1,0,-1
EndSplineSet
EndChar

StartChar: bracketright
Encoding: 93 93 64
Width: 326
GlyphClass: 2
Flags: W
LayerCount: 2
Fore
SplineSet
30 -10 m 1,0,-1
 155 -10 l 1,1,-1
 155 706 l 1,2,-1
 30 706 l 1,3,-1
 30 764 l 1,4,-1
 225 764 l 1,5,-1
 225 -69 l 1,6,-1
 30 -69 l 1,7,-1
 30 -10 l 1,0,-1
EndSplineSet
EndChar

StartChar: asciicircum
Encoding: 94 94 65
Width: 592
GlyphClass: 2
Flags: W
LayerCount: 2
Fore
SplineSet
295 728 m 1,0,-1
 543 218 l 1,1,-1
 452 218 l 1,2,-1
 295 564 l 1,3,-1
 141 218 l 1,4,-1
 49 218 l 1,5,-1
 295 728 l 1,0,-1
EndSplineSet
EndChar

StartChar: underscore
Encoding: 95 95 66
Width: 565
GlyphClass: 2
Flags: W
LayerCount: 2
Fore
SplineSet
80 0 m 1,0,-1
 485 0 l 1,1,-1
 485 -66 l 1,2,-1
 80 -66 l 1,3,-1
 80 0 l 1,0,-1
EndSplineSet
EndChar

StartChar: grave
Encoding: 96 96 67
Width: 254
GlyphClass: 2
Flags: W
LayerCount: 2
Fore
SplineSet
26 697 m 1,0,-1
 118 697 l 1,1,-1
 222 556 l 1,2,-1
 156 556 l 1,3,-1
 26 697 l 1,0,-1
EndSplineSet
EndChar

StartChar: a
Encoding: 97 97 68
Width: 533
GlyphClass: 2
Flags: W
AnchorPoint: "Anchor-4" 262 493 basechar 0
AnchorPoint: "Anchor-3" 463 0 basechar 0
AnchorPoint: "Anchor-2" 262 0 basechar 0
LayerCount: 2
Fore
SplineSet
410 450.5 m 128,-1,1
 463 399 463 399 463 308 c 2,2,-1
 463 0 l 1,3,-1
 384 0 l 1,4,-1
 378 74 l 1,5,6
 352 34 352 34 308.5 12.5 c 128,-1,7
 265 -9 265 -9 210 -9 c 0,8,9
 130 -9 130 -9 83.5 33 c 128,-1,10
 37 75 37 75 37 146 c 0,11,12
 37 185 37 185 53 214 c 128,-1,13
 69 243 69 243 99 260 c 0,14,15
 127 275 127 275 166.5 281.5 c 128,-1,16
 206 288 206 288 268 288 c 2,17,-1
 377 288 l 1,18,-1
 377 308 l 2,19,20
 377 365 377 365 346.5 395.5 c 128,-1,21
 316 426 316 426 260 426 c 0,22,23
 175 426 175 426 116 347 c 1,24,-1
 54 399 l 1,25,26
 95 451 95 451 146 476.5 c 128,-1,27
 197 502 197 502 262 502 c 0,28,0
 357 502 357 502 410 450.5 c 128,-1,1
336 105.5 m 128,-1,30
 377 148 377 148 377 216 c 2,31,-1
 377 221 l 1,32,-1
 278 221 l 2,33,34
 222 221 222 221 193 216 c 128,-1,35
 164 211 164 211 148 199 c 0,36,37
 123 179 123 179 123 142 c 0,38,39
 123 106 123 106 152 84.5 c 128,-1,40
 181 63 181 63 230 63 c 0,41,29
 295 63 295 63 336 105.5 c 128,-1,30
EndSplineSet
Substitution2: "Single Substitution lookup 23 subtable" ordfeminine
Substitution2: "'aalt' Access All Alternates lookup 0 subtable" ordfeminine
EndChar

StartChar: b
Encoding: 98 98 69
Width: 587
GlyphClass: 2
Flags: W
AnchorPoint: "Anchor-4" 127 697 basechar 0
AnchorPoint: "Anchor-2" 293 0 basechar 0
LayerCount: 2
Fore
SplineSet
440 471 m 128,-1,1
 489 440 489 440 515.5 382 c 128,-1,2
 542 324 542 324 542 247 c 0,3,4
 542 133 542 133 485.5 62 c 128,-1,5
 429 -9 429 -9 326 -9 c 0,6,7
 277 -9 277 -9 236.5 9 c 128,-1,8
 196 27 196 27 170 61 c 1,9,-1
 170 0 l 1,10,-1
 84 0 l 1,11,-1
 84 697 l 1,12,-1
 170 697 l 1,13,-1
 170 431 l 1,14,15
 196 465 196 465 236.5 483.5 c 128,-1,16
 277 502 277 502 326 502 c 0,17,0
 391 502 391 502 440 471 c 128,-1,1
418.5 117.5 m 128,-1,19
 456 166 456 166 456 247 c 0,20,21
 456 329 456 329 417.5 377 c 128,-1,22
 379 425 379 425 310 425 c 0,23,24
 240 425 240 425 201.5 376.5 c 128,-1,25
 163 328 163 328 163 247 c 0,26,27
 163 167 163 167 201 118 c 128,-1,28
 239 69 239 69 310 69 c 256,29,18
 381 69 381 69 418.5 117.5 c 128,-1,19
EndSplineSet
EndChar

StartChar: c
Encoding: 99 99 70
Width: 503
GlyphClass: 2
Flags: W
AnchorPoint: "Anchor-4" 252 493 basechar 0
AnchorPoint: "Anchor-2" 252 0 basechar 0
LayerCount: 2
Fore
SplineSet
147 25.5 m 128,-1,1
 95 60 95 60 68.5 118 c 128,-1,2
 42 176 42 176 42 245 c 0,3,4
 42 312 42 312 68 371 c 128,-1,5
 94 430 94 430 145.5 466 c 128,-1,6
 197 502 197 502 270 502 c 0,7,8
 340 502 340 502 392.5 467 c 128,-1,9
 445 432 445 432 474 363 c 1,10,-1
 392 330 l 1,11,12
 377 375 377 375 345 400.5 c 128,-1,13
 313 426 313 426 270 426 c 0,14,15
 201 426 201 426 165.5 373.5 c 128,-1,16
 130 321 130 321 130 245 c 256,17,18
 130 169 130 169 165.5 118 c 128,-1,19
 201 67 201 67 270 67 c 0,20,21
 314 67 314 67 345.5 92 c 128,-1,22
 377 117 377 117 390 161 c 1,23,-1
 469 131 l 1,24,25
 444 64 444 64 392 27.5 c 128,-1,26
 340 -9 340 -9 271 -9 c 0,27,0
 199 -9 199 -9 147 25.5 c 128,-1,1
EndSplineSet
EndChar

StartChar: d
Encoding: 100 100 71
Width: 587
GlyphClass: 2
Flags: W
AnchorPoint: "Anchor-6" 614 493 basechar 0
AnchorPoint: "Anchor-5" 418 608 basechar 0
AnchorPoint: "Anchor-4" 460 697 basechar 0
AnchorPoint: "Anchor-2" 291 0 basechar 0
LayerCount: 2
Fore
SplineSet
503 697 m 1,0,-1
 503 0 l 1,1,-1
 417 0 l 1,2,-1
 417 61 l 1,3,4
 391 27 391 27 350.5 9 c 128,-1,5
 310 -9 310 -9 261 -9 c 0,6,7
 158 -9 158 -9 101.5 62 c 128,-1,8
 45 133 45 133 45 247 c 0,9,10
 45 324 45 324 71.5 382 c 128,-1,11
 98 440 98 440 147 471 c 128,-1,12
 196 502 196 502 261 502 c 0,13,14
 310 502 310 502 350.5 483.5 c 128,-1,15
 391 465 391 465 417 431 c 1,16,-1
 417 697 l 1,17,-1
 503 697 l 1,0,-1
386 118 m 128,-1,19
 424 167 424 167 424 247 c 0,20,21
 424 328 424 328 385.5 376.5 c 128,-1,22
 347 425 347 425 277 425 c 0,23,24
 208 425 208 425 169.5 377 c 128,-1,25
 131 329 131 329 131 247 c 0,26,27
 131 166 131 166 168.5 117.5 c 128,-1,28
 206 69 206 69 277 69 c 256,29,18
 348 69 348 69 386 118 c 128,-1,19
EndSplineSet
EndChar

StartChar: e
Encoding: 101 101 72
Width: 528
GlyphClass: 2
Flags: W
AnchorPoint: "Anchor-4" 269 493 basechar 0
AnchorPoint: "Anchor-3" 374 9 basechar 0
AnchorPoint: "Anchor-2" 276 0 basechar 0
LayerCount: 2
Fore
SplineSet
483 221 m 1,1,-1
 130 221 l 1,2,3
 132 150 132 150 170.5 110 c 128,-1,4
 209 70 209 70 277 70 c 0,5,6
 317 70 317 70 349 83.5 c 128,-1,7
 381 97 381 97 411 129 c 1,8,-1
 470 76 l 1,9,10
 428 31 428 31 381.5 11 c 128,-1,11
 335 -9 335 -9 276 -9 c 0,12,13
 200 -9 200 -9 148 25 c 128,-1,14
 96 59 96 59 70 116 c 128,-1,15
 44 173 44 173 44 244 c 0,16,17
 44 314 44 314 69.5 373 c 128,-1,18
 95 432 95 432 145.5 467 c 128,-1,19
 196 502 196 502 268 502 c 256,20,21
 340 502 340 502 389 469 c 128,-1,22
 438 436 438 436 462 382 c 128,-1,23
 486 328 486 328 486 265 c 0,24,0
 486 241 486 241 483 221 c 1,1,-1
404 291 m 2,25,26
 403 293 403 293 403 300 c 0,27,28
 401 358 401 358 364.5 394 c 128,-1,29
 328 430 328 430 267 430 c 0,30,31
 207 430 207 430 171 390 c 128,-1,32
 135 350 135 350 130 291 c 1,33,-1
 404 291 l 2,25,26
EndSplineSet
EndChar

StartChar: f
Encoding: 102 102 73
Width: 343
GlyphClass: 2
Flags: W
AnchorPoint: "Anchor-4" 169 697 basechar 0
AnchorPoint: "Anchor-2" 157 0 basechar 0
LayerCount: 2
Fore
SplineSet
114 423 m 1,0,-1
 13 423 l 1,1,-1
 13 493 l 1,2,-1
 115 493 l 1,3,-1
 115 562 l 2,4,5
 115 640 115 640 152 673 c 128,-1,6
 189 706 189 706 247 706 c 0,7,8
 291 706 291 706 337 686 c 1,9,-1
 308 619 l 1,10,11
 278 634 278 634 256 634 c 0,12,13
 228 634 228 634 214 615 c 128,-1,14
 200 596 200 596 200 566 c 2,15,-1
 200 493 l 1,16,-1
 333 493 l 1,17,-1
 333 423 l 1,18,-1
 200 423 l 1,19,-1
 200 0 l 1,20,-1
 114 0 l 1,21,-1
 114 423 l 1,0,-1
EndSplineSet
EndChar

StartChar: g
Encoding: 103 103 74
Width: 519
GlyphClass: 2
Flags: W
AnchorPoint: "Anchor-4" 259 493 basechar 0
AnchorPoint: "Anchor-2" 259 -254 basechar 0
LayerCount: 2
Fore
SplineSet
374 44.5 m 128,-1,1
 416 34 416 34 447.5 6 c 128,-1,2
 479 -22 479 -22 479 -73 c 0,3,4
 479 -143 479 -143 420.5 -178 c 128,-1,5
 362 -213 362 -213 263 -213 c 0,6,7
 157 -213 157 -213 98 -173 c 128,-1,8
 39 -133 39 -133 39 -59 c 0,9,10
 39 -49 39 -49 41 -37 c 1,11,-1
 119 22 l 1,12,13
 56 53 56 53 56 119 c 0,14,15
 56 178 56 178 107 215 c 1,16,17
 65 262 65 262 65 327 c 0,18,19
 65 377 65 377 90.5 417 c 128,-1,20
 116 457 116 457 160.5 479.5 c 128,-1,21
 205 502 205 502 258 502 c 0,22,23
 326 502 326 502 379 465 c 1,24,-1
 449 525 l 1,25,-1
 494 470 l 1,26,-1
 426 414 l 1,27,28
 451 373 451 373 451 323 c 0,29,30
 451 272 451 272 425.5 233 c 128,-1,31
 400 194 400 194 356.5 172.5 c 128,-1,32
 313 151 313 151 260 151 c 0,33,34
 204 151 204 151 161 174 c 1,35,36
 134 159 134 159 134 132 c 0,37,38
 134 101 134 101 165.5 87.5 c 128,-1,39
 197 74 197 74 260 65 c 0,40,0
 332 55 332 55 374 44.5 c 128,-1,1
181.5 400.5 m 128,-1,42
 151 371 151 371 151 325 c 0,43,44
 151 280 151 280 180 250.5 c 128,-1,45
 209 221 209 221 259 221 c 0,46,47
 308 221 308 221 336.5 250.5 c 128,-1,48
 365 280 365 280 365 325 c 0,49,50
 365 372 365 372 336 401 c 128,-1,51
 307 430 307 430 259 430 c 0,52,41
 212 430 212 430 181.5 400.5 c 128,-1,42
359 -128 m 128,-1,54
 393 -112 393 -112 393 -81 c 0,55,56
 393 -56 393 -56 373 -42.5 c 128,-1,57
 353 -29 353 -29 327 -23.5 c 128,-1,58
 301 -18 301 -18 242 -9 c 0,59,60
 200 -2 200 -2 184 1 c 1,61,-1
 125 -56 l 1,62,-1
 124 -64 l 1,63,64
 124 -107 124 -107 164 -125.5 c 128,-1,65
 204 -144 204 -144 267 -144 c 0,66,53
 325 -144 325 -144 359 -128 c 128,-1,54
EndSplineSet
Substitution2: "'ss02' Style Set 2 lookup 21 subtable" g.ss02
Substitution2: "'ss01' Style Set 1 lookup 20 subtable" g.ss01
Substitution2: "'salt' Stylistic Alternatives lookup 19 subtable" g.ss01
AlternateSubs2: "'aalt' Access All Alternates lookup 1 subtable" g.ss01 g.ss02
EndChar

StartChar: h
Encoding: 104 104 75
Width: 566
GlyphClass: 2
Flags: W
AnchorPoint: "Anchor-5" 184 608 basechar 0
AnchorPoint: "Anchor-4" 128 697 basechar 0
AnchorPoint: "Anchor-2" 292 0 basechar 0
LayerCount: 2
Fore
SplineSet
451.5 452 m 128,-1,1
 494 402 494 402 494 307 c 2,2,-1
 494 0 l 1,3,-1
 408 0 l 1,4,-1
 408 286 l 2,5,6
 408 358 408 358 383 392 c 128,-1,7
 358 426 358 426 306 426 c 0,8,9
 239 426 239 426 204.5 373 c 128,-1,10
 170 320 170 320 170 217 c 2,11,-1
 170 0 l 1,12,-1
 84 0 l 1,13,-1
 84 697 l 1,14,-1
 170 697 l 1,15,-1
 170 426 l 1,16,17
 195 462 195 462 236.5 482 c 128,-1,18
 278 502 278 502 329 502 c 0,19,0
 409 502 409 502 451.5 452 c 128,-1,1
EndSplineSet
EndChar

StartChar: k
Encoding: 107 107 78
Width: 546
GlyphClass: 2
Flags: W
AnchorPoint: "Anchor-4" 226 704 basechar 0
AnchorPoint: "Anchor-2" 302 0 basechar 0
LayerCount: 2
Fore
SplineSet
84 697 m 1,0,-1
 170 697 l 1,1,-1
 170 252 l 1,2,-1
 395 493 l 1,3,-1
 510 493 l 1,4,-1
 330 306 l 1,5,-1
 536 0 l 1,6,-1
 434 0 l 1,7,-1
 271 253 l 1,8,-1
 170 145 l 1,9,-1
 170 0 l 1,10,-1
 84 0 l 1,11,-1
 84 697 l 1,0,-1
EndSplineSet
EndChar

StartChar: l
Encoding: 108 108 79
Width: 273
GlyphClass: 2
Flags: W
AnchorPoint: "Anchor-6" 284 493 basechar 0
AnchorPoint: "Anchor-5" 132 372 basechar 0
AnchorPoint: "Anchor-4" 122 697 basechar 0
AnchorPoint: "Anchor-2" 164 0 basechar 0
LayerCount: 2
Fore
SplineSet
107 21.5 m 128,-1,1
 80 52 80 52 80 111 c 2,2,-1
 80 697 l 1,3,-1
 166 697 l 1,4,-1
 166 116 l 2,5,6
 166 68 166 68 207 68 c 0,7,8
 223 68 223 68 251 76 c 1,9,-1
 252 5 l 1,10,11
 212 -9 212 -9 181 -9 c 0,12,0
 134 -9 134 -9 107 21.5 c 128,-1,1
EndSplineSet
EndChar

StartChar: m
Encoding: 109 109 80
Width: 848
GlyphClass: 2
Flags: W
AnchorPoint: "Anchor-4" 423 493 basechar 0
AnchorPoint: "Anchor-2" 423 0 basechar 0
LayerCount: 2
Fore
SplineSet
734 449.5 m 128,-1,1
 776 397 776 397 776 310 c 2,2,-1
 776 0 l 1,3,-1
 690 0 l 1,4,-1
 690 285 l 2,5,6
 690 340 690 340 671.5 383 c 128,-1,7
 653 426 653 426 590 426 c 0,8,9
 521 426 521 426 497 371.5 c 128,-1,10
 473 317 473 317 473 221 c 2,11,-1
 473 0 l 1,12,-1
 387 0 l 1,13,-1
 387 283 l 2,14,15
 387 344 387 344 364.5 385 c 128,-1,16
 342 426 342 426 285 426 c 0,17,18
 218 426 218 426 194 371 c 128,-1,19
 170 316 170 316 170 221 c 2,20,-1
 170 0 l 1,21,-1
 84 0 l 1,22,-1
 83 493 l 1,23,-1
 167 493 l 1,24,-1
 167 432 l 1,25,26
 210 502 210 502 301 502 c 0,27,28
 408 502 408 502 446 406 c 1,29,30
 495 502 495 502 607 502 c 0,31,0
 692 502 692 502 734 449.5 c 128,-1,1
EndSplineSet
EndChar

StartChar: n
Encoding: 110 110 81
Width: 566
GlyphClass: 2
Flags: W
AnchorPoint: "Anchor-4" 287 493 basechar 0
AnchorPoint: "Anchor-2" 287 0 basechar 0
LayerCount: 2
Fore
SplineSet
451.5 452 m 128,-1,1
 494 402 494 402 494 307 c 2,2,-1
 494 0 l 1,3,-1
 408 0 l 1,4,-1
 408 286 l 2,5,6
 408 353 408 353 385 389.5 c 128,-1,7
 362 426 362 426 305 426 c 0,8,9
 235 426 235 426 202.5 368.5 c 128,-1,10
 170 311 170 311 170 213 c 2,11,-1
 170 0 l 1,12,-1
 84 0 l 1,13,-1
 84 493 l 1,14,-1
 170 493 l 1,15,-1
 170 426 l 1,16,17
 195 462 195 462 236.5 482 c 128,-1,18
 278 502 278 502 328 502 c 0,19,0
 409 502 409 502 451.5 452 c 128,-1,1
EndSplineSet
EndChar

StartChar: o
Encoding: 111 111 82
Width: 561
GlyphClass: 2
Flags: W
AnchorPoint: "Anchor-6" 529 355 basechar 0
AnchorPoint: "Anchor-5" 280 247 basechar 0
AnchorPoint: "Anchor-4" 280 493 basechar 0
AnchorPoint: "Anchor-3" 345 0 basechar 0
AnchorPoint: "Anchor-2" 280 0 basechar 0
LayerCount: 2
Fore
SplineSet
154.5 24.5 m 128,-1,1
 100 58 100 58 70.5 116.5 c 128,-1,2
 41 175 41 175 41 247 c 256,3,4
 41 319 41 319 70.5 377 c 128,-1,5
 100 435 100 435 154.5 468.5 c 128,-1,6
 209 502 209 502 280 502 c 256,7,8
 351 502 351 502 405.5 468.5 c 128,-1,9
 460 435 460 435 490.5 377 c 128,-1,10
 521 319 521 319 521 247 c 0,11,12
 521 176 521 176 491 117.5 c 128,-1,13
 461 59 461 59 406 25 c 128,-1,14
 351 -9 351 -9 280 -9 c 256,15,0
 209 -9 209 -9 154.5 24.5 c 128,-1,1
394 118 m 128,-1,17
 435 169 435 169 435 247 c 0,18,19
 435 326 435 326 394.5 376 c 128,-1,20
 354 426 354 426 280 426 c 0,21,22
 207 426 207 426 167 376 c 128,-1,23
 127 326 127 326 127 247 c 256,24,25
 127 168 127 168 167 117.5 c 128,-1,26
 207 67 207 67 280 67 c 256,27,16
 353 67 353 67 394 118 c 128,-1,17
EndSplineSet
Substitution2: "Single Substitution lookup 23 subtable" ordmasculine
Substitution2: "'aalt' Access All Alternates lookup 0 subtable" ordmasculine
EndChar

StartChar: p
Encoding: 112 112 83
Width: 587
GlyphClass: 2
Flags: W
AnchorPoint: "Anchor-4" 294 493 basechar 0
AnchorPoint: "Anchor-2" 294 0 basechar 0
LayerCount: 2
Fore
SplineSet
484.5 432.5 m 128,-1,1
 542 363 542 363 542 247 c 256,2,3
 542 131 542 131 484.5 61 c 128,-1,4
 427 -9 427 -9 326 -9 c 0,5,6
 277 -9 277 -9 236 10 c 128,-1,7
 195 29 195 29 170 62 c 1,8,-1
 170 -204 l 1,9,-1
 84 -204 l 1,10,-1
 84 493 l 1,11,-1
 170 493 l 1,12,-1
 170 432 l 1,13,14
 197 467 197 467 237 484.5 c 128,-1,15
 277 502 277 502 326 502 c 0,16,0
 427 502 427 502 484.5 432.5 c 128,-1,1
418 116 m 128,-1,18
 456 165 456 165 456 247 c 0,19,20
 456 330 456 330 417.5 378.5 c 128,-1,21
 379 427 379 427 310 427 c 0,22,23
 240 427 240 427 201.5 378 c 128,-1,24
 163 329 163 329 163 247 c 0,25,26
 163 167 163 167 201 117 c 128,-1,27
 239 67 239 67 310 67 c 0,28,17
 380 67 380 67 418 116 c 128,-1,18
EndSplineSet
EndChar

StartChar: q
Encoding: 113 113 84
Width: 587
GlyphClass: 2
Flags: W
AnchorPoint: "Anchor-4" 293 493 basechar 0
AnchorPoint: "Anchor-2" 293 0 basechar 0
LayerCount: 2
Fore
SplineSet
503 493 m 1,0,-1
 503 -204 l 1,1,-1
 417 -204 l 1,2,-1
 417 62 l 1,3,4
 392 29 392 29 351 10 c 128,-1,5
 310 -9 310 -9 261 -9 c 0,6,7
 160 -9 160 -9 102.5 61 c 128,-1,8
 45 131 45 131 45 247 c 256,9,10
 45 363 45 363 102.5 432.5 c 128,-1,11
 160 502 160 502 261 502 c 0,12,13
 310 502 310 502 350 484.5 c 128,-1,14
 390 467 390 467 417 432 c 1,15,-1
 417 493 l 1,16,-1
 503 493 l 1,0,-1
386 117 m 128,-1,18
 424 167 424 167 424 247 c 0,19,20
 424 329 424 329 385.5 378 c 128,-1,21
 347 427 347 427 277 427 c 0,22,23
 208 427 208 427 169.5 378.5 c 128,-1,24
 131 330 131 330 131 247 c 0,25,26
 131 165 131 165 169 116 c 128,-1,27
 207 67 207 67 277 67 c 0,28,17
 348 67 348 67 386 117 c 128,-1,18
EndSplineSet
EndChar

StartChar: r
Encoding: 114 114 85
Width: 403
GlyphClass: 2
Flags: W
AnchorPoint: "Anchor-4" 202 493 basechar 0
AnchorPoint: "Anchor-2" 202 0 basechar 0
LayerCount: 2
Fore
SplineSet
400 478 m 1,1,-1
 358 406 l 1,2,3
 327 421 327 421 294 421 c 0,4,5
 237 421 237 421 203.5 381 c 128,-1,6
 170 341 170 341 170 266 c 2,7,-1
 170 0 l 1,8,-1
 84 0 l 1,9,-1
 84 493 l 1,10,-1
 170 493 l 1,11,-1
 170 416 l 1,12,13
 192 460 192 460 230.5 481 c 128,-1,14
 269 502 269 502 312 502 c 0,15,0
 359 502 359 502 400 478 c 1,1,-1
EndSplineSet
EndChar

StartChar: s
Encoding: 115 115 86
Width: 460
GlyphClass: 2
Flags: W
AnchorPoint: "Anchor-4" 233 493 basechar 0
AnchorPoint: "Anchor-2" 233 0 basechar 0
LayerCount: 2
Fore
SplineSet
106.5 27.5 m 128,-1,1
 51 64 51 64 31 123 c 1,2,-1
 102 155 l 1,3,4
 115 116 115 116 148 90.5 c 128,-1,5
 181 65 181 65 232 65 c 0,6,7
 279 65 279 65 305.5 86.5 c 128,-1,8
 332 108 332 108 332 141 c 0,9,10
 332 165 332 165 317 180 c 128,-1,11
 302 195 302 195 279.5 203 c 128,-1,12
 257 211 257 211 217 222 c 0,13,14
 166 235 166 235 134.5 248 c 128,-1,15
 103 261 103 261 80.5 288 c 128,-1,16
 58 315 58 315 58 361 c 0,17,18
 58 426 58 426 107 464 c 128,-1,19
 156 502 156 502 231 502 c 0,20,21
 292 502 292 502 339 475 c 128,-1,22
 386 448 386 448 412 397 c 1,23,-1
 344 360 l 1,24,25
 306 429 306 429 229 429 c 0,26,27
 189 429 189 429 165 413 c 128,-1,28
 141 397 141 397 141 370 c 0,29,30
 141 340 141 340 167.5 325.5 c 128,-1,31
 194 311 194 311 249 297 c 0,32,33
 302 282 302 282 335.5 268 c 128,-1,34
 369 254 369 254 393 224.5 c 128,-1,35
 417 195 417 195 417 146 c 0,36,37
 417 71 417 71 364 31 c 128,-1,38
 311 -9 311 -9 235 -9 c 0,39,0
 162 -9 162 -9 106.5 27.5 c 128,-1,1
EndSplineSet
EndChar

StartChar: t
Encoding: 116 116 87
Width: 346
GlyphClass: 2
Flags: W
AnchorPoint: "Anchor-6" 324 580 basechar 0
AnchorPoint: "Anchor-5" 162 247 basechar 0
AnchorPoint: "Anchor-4" 174 493 basechar 0
AnchorPoint: "Anchor-2" 205 0 basechar 0
LayerCount: 2
Fore
SplineSet
187 423 m 1,0,-1
 187 132 l 2,1,2
 187 67 187 67 249 67 c 0,3,4
 273 67 273 67 308 78 c 1,5,-1
 308 5 l 1,6,7
 266 -9 266 -9 228 -9 c 0,8,9
 171 -9 171 -9 136 24 c 128,-1,10
 101 57 101 57 101 123 c 2,11,-1
 101 423 l 1,12,-1
 20 423 l 1,13,-1
 20 493 l 1,14,-1
 101 493 l 1,15,-1
 101 623 l 1,16,-1
 187 688 l 1,17,-1
 187 493 l 1,18,-1
 308 493 l 1,19,-1
 308 423 l 1,20,-1
 187 423 l 1,0,-1
EndSplineSet
EndChar

StartChar: u
Encoding: 117 117 88
Width: 566
GlyphClass: 2
Flags: W
AnchorPoint: "Anchor-6" 496 432 basechar 0
AnchorPoint: "Anchor-4" 276 493 basechar 0
AnchorPoint: "Anchor-3" 482 0 basechar 0
AnchorPoint: "Anchor-2" 282 0 basechar 0
LayerCount: 2
Fore
SplineSet
482 493 m 1,0,-1
 482 0 l 1,1,-1
 396 0 l 1,2,-1
 396 67 l 1,3,4
 371 29 371 29 329 10 c 128,-1,5
 287 -9 287 -9 238 -9 c 0,6,7
 154 -9 154 -9 113 44.5 c 128,-1,8
 72 98 72 98 72 189 c 2,9,-1
 72 493 l 1,10,-1
 158 493 l 1,11,-1
 158 210 l 2,12,13
 158 147 158 147 178 107 c 128,-1,14
 198 67 198 67 260 67 c 0,15,16
 332 67 332 67 364 125.5 c 128,-1,17
 396 184 396 184 396 279 c 2,18,-1
 396 493 l 1,19,-1
 482 493 l 1,0,-1
EndSplineSet
EndChar

StartChar: v
Encoding: 118 118 89
Width: 498
GlyphClass: 2
Flags: W
AnchorPoint: "Anchor-4" 249 493 basechar 0
AnchorPoint: "Anchor-2" 249 0 basechar 0
LayerCount: 2
Fore
SplineSet
12 493 m 1,0,-1
 105 493 l 1,1,-1
 248 111 l 1,2,-1
 393 493 l 1,3,-1
 487 493 l 1,4,-1
 285 0 l 1,5,-1
 213 0 l 1,6,-1
 12 493 l 1,0,-1
EndSplineSet
EndChar

StartChar: w
Encoding: 119 119 90
Width: 733
GlyphClass: 2
Flags: W
AnchorPoint: "Anchor-4" 366 493 basechar 0
AnchorPoint: "Anchor-2" 366 0 basechar 0
LayerCount: 2
Fore
SplineSet
20 493 m 1,0,-1
 112 493 l 1,1,-1
 211 131 l 1,2,-1
 328 493 l 1,3,-1
 405 493 l 1,4,-1
 522 131 l 1,5,-1
 621 493 l 1,6,-1
 713 493 l 1,7,-1
 566 0 l 1,8,-1
 487 0 l 1,9,-1
 367 373 l 1,10,-1
 246 0 l 1,11,-1
 167 0 l 1,12,-1
 20 493 l 1,0,-1
EndSplineSet
EndChar

StartChar: x
Encoding: 120 120 91
Width: 503
GlyphClass: 2
Flags: W
AnchorPoint: "Anchor-4" 252 493 basechar 0
AnchorPoint: "Anchor-2" 252 0 basechar 0
LayerCount: 2
Fore
SplineSet
195 247 m 1,0,-1
 18 493 l 1,1,-1
 123 493 l 1,2,-1
 252 307 l 1,3,-1
 380 493 l 1,4,-1
 485 493 l 1,5,-1
 308 247 l 1,6,-1
 486 0 l 1,7,-1
 380 0 l 1,8,-1
 252 189 l 1,9,-1
 124 0 l 1,10,-1
 18 0 l 1,11,-1
 195 247 l 1,0,-1
EndSplineSet
EndChar

StartChar: y
Encoding: 121 121 92
Width: 508
GlyphClass: 2
Flags: W
AnchorPoint: "Anchor-4" 254 493 basechar 0
AnchorPoint: "Anchor-2" 409 -31 basechar 0
LayerCount: 2
Fore
SplineSet
214 8 m 1,0,-1
 10 493 l 1,1,-1
 105 493 l 1,2,-1
 260 108 l 1,3,-1
 401 493 l 1,4,-1
 496 493 l 1,5,-1
 223 -204 l 1,6,-1
 130 -204 l 1,7,-1
 214 8 l 1,0,-1
EndSplineSet
EndChar

StartChar: z
Encoding: 122 122 93
Width: 477
GlyphClass: 2
Flags: W
AnchorPoint: "Anchor-5" 239 247 basechar 0
AnchorPoint: "Anchor-4" 239 493 basechar 0
AnchorPoint: "Anchor-2" 239 0 basechar 0
LayerCount: 2
Fore
SplineSet
439 428 m 1,0,-1
 145 73 l 1,1,-1
 438 73 l 1,2,-1
 438 0 l 1,3,-1
 32 0 l 1,4,-1
 32 60 l 1,5,-1
 333 420 l 1,6,-1
 48 420 l 1,7,-1
 48 493 l 1,8,-1
 439 493 l 1,9,-1
 439 428 l 1,0,-1
EndSplineSet
EndChar

StartChar: braceleft
Encoding: 123 123 94
Width: 308
GlyphClass: 2
Flags: W
LayerCount: 2
Fore
SplineSet
131 -37 m 128,-1,1
 104 -2 104 -2 104 58 c 2,2,-1
 104 223 l 2,3,4
 104 255 104 255 88.5 271 c 128,-1,5
 73 287 73 287 43 298 c 1,6,-1
 43 358 l 1,7,8
 73 368 73 368 88.5 384.5 c 128,-1,9
 104 401 104 401 104 438 c 2,10,-1
 104 611 l 2,11,12
 104 673 104 673 131.5 706.5 c 128,-1,13
 159 740 159 740 212 740 c 2,14,-1
 274 740 l 1,15,-1
 274 683 l 1,16,-1
 241 683 l 2,17,18
 178 683 178 683 178 610 c 2,19,-1
 178 437 l 2,20,21
 178 396 178 396 162.5 370 c 128,-1,22
 147 344 147 344 112 330 c 1,23,-1
 112 325 l 1,24,25
 145 311 145 311 161.5 287 c 128,-1,26
 178 263 178 263 178 225 c 2,27,-1
 178 60 l 2,28,29
 178 26 178 26 192.5 6 c 128,-1,30
 207 -14 207 -14 237 -14 c 2,31,-1
 274 -14 l 1,32,-1
 274 -72 l 1,33,-1
 209 -72 l 2,34,0
 158 -72 158 -72 131 -37 c 128,-1,1
EndSplineSet
EndChar

StartChar: bar
Encoding: 124 124 95
Width: 318
GlyphClass: 2
Flags: W
LayerCount: 2
Fore
SplineSet
127 746 m 1,0,-1
 191 746 l 1,1,-1
 191 -254 l 1,2,-1
 127 -254 l 1,3,-1
 127 746 l 1,0,-1
EndSplineSet
EndChar

StartChar: braceright
Encoding: 125 125 96
Width: 308
GlyphClass: 2
Flags: W
LayerCount: 2
Fore
SplineSet
33 -14 m 1,0,-1
 70 -14 l 2,1,2
 100 -14 100 -14 115 6 c 128,-1,3
 130 26 130 26 130 60 c 2,4,-1
 130 225 l 2,5,6
 130 264 130 264 146.5 287.5 c 128,-1,7
 163 311 163 311 195 325 c 1,8,-1
 195 330 l 1,9,10
 162 343 162 343 146 368.5 c 128,-1,11
 130 394 130 394 130 437 c 2,12,-1
 130 610 l 2,13,14
 130 644 130 644 116 663.5 c 128,-1,15
 102 683 102 683 67 683 c 2,16,-1
 33 683 l 1,17,-1
 33 740 l 1,18,-1
 95 740 l 2,19,20
 148 740 148 740 175.5 707 c 128,-1,21
 203 674 203 674 203 611 c 2,22,-1
 203 438 l 2,23,24
 203 401 203 401 219 384 c 128,-1,25
 235 367 235 367 265 358 c 1,26,-1
 265 298 l 1,27,28
 235 287 235 287 219 272 c 128,-1,29
 203 257 203 257 203 223 c 2,30,-1
 203 58 l 2,31,32
 203 -2 203 -2 176.5 -37 c 128,-1,33
 150 -72 150 -72 99 -72 c 2,34,-1
 33 -72 l 1,35,-1
 33 -14 l 1,0,-1
EndSplineSet
EndChar

StartChar: asciitilde
Encoding: 126 126 97
Width: 620
GlyphClass: 2
Flags: W
LayerCount: 2
Fore
SplineSet
333.5 195 m 128,-1,1
 311 213 311 213 289 246 c 0,2,3
 270 272 270 272 256.5 284 c 128,-1,4
 243 296 243 296 221 296 c 0,5,6
 195 296 195 296 179.5 270.5 c 128,-1,7
 164 245 164 245 164 201 c 1,8,-1
 99 201 l 1,9,10
 99 271 99 271 132.5 313 c 128,-1,11
 166 355 166 355 221 355 c 0,12,13
 263 355 263 355 286.5 336.5 c 128,-1,14
 310 318 310 318 334 284 c 0,15,16
 352 258 352 258 364.5 246.5 c 128,-1,17
 377 235 377 235 397 235 c 0,18,19
 423 235 423 235 439.5 264 c 128,-1,20
 456 293 456 293 456 340 c 1,21,-1
 522 340 l 1,22,23
 522 267 522 267 488 222 c 128,-1,24
 454 177 454 177 397 177 c 0,25,0
 356 177 356 177 333.5 195 c 128,-1,1
EndSplineSet
EndChar

StartChar: exclamdown
Encoding: 161 161 99
Width: 318
GlyphClass: 2
Flags: W
LayerCount: 2
Fore
SplineSet
210 376 m 1,0,-1
 107 376 l 1,1,-1
 107 493 l 1,2,-1
 210 493 l 1,3,-1
 210 376 l 1,0,-1
201 -204 m 1,4,-1
 116 -204 l 1,5,-1
 126 291 l 1,6,-1
 191 291 l 1,7,-1
 201 -204 l 1,4,-1
EndSplineSet
EndChar

StartChar: cent
Encoding: 162 162 100
Width: 575
GlyphClass: 2
Flags: W
AnchorPoint: "Anchor-1" 286 493 basechar 0
AnchorPoint: "Anchor-0" 286 0 basechar 0
LayerCount: 2
Fore
SplineSet
379.5 92 m 128,-1,1
 411 117 411 117 424 161 c 1,2,-1
 503 131 l 1,3,4
 481 72 481 72 438.5 36.5 c 128,-1,5
 396 1 396 1 338 -7 c 1,6,-1
 338 -112 l 1,7,-1
 259 -113 l 1,8,-1
 259 -5 l 1,9,10
 173 11 173 11 124.5 81 c 128,-1,11
 76 151 76 151 76 245 c 0,12,13
 76 305 76 305 96.5 359 c 128,-1,14
 117 413 117 413 158.5 450 c 128,-1,15
 200 487 200 487 259 498 c 1,16,-1
 259 601 l 1,17,-1
 338 601 l 1,18,-1
 338 500 l 1,19,20
 395 492 395 492 439 457.5 c 128,-1,21
 483 423 483 423 508 363 c 1,22,-1
 426 330 l 1,23,24
 411 375 411 375 379 400.5 c 128,-1,25
 347 426 347 426 304 426 c 0,26,27
 235 426 235 426 199.5 373.5 c 128,-1,28
 164 321 164 321 164 245 c 256,29,30
 164 169 164 169 199.5 118 c 128,-1,31
 235 67 235 67 304 67 c 0,32,0
 348 67 348 67 379.5 92 c 128,-1,1
EndSplineSet
EndChar

StartChar: sterling
Encoding: 163 163 101
Width: 622
GlyphClass: 2
Flags: W
LayerCount: 2
Fore
SplineSet
258 132 m 128,-1,1
 234 95 234 95 197 73 c 1,2,-1
 548 73 l 1,3,-1
 548 0 l 1,4,-1
 81 0 l 1,5,-1
 81 79 l 1,6,7
 136 97 136 97 173.5 136.5 c 128,-1,8
 211 176 211 176 211 222 c 0,9,10
 211 242 211 242 205 262 c 128,-1,11
 199 282 199 282 186 321 c 1,12,-1
 84 321 l 1,13,-1
 84 393 l 1,14,-1
 168 393 l 1,15,16
 160 413 160 413 154.5 444.5 c 128,-1,17
 149 476 149 476 149 504 c 0,18,19
 149 562 149 562 174 608.5 c 128,-1,20
 199 655 199 655 244.5 681.5 c 128,-1,21
 290 708 290 708 351 708 c 0,22,23
 426 708 426 708 479 668 c 128,-1,24
 532 628 532 628 551 559 c 1,25,-1
 483 534 l 1,26,27
 470 586 470 586 435.5 610.5 c 128,-1,28
 401 635 401 635 353 635 c 0,29,30
 293 635 293 635 257.5 600 c 128,-1,31
 222 565 222 565 222 502 c 0,32,33
 222 475 222 475 228 445 c 128,-1,34
 234 415 234 415 243 393 c 1,35,-1
 449 393 l 1,36,-1
 449 321 l 1,37,-1
 260 321 l 1,38,39
 262 316 262 316 268.5 295.5 c 128,-1,40
 275 275 275 275 278.5 256.5 c 128,-1,41
 282 238 282 238 282 221 c 0,42,0
 282 169 282 169 258 132 c 128,-1,1
EndSplineSet
EndChar

StartChar: currency
Encoding: 164 164 102
Width: 691
GlyphClass: 2
Flags: W
LayerCount: 2
Fore
SplineSet
112 125 m 1,0,-1
 162 176 l 1,1,2
 116 235 116 235 116 312 c 256,3,4
 116 389 116 389 162 448 c 1,5,-1
 113 498 l 1,6,-1
 159 546 l 1,7,-1
 209 495 l 1,8,9
 239 518 239 518 274.5 530 c 128,-1,10
 310 542 310 542 346 542 c 0,11,12
 421 542 421 542 482 495 c 1,13,-1
 532 545 l 1,14,-1
 579 499 l 1,15,-1
 528 449 l 1,16,17
 575 388 575 388 575 312 c 0,18,19
 575 275 575 275 563 240 c 128,-1,20
 551 205 551 205 528 176 c 1,21,-1
 579 125 l 1,22,-1
 533 78 l 1,23,-1
 482 129 l 1,24,25
 423 83 423 83 345 83 c 0,26,27
 308 83 308 83 273 94.5 c 128,-1,28
 238 106 238 106 209 129 c 1,29,-1
 158 78 l 1,30,-1
 112 125 l 1,0,-1
282 160.5 m 128,-1,32
 312 148 312 148 344 148 c 256,33,34
 376 148 376 148 406 160.5 c 128,-1,35
 436 173 436 173 460 197 c 0,36,37
 509 246 509 246 509 313 c 0,38,39
 509 344 509 344 497 373.5 c 128,-1,40
 485 403 485 403 461 427 c 256,41,42
 437 451 437 451 407 463 c 128,-1,43
 377 475 377 475 345 475 c 256,44,45
 313 475 313 475 283 463 c 128,-1,46
 253 451 253 451 229 427 c 0,47,48
 206 403 206 403 194 373 c 128,-1,49
 182 343 182 343 182 310 c 0,50,51
 182 278 182 278 193.5 248.5 c 128,-1,52
 205 219 205 219 228 197 c 0,53,31
 252 173 252 173 282 160.5 c 128,-1,32
EndSplineSet
EndChar

StartChar: yen
Encoding: 165 165 103
Width: 721
GlyphClass: 2
Flags: W
LayerCount: 2
Fore
SplineSet
314 108 m 1,0,-1
 144 108 l 1,1,-1
 144 178 l 1,2,-1
 314 178 l 1,3,-1
 314 264 l 1,4,-1
 144 264 l 1,5,-1
 144 334 l 1,6,-1
 274 334 l 1,7,-1
 50 697 l 1,8,-1
 159 697 l 1,9,-1
 360 355 l 1,10,-1
 562 697 l 1,11,-1
 671 697 l 1,12,-1
 448 334 l 1,13,-1
 576 334 l 1,14,-1
 576 264 l 1,15,-1
 407 264 l 1,16,-1
 407 178 l 1,17,-1
 576 178 l 1,18,-1
 576 108 l 1,19,-1
 407 108 l 1,20,-1
 407 0 l 1,21,-1
 314 0 l 1,22,-1
 314 108 l 1,0,-1
EndSplineSet
EndChar

StartChar: brokenbar
Encoding: 166 166 104
Width: 325
GlyphClass: 2
Flags: W
LayerCount: 2
Fore
SplineSet
127 746 m 1,0,-1
 198 746 l 1,1,-1
 198 330 l 1,2,-1
 127 330 l 1,3,-1
 127 746 l 1,0,-1
127 155 m 1,4,-1
 198 155 l 1,5,-1
 198 -254 l 1,6,-1
 127 -254 l 1,7,-1
 127 155 l 1,4,-1
EndSplineSet
EndChar

StartChar: section
Encoding: 167 167 105
Width: 613
GlyphClass: 2
Flags: W
LayerCount: 2
Fore
SplineSet
99 -84 m 1,1,-1
 173 -38 l 1,2,3
 218 -120 218 -120 305 -120 c 0,4,5
 353 -120 353 -120 385.5 -92 c 128,-1,6
 418 -64 418 -64 418 -21 c 0,7,8
 418 11 418 11 398 34 c 128,-1,9
 378 57 378 57 348 72 c 128,-1,10
 318 87 318 87 267 106 c 0,11,12
 204 130 204 130 164 152 c 128,-1,13
 124 174 124 174 96 212 c 128,-1,14
 68 250 68 250 68 309 c 0,15,16
 68 392 68 392 123 447 c 1,17,18
 106 478 106 478 106 522 c 0,19,20
 106 577 106 577 133.5 619 c 128,-1,21
 161 661 161 661 207.5 683.5 c 128,-1,22
 254 706 254 706 310 706 c 0,23,24
 375 706 375 706 427.5 678 c 128,-1,25
 480 650 480 650 514 590 c 1,26,-1
 439 544 l 1,27,28
 418 585 418 585 384.5 605.5 c 128,-1,29
 351 626 351 626 308 626 c 0,30,31
 260 626 260 626 227.5 598 c 128,-1,32
 195 570 195 570 195 526 c 0,33,34
 195 494 195 494 215 471.5 c 128,-1,35
 235 449 235 449 264.5 434.5 c 128,-1,36
 294 420 294 420 346 400 c 0,37,38
 410 375 410 375 449.5 353 c 128,-1,39
 489 331 489 331 517 293 c 128,-1,40
 545 255 545 255 545 196 c 0,41,42
 545 114 545 114 490 59 c 1,43,44
 507 27 507 27 507 -17 c 0,45,46
 507 -72 507 -72 479.5 -113.5 c 128,-1,47
 452 -155 452 -155 405.5 -177.5 c 128,-1,48
 359 -200 359 -200 303 -200 c 0,49,0
 165 -200 165 -200 99 -84 c 1,1,-1
449 149.5 m 128,-1,51
 456 168 456 168 456 188 c 0,52,53
 456 225 456 225 435 250.5 c 128,-1,54
 414 276 414 276 383 292 c 128,-1,55
 352 308 352 308 299 328 c 0,56,57
 253 347 253 347 228.5 358.5 c 128,-1,58
 204 370 204 370 183 388 c 1,59,60
 157 359 157 359 157 317 c 0,61,62
 157 280 157 280 178 254.5 c 128,-1,63
 199 229 199 229 230 213 c 128,-1,64
 261 197 261 197 314 177 c 0,65,66
 355 162 355 162 381.5 149 c 128,-1,67
 408 136 408 136 430 117 c 1,68,50
 442 131 442 131 449 149.5 c 128,-1,51
EndSplineSet
EndChar

StartChar: dieresis
Encoding: 168 168 106
Width: 435
GlyphClass: 2
Flags: W
LayerCount: 2
Fore
SplineSet
81 697 m 1,0,-1
 168 697 l 1,1,-1
 168 592 l 1,2,-1
 81 592 l 1,3,-1
 81 697 l 1,0,-1
266 697 m 1,4,-1
 353 697 l 1,5,-1
 353 592 l 1,6,-1
 266 592 l 1,7,-1
 266 697 l 1,4,-1
EndSplineSet
EndChar

StartChar: copyright
Encoding: 169 169 107
Width: 876
GlyphClass: 2
Flags: W
LayerCount: 2
Fore
SplineSet
254 37 m 128,-1,1
 170 85 170 85 120.5 167.5 c 128,-1,2
 71 250 71 250 71 348 c 256,3,4
 71 446 71 446 120.5 528.5 c 128,-1,5
 170 611 170 611 254 659.5 c 128,-1,6
 338 708 338 708 438 708 c 0,7,8
 537 708 537 708 621 659.5 c 128,-1,9
 705 611 705 611 754.5 528.5 c 128,-1,10
 804 446 804 446 804 348 c 256,11,12
 804 250 804 250 755 167.5 c 128,-1,13
 706 85 706 85 621.5 37 c 128,-1,14
 537 -11 537 -11 438 -11 c 0,15,0
 338 -11 338 -11 254 37 c 128,-1,1
594 85 m 128,-1,17
 665 126 665 126 707 196 c 128,-1,18
 749 266 749 266 749 348 c 0,19,20
 749 431 749 431 707 501 c 128,-1,21
 665 571 665 571 594 612 c 128,-1,22
 523 653 523 653 438 653 c 256,23,24
 353 653 353 653 281.5 612 c 128,-1,25
 210 571 210 571 168 501 c 128,-1,26
 126 431 126 431 126 348 c 0,27,28
 126 266 126 266 168 196 c 128,-1,29
 210 126 210 126 281.5 85 c 128,-1,30
 353 44 353 44 438 44 c 256,31,16
 523 44 523 44 594 85 c 128,-1,17
341 154.5 m 128,-1,33
 296 185 296 185 272.5 235.5 c 128,-1,34
 249 286 249 286 249 347 c 0,35,36
 249 406 249 406 271.5 457.5 c 128,-1,37
 294 509 294 509 338.5 540.5 c 128,-1,38
 383 572 383 572 447 572 c 0,39,40
 509 572 509 572 555.5 541 c 128,-1,41
 602 510 602 510 626 450 c 1,42,-1
 558 424 l 1,43,44
 544 462 544 462 514.5 484.5 c 128,-1,45
 485 507 485 507 447 507 c 0,46,47
 386 507 386 507 354 460.5 c 128,-1,48
 322 414 322 414 322 347 c 0,49,50
 322 281 322 281 354 235.5 c 128,-1,51
 386 190 386 190 448 190 c 0,52,53
 487 190 487 190 516 212 c 128,-1,54
 545 234 545 234 556 271 c 1,55,-1
 621 247 l 1,56,57
 601 189 601 189 555.5 156.5 c 128,-1,58
 510 124 510 124 448 124 c 256,59,32
 386 124 386 124 341 154.5 c 128,-1,33
EndSplineSet
EndChar

StartChar: ordfeminine
Encoding: 170 170 108
Width: 453
GlyphClass: 2
Flags: W
LayerCount: 2
Fore
SplineSet
102.5 377 m 128,-1,1
 68 406 68 406 68 453 c 0,2,3
 68 507 68 507 106 533 c 128,-1,4
 144 559 144 559 211 559 c 2,5,-1
 310 559 l 1,6,7
 310 563 310 563 308 583 c 0,8,9
 304 621 304 621 282 639 c 128,-1,10
 260 657 260 657 220 657 c 0,11,12
 188 657 188 657 164.5 642.5 c 128,-1,13
 141 628 141 628 122 601 c 1,14,-1
 79 630 l 1,15,16
 108 670 108 670 141 688 c 128,-1,17
 174 706 174 706 221 706 c 0,18,19
 287 706 287 706 324 668.5 c 128,-1,20
 361 631 361 631 361 566 c 2,21,-1
 361 354 l 1,22,-1
 313 354 l 1,23,-1
 312 411 l 1,24,25
 266 348 266 348 188 348 c 0,26,0
 137 348 137 348 102.5 377 c 128,-1,1
259.5 416 m 128,-1,28
 287 434 287 434 303 467 c 1,29,30
 309 497 309 497 310 511 c 1,31,-1
 214 511 l 2,32,33
 171 511 171 511 148 496 c 128,-1,34
 125 481 125 481 125 453 c 0,35,36
 125 429 125 429 146 413.5 c 128,-1,37
 167 398 167 398 197 398 c 0,38,27
 232 398 232 398 259.5 416 c 128,-1,28
EndSplineSet
EndChar

StartChar: guillemotleft
Encoding: 171 171 109
Width: 514
GlyphClass: 2
Flags: W
LayerCount: 2
Fore
SplineSet
26 252 m 1,0,-1
 234 428 l 1,1,-1
 234 349 l 1,2,-1
 119 252 l 1,3,-1
 234 155 l 1,4,-1
 234 76 l 1,5,-1
 26 252 l 1,0,-1
229 252 m 1,6,-1
 438 428 l 1,7,-1
 438 349 l 1,8,-1
 322 252 l 1,9,-1
 438 155 l 1,10,-1
 438 76 l 1,11,-1
 229 252 l 1,6,-1
EndSplineSet
EndChar

StartChar: logicalnot
Encoding: 172 172 110
Width: 656
GlyphClass: 2
Flags: W
LayerCount: 2
Fore
SplineSet
448 316 m 1,0,-1
 77 316 l 1,1,-1
 77 393 l 1,2,-1
 531 393 l 1,3,-1
 531 143 l 1,4,-1
 448 143 l 1,5,-1
 448 316 l 1,0,-1
EndSplineSet
EndChar

StartChar: uni00AD
Encoding: 173 173 111
Width: 505
GlyphClass: 2
Flags: W
LayerCount: 2
Fore
SplineSet
80 336 m 1,0,-1
 425 336 l 1,1,-1
 425 270 l 1,2,-1
 80 270 l 1,3,-1
 80 336 l 1,0,-1
EndSplineSet
EndChar

StartChar: registered
Encoding: 174 174 112
Width: 876
GlyphClass: 2
Flags: W
LayerCount: 2
Fore
SplineSet
254 37 m 128,-1,1
 170 85 170 85 120.5 167.5 c 128,-1,2
 71 250 71 250 71 348 c 256,3,4
 71 446 71 446 120.5 528.5 c 128,-1,5
 170 611 170 611 254 659.5 c 128,-1,6
 338 708 338 708 438 708 c 0,7,8
 537 708 537 708 621 659.5 c 128,-1,9
 705 611 705 611 754.5 528.5 c 128,-1,10
 804 446 804 446 804 348 c 256,11,12
 804 250 804 250 755 167.5 c 128,-1,13
 706 85 706 85 621.5 37 c 128,-1,14
 537 -11 537 -11 438 -11 c 0,15,0
 338 -11 338 -11 254 37 c 128,-1,1
594 85 m 128,-1,17
 665 126 665 126 707 196 c 128,-1,18
 749 266 749 266 749 348 c 0,19,20
 749 431 749 431 707 501 c 128,-1,21
 665 571 665 571 594 612 c 128,-1,22
 523 653 523 653 438 653 c 256,23,24
 353 653 353 653 281.5 612 c 128,-1,25
 210 571 210 571 168 501 c 128,-1,26
 126 431 126 431 126 348 c 0,27,28
 126 266 126 266 168 196 c 128,-1,29
 210 126 210 126 281.5 85 c 128,-1,30
 353 44 353 44 438 44 c 256,31,16
 523 44 523 44 594 85 c 128,-1,17
321 561 m 1,32,-1
 446 561 l 2,33,34
 511 561 511 561 551 527.5 c 128,-1,35
 591 494 591 494 591 439 c 0,36,37
 591 399 591 399 568.5 370.5 c 128,-1,38
 546 342 546 342 506 330 c 1,39,-1
 622 136 l 1,40,-1
 556 136 l 1,41,-1
 449 323 l 1,42,-1
 424 322 l 1,43,-1
 379 322 l 1,44,-1
 379 136 l 1,45,-1
 321 136 l 1,46,-1
 321 561 l 1,32,-1
451 371 m 2,47,48
 490 371 490 371 511.5 389 c 128,-1,49
 533 407 533 407 533 438 c 0,50,51
 533 472 533 472 510.5 490.5 c 128,-1,52
 488 509 488 509 447 509 c 2,53,-1
 379 509 l 1,54,-1
 379 371 l 1,55,-1
 451 371 l 2,47,48
EndSplineSet
EndChar

StartChar: macron
Encoding: 175 175 113
Width: 430
GlyphClass: 2
Flags: W
LayerCount: 2
Fore
SplineSet
79 639 m 1,0,-1
 351 639 l 1,1,-1
 351 588 l 1,2,-1
 79 588 l 1,3,-1
 79 639 l 1,0,-1
EndSplineSet
EndChar

StartChar: degree
Encoding: 176 176 114
Width: 467
GlyphClass: 2
Flags: W
LayerCount: 2
Fore
SplineSet
162 438.5 m 128,-1,1
 129 458 129 458 110 491 c 128,-1,2
 91 524 91 524 91 563 c 0,3,4
 91 601 91 601 110 634 c 128,-1,5
 129 667 129 667 162 686.5 c 128,-1,6
 195 706 195 706 233 706 c 0,7,8
 272 706 272 706 304.5 686.5 c 128,-1,9
 337 667 337 667 356.5 634 c 128,-1,10
 376 601 376 601 376 563 c 0,11,12
 376 524 376 524 357 491 c 128,-1,13
 338 458 338 458 305 438.5 c 128,-1,14
 272 419 272 419 233 419 c 0,15,0
 195 419 195 419 162 438.5 c 128,-1,1
293 503 m 128,-1,17
 318 528 318 528 318 563 c 256,18,19
 318 598 318 598 293 622.5 c 128,-1,20
 268 647 268 647 233 647 c 0,21,22
 199 647 199 647 174.5 622.5 c 128,-1,23
 150 598 150 598 150 563 c 256,24,25
 150 528 150 528 174.5 503 c 128,-1,26
 199 478 199 478 233 478 c 0,27,16
 268 478 268 478 293 503 c 128,-1,17
EndSplineSet
EndChar

StartChar: plusminus
Encoding: 177 177 115
Width: 664
GlyphClass: 2
Flags: W
LayerCount: 2
Fore
SplineSet
300 316 m 1,0,-1
 69 316 l 1,1,-1
 69 382 l 1,2,-1
 300 382 l 1,3,-1
 300 604 l 1,4,-1
 365 604 l 1,5,-1
 365 382 l 1,6,-1
 596 382 l 1,7,-1
 596 316 l 1,8,-1
 365 316 l 1,9,-1
 365 93 l 1,10,-1
 300 93 l 1,11,-1
 300 316 l 1,0,-1
69 0 m 1,12,-1
 593 0 l 1,13,-1
 593 -66 l 1,14,-1
 69 -66 l 1,15,-1
 69 0 l 1,12,-1
EndSplineSet
EndChar

StartChar: acute
Encoding: 180 180 116
Width: 257
GlyphClass: 2
Flags: W
LayerCount: 2
Fore
SplineSet
140 697 m 1,0,-1
 232 697 l 1,1,-1
 95 556 l 1,2,-1
 31 556 l 1,3,-1
 140 697 l 1,0,-1
EndSplineSet
EndChar

StartChar: uni00B5
Encoding: 181 181 117
Width: 643
GlyphClass: 2
Flags: W
LayerCount: 2
Fore
SplineSet
127 493 m 1,0,-1
 212 493 l 1,1,-1
 212 202 l 2,2,3
 212 141 212 141 241 106 c 128,-1,4
 270 71 270 71 324 71 c 0,5,6
 384 71 384 71 417.5 106.5 c 128,-1,7
 451 142 451 142 451 210 c 2,8,-1
 451 493 l 1,9,-1
 537 493 l 1,10,-1
 537 0 l 1,11,-1
 451 0 l 1,12,-1
 451 74 l 1,13,14
 426 33 426 33 386 12 c 128,-1,15
 346 -9 346 -9 300 -9 c 0,16,17
 230 -9 230 -9 196 36 c 1,18,-1
 196 -168 l 1,19,-1
 127 -168 l 1,20,-1
 127 493 l 1,0,-1
EndSplineSet
EndChar

StartChar: paragraph
Encoding: 182 182 118
Width: 635
GlyphClass: 2
Flags: W
LayerCount: 2
Fore
SplineSet
278 307 m 1,0,1
 219 307 219 307 167.5 330.5 c 128,-1,2
 116 354 116 354 85 398.5 c 128,-1,3
 54 443 54 443 54 502 c 256,4,5
 54 561 54 561 85 605.5 c 128,-1,6
 116 650 116 650 167.5 673.5 c 128,-1,7
 219 697 219 697 278 697 c 2,8,-1
 338 697 l 1,9,-1
 338 -121 l 1,10,-1
 278 -121 l 1,11,-1
 278 307 l 1,0,1
447 697 m 1,12,-1
 508 697 l 1,13,-1
 508 -121 l 1,14,-1
 447 -121 l 1,15,-1
 447 697 l 1,12,-1
EndSplineSet
EndChar

StartChar: periodcentered
Encoding: 183 183 119
Width: 330
GlyphClass: 2
Flags: W
LayerCount: 2
Fore
SplineSet
116 314 m 128,-1,1
 96 334 96 334 96 363 c 256,2,3
 96 392 96 392 116 411.5 c 128,-1,4
 136 431 136 431 164 431 c 0,5,6
 193 431 193 431 213 411 c 128,-1,7
 233 391 233 391 233 363 c 0,8,9
 233 334 233 334 213 314 c 128,-1,10
 193 294 193 294 164 294 c 0,11,0
 136 294 136 294 116 314 c 128,-1,1
EndSplineSet
EndChar

StartChar: cedilla
Encoding: 184 184 120
Width: 290
GlyphClass: 2
Flags: W
LayerCount: 2
Fore
SplineSet
79 -238 m 128,-1,1
 52 -220 52 -220 41 -192 c 1,2,-1
 90 -171 l 1,3,4
 96 -186 96 -186 109.5 -195.5 c 128,-1,5
 123 -205 123 -205 139 -205 c 0,6,7
 163 -205 163 -205 177.5 -191.5 c 128,-1,8
 192 -178 192 -178 192 -156 c 0,9,10
 192 -130 192 -130 168.5 -113.5 c 128,-1,11
 145 -97 145 -97 105 -95 c 2,12,-1
 65 -95 l 1,13,-1
 121 -1 l 1,14,-1
 174 -1 l 1,15,-1
 134 -59 l 1,16,17
 155 -62 155 -62 164 -65 c 0,18,19
 203 -74 203 -74 223 -96.5 c 128,-1,20
 243 -119 243 -119 243 -153 c 0,21,22
 243 -198 243 -198 213.5 -227 c 128,-1,23
 184 -256 184 -256 137 -256 c 0,24,0
 106 -256 106 -256 79 -238 c 128,-1,1
EndSplineSet
EndChar

StartChar: ordmasculine
Encoding: 186 186 121
Width: 475
GlyphClass: 2
Flags: W
LayerCount: 2
Fore
SplineSet
149 375.5 m 128,-1,1
 110 399 110 399 88 439.5 c 128,-1,2
 66 480 66 480 66 529 c 0,3,4
 66 577 66 577 88 617.5 c 128,-1,5
 110 658 110 658 149 682 c 128,-1,6
 188 706 188 706 237 706 c 256,7,8
 286 706 286 706 325.5 682 c 128,-1,9
 365 658 365 658 387 617.5 c 128,-1,10
 409 577 409 577 409 529 c 0,11,12
 409 480 409 480 387 439.5 c 128,-1,13
 365 399 365 399 325.5 375.5 c 128,-1,14
 286 352 286 352 237 352 c 256,15,0
 188 352 188 352 149 375.5 c 128,-1,1
319 439.5 m 128,-1,17
 348 474 348 474 348 529 c 256,18,19
 348 584 348 584 319 618.5 c 128,-1,20
 290 653 290 653 237 653 c 256,21,22
 184 653 184 653 155 618.5 c 128,-1,23
 126 584 126 584 126 529 c 256,24,25
 126 474 126 474 155 439.5 c 128,-1,26
 184 405 184 405 237 405 c 256,27,16
 290 405 290 405 319 439.5 c 128,-1,17
EndSplineSet
EndChar

StartChar: guillemotright
Encoding: 187 187 122
Width: 513
GlyphClass: 2
Flags: W
LayerCount: 2
Fore
SplineSet
74 155 m 1,0,-1
 190 252 l 1,1,-1
 74 349 l 1,2,-1
 74 428 l 1,3,-1
 283 252 l 1,4,-1
 74 76 l 1,5,-1
 74 155 l 1,0,-1
278 155 m 1,6,-1
 393 252 l 1,7,-1
 278 349 l 1,8,-1
 278 428 l 1,9,-1
 486 252 l 1,10,-1
 278 76 l 1,11,-1
 278 155 l 1,6,-1
EndSplineSet
EndChar

StartChar: questiondown
Encoding: 191 191 123
Width: 515
GlyphClass: 2
Flags: W
LayerCount: 2
Fore
SplineSet
312 376 m 1,0,-1
 208 376 l 1,1,-1
 208 493 l 1,2,-1
 312 493 l 1,3,-1
 312 376 l 1,0,-1
298 215 m 2,4,5
 298 178 298 178 285.5 153 c 128,-1,6
 273 128 273 128 255 114 c 128,-1,7
 237 100 237 100 207 83 c 0,8,9
 167 61 167 61 146.5 39 c 128,-1,10
 126 17 126 17 126 -25 c 0,11,12
 126 -82 126 -82 162.5 -111.5 c 128,-1,13
 199 -141 199 -141 263 -141 c 0,14,15
 328 -141 328 -141 362 -106.5 c 128,-1,16
 396 -72 396 -72 397 -9 c 1,17,-1
 473 -9 l 1,18,19
 473 -104 473 -104 416.5 -158.5 c 128,-1,20
 360 -213 360 -213 266 -213 c 0,21,22
 171 -213 171 -213 110.5 -163 c 128,-1,23
 50 -113 50 -113 50 -24 c 0,24,25
 50 24 50 24 66 56 c 128,-1,26
 82 88 82 88 104 106 c 128,-1,27
 126 124 126 124 160 144 c 0,28,29
 193 163 193 163 208.5 177.5 c 128,-1,30
 224 192 224 192 224 216 c 2,31,-1
 224 293 l 1,32,-1
 298 293 l 1,33,-1
 298 215 l 2,4,5
EndSplineSet
EndChar

StartChar: Aring
Encoding: 197 197 129
Width: 654
GlyphClass: 2
Flags: W
AnchorPoint: "Anchor-4" 328 885 basechar 0
AnchorPoint: "Anchor-3" 629 0 basechar 0
LayerCount: 2
Fore
SplineSet
469 173 m 1,0,-1
 185 173 l 1,1,-1
 123 0 l 1,2,-1
 25 0 l 1,3,-1
 288 688 l 1,4,5
 260 699 260 699 242.5 725.5 c 128,-1,6
 225 752 225 752 225 783 c 0,7,8
 225 826 225 826 255 855.5 c 128,-1,9
 285 885 285 885 328 885 c 0,10,11
 370 885 370 885 400 855 c 128,-1,12
 430 825 430 825 430 783 c 0,13,14
 430 750 430 750 412.5 724 c 128,-1,15
 395 698 395 698 366 687 c 1,16,-1
 629 0 l 1,17,-1
 531 0 l 1,18,-1
 469 173 l 1,0,-1
288.5 822 m 128,-1,20
 273 806 273 806 273 783 c 256,21,22
 273 760 273 760 288.5 744 c 128,-1,23
 304 728 304 728 328 728 c 0,24,25
 351 728 351 728 367 744 c 128,-1,26
 383 760 383 760 383 783 c 0,27,28
 383 807 383 807 367.5 822.5 c 128,-1,29
 352 838 352 838 328 838 c 256,30,19
 304 838 304 838 288.5 822 c 128,-1,20
440 252 m 1,31,-1
 327 568 l 1,32,-1
 214 252 l 1,33,-1
 440 252 l 1,31,-1
EndSplineSet
EndChar

StartChar: AE
Encoding: 198 198 130
Width: 912
GlyphClass: 2
Flags: W
AnchorPoint: "Anchor-4" 456 697 basechar 0
AnchorPoint: "Anchor-2" 456 0 basechar 0
LayerCount: 2
Fore
SplineSet
291 697 m 1,0,-1
 856 697 l 1,1,-1
 856 618 l 1,2,-1
 490 618 l 1,3,-1
 490 387 l 1,4,-1
 809 387 l 1,5,-1
 809 311 l 1,6,-1
 490 311 l 1,7,-1
 490 81 l 1,8,-1
 856 81 l 1,9,-1
 856 0 l 1,10,-1
 400 0 l 1,11,-1
 400 162 l 1,12,-1
 181 162 l 1,13,-1
 123 0 l 1,14,-1
 25 0 l 1,15,-1
 291 697 l 1,0,-1
400 238 m 1,16,-1
 400 621 l 1,17,-1
 347 621 l 1,18,-1
 209 238 l 1,19,-1
 400 238 l 1,16,-1
EndSplineSet
EndChar

StartChar: Ccedilla
Encoding: 199 199 131
Width: 723
GlyphClass: 2
Flags: W
AnchorPoint: "Anchor-2" 384 -256 basechar 0
LayerCount: 2
Fore
SplineSet
575.5 45 m 128,-1,1
 505 -6 505 -6 408 -11 c 1,2,-1
 376 -59 l 1,3,4
 411 -65 411 -65 435 -76 c 0,5,6
 485 -99 485 -99 485 -153 c 0,7,8
 485 -198 485 -198 455 -227 c 128,-1,9
 425 -256 425 -256 378 -256 c 0,10,11
 356 -256 356 -256 332 -245.5 c 128,-1,12
 308 -235 308 -235 290 -214 c 1,13,-1
 320 -173 l 1,14,15
 332 -189 332 -189 348.5 -197 c 128,-1,16
 365 -205 365 -205 381 -205 c 0,17,18
 405 -205 405 -205 419 -191.5 c 128,-1,19
 433 -178 433 -178 433 -155 c 0,20,21
 433 -114 433 -114 379 -101 c 0,22,23
 355 -95 355 -95 307 -95 c 1,24,-1
 356 -11 l 1,25,26
 264 -6 264 -6 197 39 c 128,-1,27
 130 84 130 84 94.5 163.5 c 128,-1,28
 59 243 59 243 59 350 c 0,29,30
 59 461 59 461 98.5 542 c 128,-1,31
 138 623 138 623 211.5 666 c 128,-1,32
 285 709 285 709 386 709 c 0,33,34
 493 709 493 709 568 659.5 c 128,-1,35
 643 610 643 610 680 514 c 1,36,-1
 598 482 l 1,37,38
 546 624 546 624 386 624 c 0,39,40
 272 624 272 624 210 552.5 c 128,-1,41
 148 481 148 481 148 350 c 0,42,43
 148 218 148 218 209.5 145.5 c 128,-1,44
 271 73 271 73 383 73 c 0,45,46
 461 73 461 73 516 109.5 c 128,-1,47
 571 146 571 146 598 218 c 1,48,-1
 682 187 l 1,49,0
 646 96 646 96 575.5 45 c 128,-1,1
EndSplineSet
EndChar

StartChar: Eth
Encoding: 208 208 140
Width: 714
GlyphClass: 2
Flags: W
AnchorPoint: "Anchor-5" 174 349 basechar 0
AnchorPoint: "Anchor-4" 358 697 basechar 0
AnchorPoint: "Anchor-2" 358 0 basechar 0
LayerCount: 2
Fore
SplineSet
563.5 604.5 m 128,-1,1
 657 512 657 512 657 343 c 0,2,3
 657 177 657 177 564.5 88.5 c 128,-1,4
 472 0 472 0 298 0 c 2,5,-1
 105 0 l 1,6,-1
 105 320 l 1,7,-1
 30 320 l 1,8,-1
 30 378 l 1,9,-1
 105 378 l 1,10,-1
 105 697 l 1,11,-1
 299 697 l 2,12,0
 470 697 470 697 563.5 604.5 c 128,-1,1
499 147 m 128,-1,14
 567 212 567 212 567 347 c 0,15,16
 567 615 567 615 297 615 c 2,17,-1
 194 615 l 1,18,-1
 194 378 l 1,19,-1
 318 378 l 1,20,-1
 318 320 l 1,21,-1
 194 320 l 1,22,-1
 194 82 l 1,23,-1
 290 82 l 2,24,13
 431 82 431 82 499 147 c 128,-1,14
EndSplineSet
EndChar

StartChar: multiply
Encoding: 215 215 147
Width: 548
GlyphClass: 2
Flags: W
LayerCount: 2
Fore
SplineSet
69 151 m 1,0,-1
 224 306 l 1,1,-1
 69 461 l 1,2,-1
 120 511 l 1,3,-1
 274 357 l 1,4,-1
 429 511 l 1,5,-1
 479 461 l 1,6,-1
 325 306 l 1,7,-1
 479 151 l 1,8,-1
 429 101 l 1,9,-1
 274 255 l 1,10,-1
 120 101 l 1,11,-1
 69 151 l 1,0,-1
EndSplineSet
EndChar

StartChar: Oslash
Encoding: 216 216 148
Width: 763
GlyphClass: 2
Flags: W
AnchorPoint: "Anchor-6" 701 493 basechar 0
AnchorPoint: "Anchor-5" 381 349 basechar 0
AnchorPoint: "Anchor-4" 381 697 basechar 0
AnchorPoint: "Anchor-3" 455 0 basechar 0
AnchorPoint: "Anchor-2" 381 0 basechar 0
LayerCount: 2
Fore
SplineSet
678.5 504 m 128,-1,1
 705 434 705 434 705 348 c 0,2,3
 705 241 705 241 664.5 159.5 c 128,-1,4
 624 78 624 78 550.5 33 c 128,-1,5
 477 -12 477 -12 381 -12 c 0,6,7
 286 -12 286 -12 209 35 c 1,8,-1
 186 0 l 1,9,-1
 110 0 l 1,10,-1
 160 74 l 1,11,12
 111 122 111 122 84.5 192 c 128,-1,13
 58 262 58 262 58 348 c 0,14,15
 58 455 58 455 98.5 537 c 128,-1,16
 139 619 139 619 212 664 c 128,-1,17
 285 709 285 709 381 709 c 256,18,19
 477 709 477 709 554 662 c 1,20,-1
 577 697 l 1,21,-1
 653 697 l 1,22,-1
 603 623 l 1,23,0
 652 574 652 574 678.5 504 c 128,-1,1
163 235 m 128,-1,25
 179 184 179 184 210 149 c 1,26,-1
 505 590 l 1,27,28
 452 624 452 624 381 624 c 256,29,30
 310 624 310 624 257 590.5 c 128,-1,31
 204 557 204 557 175.5 494.5 c 128,-1,32
 147 432 147 432 147 348 c 0,33,24
 147 286 147 286 163 235 c 128,-1,25
505 106.5 m 128,-1,35
 558 140 558 140 587 202.5 c 128,-1,36
 616 265 616 265 616 348 c 0,37,38
 616 472 616 472 553 548 c 1,39,-1
 257 107 l 1,40,41
 311 73 311 73 381 73 c 0,42,34
 452 73 452 73 505 106.5 c 128,-1,35
EndSplineSet
EndChar

StartChar: Thorn
Encoding: 222 222 154
Width: 579
GlyphClass: 2
Flags: W
AnchorPoint: "Anchor-4" 290 697 basechar 0
AnchorPoint: "Anchor-2" 290 0 basechar 0
LayerCount: 2
Fore
SplineSet
105 697 m 1,0,-1
 187 697 l 1,1,-1
 187 598 l 1,2,-1
 322 598 l 2,3,4
 424 598 424 598 481.5 546.5 c 128,-1,5
 539 495 539 495 539 404 c 0,6,7
 539 309 539 309 477 255.5 c 128,-1,8
 415 202 415 202 304 202 c 2,9,-1
 187 202 l 1,10,-1
 187 0 l 1,11,-1
 105 0 l 1,12,-1
 105 697 l 1,0,-1
304 277 m 2,13,14
 379 277 379 277 418 308.5 c 128,-1,15
 457 340 457 340 457 401 c 256,16,17
 457 462 457 462 417.5 495 c 128,-1,18
 378 528 378 528 304 528 c 2,19,-1
 187 528 l 1,20,-1
 187 277 l 1,21,-1
 304 277 l 2,13,14
EndSplineSet
EndChar

StartChar: germandbls
Encoding: 223 223 155
Width: 635
GlyphClass: 2
Flags: W
LayerCount: 2
Fore
SplineSet
299.5 29 m 128,-1,1
 244 67 244 67 225 124 c 1,2,-1
 294 155 l 1,3,4
 309 116 309 116 341 89.5 c 128,-1,5
 373 63 373 63 423 63 c 0,6,7
 472 63 472 63 498.5 85.5 c 128,-1,8
 525 108 525 108 525 141 c 0,9,10
 525 165 525 165 510 180.5 c 128,-1,11
 495 196 495 196 472.5 204 c 128,-1,12
 450 212 450 212 410 223 c 0,13,14
 359 237 359 237 328 250 c 128,-1,15
 297 263 297 263 275 290 c 128,-1,16
 253 317 253 317 253 362 c 0,17,18
 253 404 253 404 271 430 c 128,-1,19
 289 456 289 456 314.5 469 c 128,-1,20
 340 482 340 482 380 495 c 256,21,22
 420 508 420 508 439.5 520.5 c 128,-1,23
 459 533 459 533 459 557 c 0,24,25
 459 588 459 588 421 607.5 c 128,-1,26
 383 627 383 627 329 627 c 0,27,28
 259 627 259 627 224.5 598.5 c 128,-1,29
 190 570 190 570 181.5 532 c 128,-1,30
 173 494 173 494 173 444 c 2,31,-1
 173 0 l 1,32,-1
 84 0 l 1,33,-1
 84 444 l 2,34,35
 84 548 84 548 130.5 627.5 c 128,-1,36
 177 707 177 707 326 707 c 0,37,38
 423 707 423 707 483 667.5 c 128,-1,39
 543 628 543 628 543 562 c 0,40,41
 543 523 543 523 525.5 498 c 128,-1,42
 508 473 508 473 483.5 460 c 128,-1,43
 459 447 459 447 419 431 c 0,44,45
 377 416 377 416 357 402.5 c 128,-1,46
 337 389 337 389 337 364 c 0,47,48
 337 336 337 336 362 322.5 c 128,-1,49
 387 309 387 309 441 296 c 0,50,51
 494 283 494 283 527.5 269 c 128,-1,52
 561 255 561 255 585 225.5 c 128,-1,53
 609 196 609 196 609 146 c 0,54,55
 609 71 609 71 556.5 31 c 128,-1,56
 504 -9 504 -9 427 -9 c 0,57,0
 355 -9 355 -9 299.5 29 c 128,-1,1
EndSplineSet
EndChar

StartChar: ae
Encoding: 230 230 162
Width: 849
GlyphClass: 2
Flags: W
AnchorPoint: "Anchor-4" 424 493 basechar 0
AnchorPoint: "Anchor-2" 424 0 basechar 0
LayerCount: 2
Fore
SplineSet
83 33.5 m 128,-1,1
 36 76 36 76 36 144 c 0,2,3
 36 288 36 288 260 288 c 2,4,-1
 378 288 l 1,5,-1
 378 308 l 2,6,7
 378 365 378 365 347.5 395.5 c 128,-1,8
 317 426 317 426 262 426 c 0,9,10
 174 426 174 426 117 347 c 1,11,-1
 54 399 l 1,12,13
 135 502 135 502 267 502 c 0,14,15
 330 502 330 502 373.5 476 c 128,-1,16
 417 450 417 450 433 402 c 1,17,18
 489 498 489 498 598 498 c 0,19,20
 704 498 704 498 755 433.5 c 128,-1,21
 806 369 806 369 806 271 c 0,22,23
 806 244 806 244 803 221 c 1,24,-1
 458 221 l 1,25,26
 462 149 462 149 496.5 110 c 128,-1,27
 531 71 531 71 597 71 c 0,28,29
 640 71 640 71 671 84.5 c 128,-1,30
 702 98 702 98 731 129 c 1,31,-1
 791 76 l 1,32,33
 748 32 748 32 702.5 13 c 128,-1,34
 657 -6 657 -6 597 -6 c 0,35,36
 527 -6 527 -6 479 24.5 c 128,-1,37
 431 55 431 55 409 110 c 1,38,-1
 399 110 l 1,39,40
 367 45 367 45 320.5 18 c 128,-1,41
 274 -9 274 -9 214 -9 c 0,42,0
 130 -9 130 -9 83 33.5 c 128,-1,1
726 284 m 1,43,44
 726 307 726 307 718 333 c 0,45,46
 707 372 707 372 675.5 399 c 128,-1,47
 644 426 644 426 593 426 c 0,48,49
 531 426 531 426 495 385 c 128,-1,50
 459 344 459 344 457 284 c 1,51,-1
 726 284 l 1,43,44
328.5 104.5 m 128,-1,53
 370 144 370 144 378 216 c 1,54,-1
 378 225 l 1,55,-1
 265 225 l 2,56,57
 124 225 124 225 124 143 c 0,58,59
 124 107 124 107 150.5 86 c 128,-1,60
 177 65 177 65 224 65 c 0,61,52
 287 65 287 65 328.5 104.5 c 128,-1,53
EndSplineSet
EndChar

StartChar: ccedilla
Encoding: 231 231 163
Width: 503
GlyphClass: 2
Flags: W
AnchorPoint: "Anchor-2" 246 -256 basechar 0
LayerCount: 2
Fore
SplineSet
345.5 92 m 128,-1,1
 377 117 377 117 390 161 c 1,2,-1
 469 131 l 1,3,4
 444 64 444 64 392 27.5 c 128,-1,5
 340 -9 340 -9 271 -9 c 1,6,-1
 238 -59 l 1,7,8
 273 -65 273 -65 297 -76 c 0,9,10
 347 -99 347 -99 347 -153 c 0,11,12
 347 -198 347 -198 317 -227 c 128,-1,13
 287 -256 287 -256 240 -256 c 0,14,15
 218 -256 218 -256 194 -245.5 c 128,-1,16
 170 -235 170 -235 152 -214 c 1,17,-1
 182 -173 l 1,18,19
 194 -189 194 -189 210.5 -197 c 128,-1,20
 227 -205 227 -205 243 -205 c 0,21,22
 267 -205 267 -205 281 -191.5 c 128,-1,23
 295 -178 295 -178 295 -155 c 0,24,25
 295 -114 295 -114 241 -101 c 0,26,27
 217 -95 217 -95 169 -95 c 1,28,-1
 222 -4 l 1,29,30
 137 13 137 13 89.5 82.5 c 128,-1,31
 42 152 42 152 42 245 c 0,32,33
 42 312 42 312 68 371 c 128,-1,34
 94 430 94 430 145.5 466 c 128,-1,35
 197 502 197 502 270 502 c 0,36,37
 340 502 340 502 392.5 467 c 128,-1,38
 445 432 445 432 474 363 c 1,39,-1
 392 330 l 1,40,41
 377 375 377 375 345 400.5 c 128,-1,42
 313 426 313 426 270 426 c 0,43,44
 201 426 201 426 165.5 373.5 c 128,-1,45
 130 321 130 321 130 245 c 256,46,47
 130 169 130 169 165.5 118 c 128,-1,48
 201 67 201 67 270 67 c 0,49,0
 314 67 314 67 345.5 92 c 128,-1,1
EndSplineSet
EndChar

StartChar: eth
Encoding: 240 240 172
Width: 599
GlyphClass: 2
Flags: W
LayerCount: 2
Fore
SplineSet
549 352 m 0,1,2
 549 254 549 254 515.5 172.5 c 128,-1,3
 482 91 482 91 416.5 42.5 c 128,-1,4
 351 -6 351 -6 260 -6 c 0,5,6
 193 -6 193 -6 143 22.5 c 128,-1,7
 93 51 93 51 66.5 102 c 128,-1,8
 40 153 40 153 40 218 c 0,9,10
 40 300 40 300 76.5 364.5 c 128,-1,11
 113 429 113 429 174.5 465 c 128,-1,12
 236 501 236 501 308 501 c 0,13,14
 404 501 404 501 461 440 c 1,15,16
 457 532 457 532 402 590 c 1,17,-1
 242 543 l 1,18,-1
 229 586 l 1,19,-1
 358 625 l 1,20,21
 290 665 290 665 188 668 c 1,22,-1
 194 726 l 1,23,24
 350 717 350 717 437 648 c 1,25,-1
 534 677 l 1,26,-1
 547 633 l 1,27,-1
 474 611 l 1,28,0
 549 521 549 521 549 352 c 0,1,2
444.5 349 m 128,-1,30
 429 385 429 385 397 407.5 c 128,-1,31
 365 430 365 430 318 430 c 0,32,33
 257 430 257 430 212 401 c 128,-1,34
 167 372 167 372 143.5 323.5 c 128,-1,35
 120 275 120 275 120 219 c 0,36,37
 120 149 120 149 161.5 108.5 c 128,-1,38
 203 68 203 68 265 68 c 0,39,40
 326 68 326 68 370.5 98.5 c 128,-1,41
 415 129 415 129 437.5 177 c 128,-1,42
 460 225 460 225 460 274 c 0,43,29
 460 313 460 313 444.5 349 c 128,-1,30
EndSplineSet
EndChar

StartChar: divide
Encoding: 247 247 179
Width: 502
GlyphClass: 2
Flags: W
LayerCount: 2
Fore
SplineSet
204 548 m 1,0,-1
 297 548 l 1,1,-1
 297 431 l 1,2,-1
 204 431 l 1,3,-1
 204 548 l 1,0,-1
59 347 m 1,4,-1
 442 347 l 1,5,-1
 442 275 l 1,6,-1
 59 275 l 1,7,-1
 59 347 l 1,4,-1
204 187 m 1,8,-1
 297 187 l 1,9,-1
 297 71 l 1,10,-1
 204 71 l 1,11,-1
 204 187 l 1,8,-1
EndSplineSet
EndChar

StartChar: oslash
Encoding: 248 248 180
Width: 561
GlyphClass: 2
Flags: W
AnchorPoint: "Anchor-6" 529 355 basechar 0
AnchorPoint: "Anchor-5" 280 247 basechar 0
AnchorPoint: "Anchor-4" 280 493 basechar 0
AnchorPoint: "Anchor-3" 345 0 basechar 0
AnchorPoint: "Anchor-2" 280 0 basechar 0
LayerCount: 2
Fore
SplineSet
498.5 360 m 128,-1,1
 521 308 521 308 521 247 c 0,2,3
 521 176 521 176 491 117.5 c 128,-1,4
 461 59 461 59 406 25 c 128,-1,5
 351 -9 351 -9 280 -9 c 0,6,7
 219 -9 219 -9 171 16 c 1,8,-1
 132 -47 l 1,9,-1
 66 -47 l 1,10,-1
 124 47 l 1,11,12
 84 82 84 82 62.5 134 c 128,-1,13
 41 186 41 186 41 247 c 0,14,15
 41 319 41 319 70.5 377 c 128,-1,16
 100 435 100 435 154.5 468.5 c 128,-1,17
 209 502 209 502 280 502 c 0,18,19
 339 502 339 502 389 477 c 1,20,-1
 428 540 l 1,21,-1
 493 540 l 1,22,-1
 436 447 l 1,23,0
 476 412 476 412 498.5 360 c 128,-1,1
167 117 m 1,25,-1
 349 411 l 1,26,27
 319 426 319 426 280 426 c 0,28,29
 207 426 207 426 167 376 c 128,-1,30
 127 326 127 326 127 247 c 256,31,24
 127 168 127 168 167 117 c 1,25,-1
394 118 m 128,-1,33
 435 169 435 169 435 247 c 0,34,35
 435 329 435 329 393 378 c 1,36,-1
 211 82 l 1,37,38
 241 67 241 67 280 67 c 0,39,32
 353 67 353 67 394 118 c 128,-1,33
EndSplineSet
EndChar

StartChar: thorn
Encoding: 254 254 186
Width: 588
GlyphClass: 2
Flags: W
AnchorPoint: "Anchor-4" 296 493 basechar 0
AnchorPoint: "Anchor-2" 296 0 basechar 0
LayerCount: 2
Fore
SplineSet
485 432.5 m 128,-1,1
 542 363 542 363 542 247 c 256,2,3
 542 131 542 131 485 61 c 128,-1,4
 428 -9 428 -9 327 -9 c 0,5,6
 277 -9 277 -9 236.5 10 c 128,-1,7
 196 29 196 29 171 62 c 1,8,-1
 171 -204 l 1,9,-1
 85 -204 l 1,10,-1
 85 697 l 1,11,-1
 171 697 l 1,12,-1
 171 432 l 1,13,14
 197 467 197 467 237.5 484.5 c 128,-1,15
 278 502 278 502 327 502 c 0,16,0
 428 502 428 502 485 432.5 c 128,-1,1
418.5 115.5 m 128,-1,18
 456 164 456 164 456 247 c 0,19,20
 456 331 456 331 418 379 c 128,-1,21
 380 427 380 427 311 427 c 0,22,23
 241 427 241 427 202 378 c 128,-1,24
 163 329 163 329 163 247 c 0,25,26
 163 167 163 167 201 117 c 128,-1,27
 239 67 239 67 310 67 c 256,28,17
 381 67 381 67 418.5 115.5 c 128,-1,18
EndSplineSet
EndChar

StartChar: Aogonek
Encoding: 260 260 192
Width: 654
GlyphClass: 2
Flags: W
AnchorPoint: "Anchor-4" 327 697 basechar 0
AnchorPoint: "Anchor-3" 629 0 basechar 0
AnchorPoint: "Anchor-2" 327 0 basechar 0
LayerCount: 2
Fore
SplineSet
671 -167 m 1,0,1
 630 -217 630 -217 573 -217 c 0,2,3
 530 -217 530 -217 502.5 -192.5 c 128,-1,4
 475 -168 475 -168 475 -127 c 0,5,6
 475 -87 475 -87 500 -54 c 128,-1,7
 525 -21 525 -21 559 0 c 1,8,-1
 531 0 l 1,9,-1
 469 173 l 1,10,-1
 185 173 l 1,11,-1
 123 0 l 1,12,-1
 25 0 l 1,13,-1
 292 697 l 1,14,-1
 362 697 l 1,15,-1
 629 0 l 1,16,17
 589 -22 589 -22 558 -50 c 128,-1,18
 527 -78 527 -78 527 -119 c 0,19,20
 527 -141 527 -141 539.5 -151.5 c 128,-1,21
 552 -162 552 -162 570 -162 c 0,22,23
 601 -162 601 -162 628 -135 c 1,24,-1
 671 -167 l 1,0,1
440 252 m 1,25,-1
 327 568 l 1,26,-1
 214 252 l 1,27,-1
 440 252 l 1,25,-1
EndSplineSet
EndChar

StartChar: aogonek
Encoding: 261 261 193
Width: 533
GlyphClass: 2
Flags: W
AnchorPoint: "Anchor-4" 262 493 basechar 0
AnchorPoint: "Anchor-3" 463 0 basechar 0
AnchorPoint: "Anchor-2" 262 0 basechar 0
LayerCount: 2
Fore
SplineSet
505 -167 m 1,0,1
 464 -217 464 -217 407 -217 c 0,2,3
 364 -217 364 -217 336.5 -192.5 c 128,-1,4
 309 -168 309 -168 309 -127 c 0,5,6
 309 -87 309 -87 334 -54 c 128,-1,7
 359 -21 359 -21 393 0 c 1,8,-1
 384 0 l 1,9,-1
 378 74 l 1,10,11
 352 34 352 34 308.5 12.5 c 128,-1,12
 265 -9 265 -9 210 -9 c 0,13,14
 130 -9 130 -9 83.5 33 c 128,-1,15
 37 75 37 75 37 146 c 0,16,17
 37 185 37 185 53 214 c 128,-1,18
 69 243 69 243 99 260 c 0,19,20
 127 275 127 275 166.5 281.5 c 128,-1,21
 206 288 206 288 268 288 c 2,22,-1
 377 288 l 1,23,-1
 377 308 l 2,24,25
 377 365 377 365 346.5 395.5 c 128,-1,26
 316 426 316 426 260 426 c 0,27,28
 175 426 175 426 116 347 c 1,29,-1
 54 399 l 1,30,31
 95 451 95 451 146 476.5 c 128,-1,32
 197 502 197 502 262 502 c 0,33,34
 357 502 357 502 410 450.5 c 128,-1,35
 463 399 463 399 463 308 c 2,36,-1
 463 0 l 1,37,38
 423 -22 423 -22 392 -50 c 128,-1,39
 361 -78 361 -78 361 -119 c 0,40,41
 361 -141 361 -141 373.5 -151.5 c 128,-1,42
 386 -162 386 -162 404 -162 c 0,43,44
 435 -162 435 -162 462 -135 c 1,45,-1
 505 -167 l 1,0,1
336 105.5 m 128,-1,47
 377 148 377 148 377 216 c 2,48,-1
 377 221 l 1,49,-1
 278 221 l 2,50,51
 222 221 222 221 193 216 c 128,-1,52
 164 211 164 211 148 199 c 0,53,54
 123 179 123 179 123 142 c 0,55,56
 123 106 123 106 152 84.5 c 128,-1,57
 181 63 181 63 230 63 c 0,58,46
 295 63 295 63 336 105.5 c 128,-1,47
EndSplineSet
EndChar

StartChar: dcroat
Encoding: 273 273 203
Width: 587
GlyphClass: 2
Flags: W
AnchorPoint: "Anchor-6" 614 493 basechar 0
AnchorPoint: "Anchor-5" 418 608 basechar 0
AnchorPoint: "Anchor-4" 460 697 basechar 0
AnchorPoint: "Anchor-2" 291 0 basechar 0
LayerCount: 2
Fore
SplineSet
562 579 m 1,0,-1
 503 579 l 1,1,-1
 503 0 l 1,2,-1
 417 0 l 1,3,-1
 417 61 l 1,4,5
 391 27 391 27 350.5 9 c 128,-1,6
 310 -9 310 -9 261 -9 c 0,7,8
 158 -9 158 -9 101.5 62 c 128,-1,9
 45 133 45 133 45 247 c 0,10,11
 45 324 45 324 71.5 382 c 128,-1,12
 98 440 98 440 147 471 c 128,-1,13
 196 502 196 502 261 502 c 0,14,15
 310 502 310 502 350.5 483.5 c 128,-1,16
 391 465 391 465 417 431 c 1,17,-1
 417 579 l 1,18,-1
 274 579 l 1,19,-1
 274 637 l 1,20,-1
 417 637 l 1,21,-1
 417 697 l 1,22,-1
 503 697 l 1,23,-1
 503 637 l 1,24,-1
 562 637 l 1,25,-1
 562 579 l 1,0,-1
386 118 m 128,-1,27
 424 167 424 167 424 247 c 0,28,29
 424 328 424 328 385.5 376.5 c 128,-1,30
 347 425 347 425 277 425 c 0,31,32
 208 425 208 425 169.5 377 c 128,-1,33
 131 329 131 329 131 247 c 0,34,35
 131 166 131 166 168.5 117.5 c 128,-1,36
 206 69 206 69 277 69 c 256,37,26
 348 69 348 69 386 118 c 128,-1,27
EndSplineSet
EndChar

StartChar: Eogonek
Encoding: 280 280 208
Width: 625
GlyphClass: 2
Flags: W
AnchorPoint: "Anchor-4" 335 697 basechar 0
AnchorPoint: "Anchor-3" 565 0 basechar 0
AnchorPoint: "Anchor-2" 335 0 basechar 0
LayerCount: 2
Fore
SplineSet
607 -167 m 1,0,1
 566 -217 566 -217 509 -217 c 0,2,3
 466 -217 466 -217 438.5 -192.5 c 128,-1,4
 411 -168 411 -168 411 -127 c 0,5,6
 411 -87 411 -87 436 -54 c 128,-1,7
 461 -21 461 -21 495 0 c 1,8,-1
 105 0 l 1,9,-1
 105 697 l 1,10,-1
 565 697 l 1,11,-1
 565 615 l 1,12,-1
 194 615 l 1,13,-1
 194 397 l 1,14,-1
 531 397 l 1,15,-1
 531 315 l 1,16,-1
 194 315 l 1,17,-1
 194 82 l 1,18,-1
 565 82 l 1,19,-1
 565 0 l 1,20,21
 525 -22 525 -22 494 -50 c 128,-1,22
 463 -78 463 -78 463 -119 c 0,23,24
 463 -141 463 -141 475.5 -151.5 c 128,-1,25
 488 -162 488 -162 506 -162 c 0,26,27
 537 -162 537 -162 564 -135 c 1,28,-1
 607 -167 l 1,0,1
EndSplineSet
EndChar

StartChar: eogonek
Encoding: 281 281 209
Width: 528
GlyphClass: 2
Flags: W
AnchorPoint: "Anchor-4" 269 493 basechar 0
AnchorPoint: "Anchor-3" 374 9 basechar 0
AnchorPoint: "Anchor-2" 276 0 basechar 0
LayerCount: 2
Fore
SplineSet
483 221 m 1,1,-1
 130 221 l 1,2,3
 132 150 132 150 170.5 110 c 128,-1,4
 209 70 209 70 277 70 c 0,5,6
 317 70 317 70 349 83.5 c 128,-1,7
 381 97 381 97 411 129 c 1,8,-1
 470 76 l 1,9,10
 422 25 422 25 368 6 c 1,11,12
 330 -16 330 -16 301 -43.5 c 128,-1,13
 272 -71 272 -71 272 -110 c 0,14,15
 272 -132 272 -132 284.5 -142.5 c 128,-1,16
 297 -153 297 -153 315 -153 c 0,17,18
 346 -153 346 -153 373 -126 c 1,19,-1
 416 -158 l 1,20,21
 375 -208 375 -208 318 -208 c 0,22,23
 275 -208 275 -208 247.5 -183.5 c 128,-1,24
 220 -159 220 -159 220 -118 c 0,25,26
 220 -86 220 -86 236.5 -58 c 128,-1,27
 253 -30 253 -30 279 -9 c 1,28,-1
 276 -9 l 2,29,30
 200 -9 200 -9 148 25 c 128,-1,31
 96 59 96 59 70 116 c 128,-1,32
 44 173 44 173 44 244 c 0,33,34
 44 314 44 314 69.5 373 c 128,-1,35
 95 432 95 432 145.5 467 c 128,-1,36
 196 502 196 502 268 502 c 256,37,38
 340 502 340 502 389 469 c 128,-1,39
 438 436 438 436 462 382 c 128,-1,40
 486 328 486 328 486 265 c 0,41,0
 486 241 486 241 483 221 c 1,1,-1
404 291 m 2,42,43
 403 293 403 293 403 300 c 0,44,45
 401 358 401 358 364.5 394 c 128,-1,46
 328 430 328 430 267 430 c 0,47,48
 207 430 207 430 171 390 c 128,-1,49
 135 350 135 350 130 291 c 1,50,-1
 404 291 l 2,42,43
EndSplineSet
EndChar

StartChar: Hbar
Encoding: 294 294 218
Width: 732
GlyphClass: 2
Flags: W
AnchorPoint: "Anchor-5" 366 547 basechar 0
AnchorPoint: "Anchor-4" 367 697 basechar 0
AnchorPoint: "Anchor-2" 367 201 basechar 0
LayerCount: 2
Fore
SplineSet
687 521 m 1,0,-1
 627 521 l 1,1,-1
 627 0 l 1,2,-1
 537 0 l 1,3,-1
 537 315 l 1,4,-1
 194 315 l 1,5,-1
 194 0 l 1,6,-1
 105 0 l 1,7,-1
 105 521 l 1,8,-1
 45 521 l 1,9,-1
 45 573 l 1,10,-1
 105 573 l 1,11,-1
 105 697 l 1,12,-1
 194 697 l 1,13,-1
 194 573 l 1,14,-1
 537 573 l 1,15,-1
 537 697 l 1,16,-1
 627 697 l 1,17,-1
 627 573 l 1,18,-1
 687 573 l 1,19,-1
 687 521 l 1,0,-1
537 521 m 1,20,-1
 194 521 l 1,21,-1
 194 398 l 1,22,-1
 537 398 l 1,23,-1
 537 521 l 1,20,-1
EndSplineSet
EndChar

StartChar: hbar
Encoding: 295 295 219
Width: 566
GlyphClass: 2
Flags: W
AnchorPoint: "Anchor-5" 184 608 basechar 0
AnchorPoint: "Anchor-4" 128 697 basechar 0
AnchorPoint: "Anchor-2" 292 0 basechar 0
LayerCount: 2
Fore
SplineSet
451.5 452 m 128,-1,1
 494 402 494 402 494 307 c 2,2,-1
 494 0 l 1,3,-1
 408 0 l 1,4,-1
 408 286 l 2,5,6
 408 358 408 358 383 392 c 128,-1,7
 358 426 358 426 306 426 c 0,8,9
 239 426 239 426 204.5 373 c 128,-1,10
 170 320 170 320 170 217 c 2,11,-1
 170 0 l 1,12,-1
 84 0 l 1,13,-1
 84 579 l 1,14,-1
 40 579 l 1,15,-1
 40 637 l 1,16,-1
 84 637 l 1,17,-1
 84 697 l 1,18,-1
 170 697 l 1,19,-1
 170 637 l 1,20,-1
 328 637 l 1,21,-1
 328 579 l 1,22,-1
 170 579 l 1,23,-1
 170 426 l 1,24,25
 195 462 195 462 236.5 482 c 128,-1,26
 278 502 278 502 329 502 c 0,27,0
 409 502 409 502 451.5 452 c 128,-1,1
EndSplineSet
EndChar

StartChar: Iogonek
Encoding: 302 302 224
Width: 300
GlyphClass: 2
Flags: W
AnchorPoint: "Anchor-4" 150 697 basechar 0
AnchorPoint: "Anchor-3" 194 0 basechar 0
AnchorPoint: "Anchor-2" 150 0 basechar 0
LayerCount: 2
Fore
SplineSet
236 -167 m 1,0,1
 195 -217 195 -217 138 -217 c 0,2,3
 95 -217 95 -217 67.5 -192.5 c 128,-1,4
 40 -168 40 -168 40 -127 c 0,5,6
 40 -87 40 -87 65 -54 c 128,-1,7
 90 -21 90 -21 124 0 c 1,8,-1
 105 0 l 1,9,-1
 105 697 l 1,10,-1
 194 697 l 1,11,-1
 194 0 l 1,12,13
 154 -22 154 -22 123 -50 c 128,-1,14
 92 -78 92 -78 92 -119 c 0,15,16
 92 -141 92 -141 104.5 -151.5 c 128,-1,17
 117 -162 117 -162 135 -162 c 0,18,19
 166 -162 166 -162 193 -135 c 1,20,-1
 236 -167 l 1,0,1
EndSplineSet
EndChar

StartChar: iogonek
Encoding: 303 303 225
Width: 254
GlyphClass: 2
Flags: W
AnchorPoint: "Anchor-4" 127 697 basechar 0
AnchorPoint: "Anchor-3" 170 0 basechar 0
AnchorPoint: "Anchor-2" 127 0 basechar 0
LayerCount: 2
Fore
SplineSet
175 592 m 1,0,-1
 79 592 l 1,1,-1
 79 697 l 1,2,-1
 175 697 l 1,3,-1
 175 592 l 1,0,-1
212 -167 m 1,4,5
 171 -217 171 -217 114 -217 c 0,6,7
 71 -217 71 -217 43.5 -192.5 c 128,-1,8
 16 -168 16 -168 16 -127 c 0,9,10
 16 -87 16 -87 41 -54 c 128,-1,11
 66 -21 66 -21 100 0 c 1,12,-1
 84 0 l 1,13,-1
 84 493 l 1,14,-1
 170 493 l 1,15,-1
 170 0 l 1,16,17
 130 -22 130 -22 99 -50 c 128,-1,18
 68 -78 68 -78 68 -119 c 0,19,20
 68 -141 68 -141 80.5 -151.5 c 128,-1,21
 93 -162 93 -162 111 -162 c 0,22,23
 142 -162 142 -162 169 -135 c 1,24,-1
 212 -167 l 1,4,5
EndSplineSet
EndChar

StartChar: dotlessi
Encoding: 305 305 227
Width: 254
GlyphClass: 2
Flags: W
AnchorPoint: "Anchor-4" 127 493 basechar 0
AnchorPoint: "Anchor-3" 170 0 basechar 0
AnchorPoint: "Anchor-2" 127 0 basechar 0
LayerCount: 2
Fore
SplineSet
84 493 m 1,0,-1
 170 493 l 1,1,-1
 170 0 l 1,2,-1
 84 0 l 1,3,-1
 84 493 l 1,0,-1
EndSplineSet
EndChar

StartChar: kgreenlandic
Encoding: 312 312 230
Width: 546
GlyphClass: 2
Flags: W
AnchorPoint: "Anchor-4" 273 493 basechar 0
AnchorPoint: "Anchor-2" 273 0 basechar 0
LayerCount: 2
Fore
SplineSet
84 493 m 1,0,-1
 170 493 l 1,1,-1
 170 249 l 1,2,-1
 398 493 l 1,3,-1
 510 493 l 1,4,-1
 329 306 l 1,5,-1
 536 0 l 1,6,-1
 433 0 l 1,7,-1
 271 253 l 1,8,-1
 170 145 l 1,9,-1
 170 0 l 1,10,-1
 84 0 l 1,11,-1
 84 493 l 1,0,-1
EndSplineSet
EndChar

StartChar: Lslash
Encoding: 321 321 237
Width: 531
GlyphClass: 2
Flags: W
AnchorPoint: "Anchor-6" 411 493 basechar 0
AnchorPoint: "Anchor-5" 197 351 basechar 0
AnchorPoint: "Anchor-4" 150 697 basechar 0
AnchorPoint: "Anchor-2" 306 0 basechar 0
LayerCount: 2
Fore
SplineSet
506 82 m 1,0,-1
 506 0 l 1,1,-1
 105 0 l 1,2,-1
 105 235 l 1,3,-1
 50 191 l 1,4,-1
 50 280 l 1,5,-1
 105 323 l 1,6,-1
 105 697 l 1,7,-1
 194 697 l 1,8,-1
 194 394 l 1,9,-1
 344 512 l 1,10,-1
 344 424 l 1,11,-1
 194 305 l 1,12,-1
 194 82 l 1,13,-1
 506 82 l 1,0,-1
EndSplineSet
EndChar

StartChar: lslash
Encoding: 322 322 238
Width: 273
GlyphClass: 2
Flags: W
AnchorPoint: "Anchor-6" 284 493 basechar 0
AnchorPoint: "Anchor-5" 132 372 basechar 0
AnchorPoint: "Anchor-4" 122 697 basechar 0
AnchorPoint: "Anchor-2" 164 0 basechar 0
LayerCount: 2
Fore
SplineSet
252 5 m 1,0,1
 212 -9 212 -9 181 -9 c 0,2,3
 134 -9 134 -9 107 21.5 c 128,-1,4
 80 52 80 52 80 111 c 2,5,-1
 80 286 l 1,6,-1
 21 239 l 1,7,-1
 21 328 l 1,8,-1
 80 375 l 1,9,-1
 80 697 l 1,10,-1
 166 697 l 1,11,-1
 166 442 l 1,12,-1
 244 504 l 1,13,-1
 244 417 l 1,14,-1
 166 355 l 1,15,-1
 166 116 l 2,16,17
 166 68 166 68 207 68 c 0,18,19
 223 68 223 68 251 76 c 1,20,-1
 252 5 l 1,0,1
EndSplineSet
EndChar

StartChar: Eng
Encoding: 330 330 246
Width: 721
GlyphClass: 2
Flags: W
LayerCount: 2
Fore
SplineSet
616 697 m 1,0,-1
 616 -9 l 2,1,2
 616 -82 616 -82 578.5 -128.5 c 128,-1,3
 541 -175 541 -175 461 -175 c 0,4,5
 425 -175 425 -175 391 -165 c 1,6,-1
 392 -108 l 1,7,8
 420 -115 420 -115 439 -115 c 0,9,10
 485 -115 485 -115 508 -92.5 c 128,-1,11
 531 -70 531 -70 531 -37 c 0,12,13
 531 -17 531 -17 520 0 c 2,14,-1
 194 542 l 1,15,-1
 194 0 l 1,16,-1
 105 0 l 1,17,-1
 105 697 l 1,18,-1
 200 697 l 1,19,-1
 527 156 l 1,20,-1
 527 697 l 1,21,-1
 616 697 l 1,0,-1
EndSplineSet
EndChar

StartChar: eng
Encoding: 331 331 247
Width: 567
GlyphClass: 2
Flags: W
LayerCount: 2
Fore
SplineSet
452 451 m 128,-1,1
 494 400 494 400 494 307 c 2,2,-1
 494 -95 l 2,3,4
 494 -154 494 -154 467.5 -183.5 c 128,-1,5
 441 -213 441 -213 394 -213 c 0,6,7
 361 -213 361 -213 321 -199 c 1,8,-1
 322 -130 l 1,9,10
 348 -137 348 -137 365 -137 c 0,11,12
 408 -137 408 -137 408 -89 c 2,13,-1
 408 286 l 2,14,15
 408 349 408 349 387.5 387.5 c 128,-1,16
 367 426 367 426 305 426 c 0,17,18
 233 426 233 426 201.5 369 c 128,-1,19
 170 312 170 312 170 217 c 2,20,-1
 170 0 l 1,21,-1
 84 0 l 1,22,-1
 84 493 l 1,23,-1
 170 493 l 1,24,-1
 170 426 l 1,25,26
 195 464 195 464 237 483 c 128,-1,27
 279 502 279 502 328 502 c 0,28,0
 410 502 410 502 452 451 c 128,-1,1
EndSplineSet
EndChar

StartChar: OE
Encoding: 338 338 252
Width: 1136
GlyphClass: 2
Flags: W
AnchorPoint: "Anchor-6" 701 493 basechar 0
AnchorPoint: "Anchor-5" 381 349 basechar 0
AnchorPoint: "Anchor-4" 846 697 basechar 0
AnchorPoint: "Anchor-3" 1076 0 basechar 0
AnchorPoint: "Anchor-2" 846 0 basechar 0
LayerCount: 2
Fore
SplineSet
706 615 m 1,0,-1
 706 397 l 1,1,-1
 1042 397 l 1,2,-1
 1042 315 l 1,3,-1
 706 315 l 1,4,-1
 706 82 l 1,5,-1
 1076 82 l 1,6,-1
 1076 0 l 1,7,-1
 617 0 l 1,8,-1
 617 88 l 1,9,10
 574 40 574 40 513.5 14 c 128,-1,11
 453 -12 453 -12 381 -12 c 0,12,13
 285 -12 285 -12 212 33 c 128,-1,14
 139 78 139 78 98.5 159.5 c 128,-1,15
 58 241 58 241 58 348 c 256,16,17
 58 455 58 455 98.5 537 c 128,-1,18
 139 619 139 619 212 664 c 128,-1,19
 285 709 285 709 381 709 c 0,20,21
 454 709 454 709 514 683 c 128,-1,22
 574 657 574 657 617 608 c 1,23,-1
 617 697 l 1,24,-1
 1076 697 l 1,25,-1
 1076 615 l 1,26,-1
 706 615 l 1,0,-1
505 106.5 m 128,-1,28
 558 140 558 140 587 202.5 c 128,-1,29
 616 265 616 265 616 348 c 0,30,31
 616 432 616 432 587 494 c 128,-1,32
 558 556 558 556 505 590 c 128,-1,33
 452 624 452 624 381 624 c 256,34,35
 310 624 310 624 257 590.5 c 128,-1,36
 204 557 204 557 175.5 494.5 c 128,-1,37
 147 432 147 432 147 348 c 0,38,39
 147 265 147 265 175.5 202.5 c 128,-1,40
 204 140 204 140 257 106.5 c 128,-1,41
 310 73 310 73 381 73 c 256,42,27
 452 73 452 73 505 106.5 c 128,-1,28
EndSplineSet
EndChar

StartChar: oe
Encoding: 339 339 253
Width: 923
GlyphClass: 2
Flags: W
AnchorPoint: "Anchor-6" 529 355 basechar 0
AnchorPoint: "Anchor-5" 280 247 basechar 0
AnchorPoint: "Anchor-4" 463 493 basechar 0
AnchorPoint: "Anchor-3" 769 9 basechar 0
AnchorPoint: "Anchor-2" 463 0 basechar 0
LayerCount: 2
Fore
SplineSet
878 221 m 1,1,-1
 525 221 l 1,2,3
 527 150 527 150 565.5 110 c 128,-1,4
 604 70 604 70 672 70 c 0,5,6
 712 70 712 70 744 83.5 c 128,-1,7
 776 97 776 97 806 129 c 1,8,-1
 865 76 l 1,9,10
 823 31 823 31 776.5 11 c 128,-1,11
 730 -9 730 -9 671 -9 c 0,12,13
 604 -9 604 -9 555 18 c 128,-1,14
 506 45 506 45 477 93 c 1,15,16
 445 45 445 45 394 18 c 128,-1,17
 343 -9 343 -9 280 -9 c 0,18,19
 209 -9 209 -9 154.5 24.5 c 128,-1,20
 100 58 100 58 70.5 116.5 c 128,-1,21
 41 175 41 175 41 247 c 256,22,23
 41 319 41 319 70.5 377 c 128,-1,24
 100 435 100 435 154.5 468.5 c 128,-1,25
 209 502 209 502 280 502 c 0,26,27
 343 502 343 502 394.5 474.5 c 128,-1,28
 446 447 446 447 478 399 c 1,29,30
 506 447 506 447 553 474.5 c 128,-1,31
 600 502 600 502 663 502 c 0,32,33
 735 502 735 502 784 469 c 128,-1,34
 833 436 833 436 857 382 c 128,-1,35
 881 328 881 328 881 265 c 0,36,0
 881 241 881 241 878 221 c 1,1,-1
799 291 m 2,37,38
 798 293 798 293 798 300 c 0,39,40
 796 358 796 358 759.5 394 c 128,-1,41
 723 430 723 430 662 430 c 0,42,43
 602 430 602 430 566 390 c 128,-1,44
 530 350 530 350 525 291 c 1,45,-1
 799 291 l 2,37,38
394 118 m 128,-1,47
 435 169 435 169 435 247 c 0,48,49
 435 326 435 326 394.5 376 c 128,-1,50
 354 426 354 426 280 426 c 0,51,52
 207 426 207 426 167 376 c 128,-1,53
 127 326 127 326 127 247 c 256,54,55
 127 168 127 168 167 117.5 c 128,-1,56
 207 67 207 67 280 67 c 256,57,46
 353 67 353 67 394 118 c 128,-1,47
EndSplineSet
EndChar

StartChar: Scedilla
Encoding: 350 350 262
Width: 569
GlyphClass: 2
Flags: W
AnchorPoint: "Anchor-2" 279 -256 basechar 0
LayerCount: 2
Fore
SplineSet
464 46 m 128,-1,1
 405 -8 405 -8 303 -11 c 1,2,-1
 271 -59 l 1,3,4
 306 -65 306 -65 330 -76 c 0,5,6
 380 -99 380 -99 380 -153 c 0,7,8
 380 -198 380 -198 350 -227 c 128,-1,9
 320 -256 320 -256 273 -256 c 0,10,11
 251 -256 251 -256 227 -245.5 c 128,-1,12
 203 -235 203 -235 185 -214 c 1,13,-1
 215 -173 l 1,14,15
 227 -189 227 -189 243.5 -197 c 128,-1,16
 260 -205 260 -205 276 -205 c 0,17,18
 300 -205 300 -205 314 -191.5 c 128,-1,19
 328 -178 328 -178 328 -155 c 0,20,21
 328 -114 328 -114 274 -101 c 0,22,23
 250 -95 250 -95 202 -95 c 1,24,-1
 253 -9 l 1,25,26
 168 2 168 2 110.5 54.5 c 128,-1,27
 53 107 53 107 40 188 c 1,28,-1
 128 210 l 1,29,30
 137 144 137 144 181.5 106.5 c 128,-1,31
 226 69 226 69 293 69 c 256,32,33
 360 69 360 69 396.5 100 c 128,-1,34
 433 131 433 131 433 181 c 0,35,36
 433 230 433 230 398.5 262 c 128,-1,37
 364 294 364 294 276 328 c 0,38,39
 203 356 203 356 161.5 384 c 128,-1,40
 120 412 120 412 101.5 446 c 128,-1,41
 83 480 83 480 83 528 c 0,42,43
 83 581 83 581 109 622.5 c 128,-1,44
 135 664 135 664 181.5 686.5 c 128,-1,45
 228 709 228 709 288 709 c 0,46,47
 355 709 355 709 407 679 c 128,-1,48
 459 649 459 649 491 591 c 1,49,-1
 416 545 l 1,50,51
 395 585 395 585 361 607 c 128,-1,52
 327 629 327 629 285 629 c 0,53,54
 237 629 237 629 204.5 600.5 c 128,-1,55
 172 572 172 572 172 531 c 0,56,57
 172 489 172 489 206 461 c 128,-1,58
 240 433 240 433 324 400 c 0,59,60
 401 371 401 371 444 341 c 128,-1,61
 487 311 487 311 505 275 c 128,-1,62
 523 239 523 239 523 189 c 0,63,0
 523 100 523 100 464 46 c 128,-1,1
EndSplineSet
Substitution2: "'locl' Localized Forms in Latin lookup 6 subtable" uni0218
Substitution2: "'locl' Localized Forms in Latin lookup 5 subtable" uni0218
Substitution2: "'aalt' Access All Alternates lookup 0 subtable" uni0218
EndChar

StartChar: scedilla
Encoding: 351 351 263
Width: 460
GlyphClass: 2
Flags: W
AnchorPoint: "Anchor-2" 227 -256 basechar 0
LayerCount: 2
Fore
SplineSet
370 36 m 128,-1,1
 323 -4 323 -4 252 -8 c 1,2,-1
 219 -59 l 1,3,4
 254 -65 254 -65 278 -76 c 0,5,6
 328 -99 328 -99 328 -153 c 0,7,8
 328 -198 328 -198 298 -227 c 128,-1,9
 268 -256 268 -256 221 -256 c 0,10,11
 199 -256 199 -256 175 -245.5 c 128,-1,12
 151 -235 151 -235 133 -214 c 1,13,-1
 163 -173 l 1,14,15
 175 -189 175 -189 191.5 -197 c 128,-1,16
 208 -205 208 -205 224 -205 c 0,17,18
 248 -205 248 -205 262 -191.5 c 128,-1,19
 276 -178 276 -178 276 -155 c 0,20,21
 276 -114 276 -114 222 -101 c 0,22,23
 198 -95 198 -95 150 -95 c 1,24,-1
 202 -7 l 1,25,26
 140 1 140 1 94 36.5 c 128,-1,27
 48 72 48 72 31 123 c 1,28,-1
 102 155 l 1,29,30
 115 116 115 116 148 90.5 c 128,-1,31
 181 65 181 65 232 65 c 0,32,33
 279 65 279 65 305.5 86.5 c 128,-1,34
 332 108 332 108 332 141 c 0,35,36
 332 165 332 165 317 180 c 128,-1,37
 302 195 302 195 279.5 203 c 128,-1,38
 257 211 257 211 217 222 c 0,39,40
 166 235 166 235 134.5 248 c 128,-1,41
 103 261 103 261 80.5 288 c 128,-1,42
 58 315 58 315 58 361 c 0,43,44
 58 426 58 426 107 464 c 128,-1,45
 156 502 156 502 231 502 c 0,46,47
 292 502 292 502 339 475 c 128,-1,48
 386 448 386 448 412 397 c 1,49,-1
 344 360 l 1,50,51
 306 429 306 429 229 429 c 0,52,53
 189 429 189 429 165 413 c 128,-1,54
 141 397 141 397 141 370 c 0,55,56
 141 340 141 340 167.5 325.5 c 128,-1,57
 194 311 194 311 249 297 c 0,58,59
 302 282 302 282 335.5 268 c 128,-1,60
 369 254 369 254 393 224.5 c 128,-1,61
 417 195 417 195 417 146 c 0,62,0
 417 76 417 76 370 36 c 128,-1,1
EndSplineSet
Substitution2: "'locl' Localized Forms in Latin lookup 6 subtable" uni0219
Substitution2: "'locl' Localized Forms in Latin lookup 5 subtable" uni0219
Substitution2: "'aalt' Access All Alternates lookup 0 subtable" uni0219
EndChar

StartChar: uni0163
Encoding: 355 355 267
Width: 346
GlyphClass: 2
Flags: W
AnchorPoint: "Anchor-6" 324 580 basechar 0
AnchorPoint: "Anchor-5" 162 247 basechar 0
AnchorPoint: "Anchor-2" 199 -256 basechar 0
LayerCount: 2
Fore
SplineSet
187 423 m 1,0,-1
 187 132 l 2,1,2
 187 67 187 67 249 67 c 0,3,4
 273 67 273 67 308 78 c 1,5,-1
 308 5 l 1,6,7
 266 -9 266 -9 228 -9 c 2,8,-1
 224 -9 l 1,9,-1
 191 -59 l 1,10,11
 226 -65 226 -65 250 -76 c 0,12,13
 300 -99 300 -99 300 -153 c 0,14,15
 300 -198 300 -198 270 -227 c 128,-1,16
 240 -256 240 -256 193 -256 c 0,17,18
 171 -256 171 -256 147 -245.5 c 128,-1,19
 123 -235 123 -235 105 -214 c 1,20,-1
 135 -173 l 1,21,22
 147 -189 147 -189 163.5 -197 c 128,-1,23
 180 -205 180 -205 196 -205 c 0,24,25
 220 -205 220 -205 234 -191.5 c 128,-1,26
 248 -178 248 -178 248 -155 c 0,27,28
 248 -114 248 -114 194 -101 c 0,29,30
 170 -95 170 -95 122 -95 c 1,31,-1
 177 -1 l 1,32,33
 142 11 142 11 121.5 42 c 128,-1,34
 101 73 101 73 101 123 c 2,35,-1
 101 423 l 1,36,-1
 20 423 l 1,37,-1
 20 493 l 1,38,-1
 101 493 l 1,39,-1
 101 623 l 1,40,-1
 187 688 l 1,41,-1
 187 493 l 1,42,-1
 308 493 l 1,43,-1
 308 423 l 1,44,-1
 187 423 l 1,0,-1
EndSplineSet
Substitution2: "'locl' Localized Forms in Latin lookup 6 subtable" uni021B
Substitution2: "'locl' Localized Forms in Latin lookup 5 subtable" uni021B
Substitution2: "'aalt' Access All Alternates lookup 0 subtable" uni021B
EndChar

StartChar: Tbar
Encoding: 358 358 270
Width: 608
GlyphClass: 2
Flags: W
AnchorPoint: "Anchor-5" 304 349 basechar 0
AnchorPoint: "Anchor-4" 304 697 basechar 0
AnchorPoint: "Anchor-2" 304 0 basechar 0
LayerCount: 2
Fore
SplineSet
349 615 m 1,0,-1
 349 378 l 1,1,-1
 448 378 l 1,2,-1
 448 320 l 1,3,-1
 349 320 l 1,4,-1
 349 0 l 1,5,-1
 259 0 l 1,6,-1
 259 320 l 1,7,-1
 160 320 l 1,8,-1
 160 378 l 1,9,-1
 259 378 l 1,10,-1
 259 615 l 1,11,-1
 25 615 l 1,12,-1
 25 697 l 1,13,-1
 583 697 l 1,14,-1
 583 615 l 1,15,-1
 349 615 l 1,0,-1
EndSplineSet
EndChar

StartChar: tbar
Encoding: 359 359 271
Width: 346
GlyphClass: 2
Flags: W
AnchorPoint: "Anchor-6" 324 580 basechar 0
AnchorPoint: "Anchor-5" 162 247 basechar 0
AnchorPoint: "Anchor-4" 174 493 basechar 0
AnchorPoint: "Anchor-2" 205 0 basechar 0
LayerCount: 2
Fore
SplineSet
187 423 m 1,0,-1
 187 276 l 1,1,-1
 306 276 l 1,2,-1
 306 218 l 1,3,-1
 187 218 l 1,4,-1
 187 132 l 2,5,6
 187 67 187 67 249 67 c 0,7,8
 273 67 273 67 308 78 c 1,9,-1
 308 5 l 1,10,11
 266 -9 266 -9 228 -9 c 0,12,13
 171 -9 171 -9 136 24 c 128,-1,14
 101 57 101 57 101 123 c 2,15,-1
 101 218 l 1,16,-1
 18 218 l 1,17,-1
 18 276 l 1,18,-1
 101 276 l 1,19,-1
 101 423 l 1,20,-1
 20 423 l 1,21,-1
 20 493 l 1,22,-1
 101 493 l 1,23,-1
 101 623 l 1,24,-1
 187 688 l 1,25,-1
 187 493 l 1,26,-1
 308 493 l 1,27,-1
 308 423 l 1,28,-1
 187 423 l 1,0,-1
EndSplineSet
EndChar

StartChar: Uogonek
Encoding: 370 370 280
Width: 693
GlyphClass: 2
Flags: W
AnchorPoint: "Anchor-6" 667 493 basechar 0
AnchorPoint: "Anchor-4" 347 697 basechar 0
AnchorPoint: "Anchor-3" 422 0 basechar 0
AnchorPoint: "Anchor-2" 347 0 basechar 0
LayerCount: 2
Fore
SplineSet
602 697 m 1,0,-1
 602 257 l 2,1,2
 602 143 602 143 553.5 76.5 c 128,-1,3
 505 10 505 10 410 -7 c 1,4,5
 320 -59 320 -59 320 -119 c 0,6,7
 320 -141 320 -141 332.5 -151.5 c 128,-1,8
 345 -162 345 -162 363 -162 c 0,9,10
 394 -162 394 -162 421 -135 c 1,11,-1
 464 -167 l 1,12,13
 423 -217 423 -217 366 -217 c 0,14,15
 323 -217 323 -217 295.5 -192.5 c 128,-1,16
 268 -168 268 -168 268 -127 c 0,17,18
 268 -92 268 -92 287 -62.5 c 128,-1,19
 306 -33 306 -33 335 -12 c 1,20,21
 216 -9 216 -9 153.5 58 c 128,-1,22
 91 125 91 125 91 252 c 2,23,-1
 91 697 l 1,24,-1
 180 697 l 1,25,-1
 180 261 l 2,26,27
 180 164 180 164 220 119.5 c 128,-1,28
 260 75 260 75 346 75 c 0,29,30
 433 75 433 75 473 120 c 128,-1,31
 513 165 513 165 513 263 c 2,32,-1
 513 697 l 1,33,-1
 602 697 l 1,0,-1
EndSplineSet
EndChar

StartChar: uogonek
Encoding: 371 371 281
Width: 566
GlyphClass: 2
Flags: W
AnchorPoint: "Anchor-6" 496 432 basechar 0
AnchorPoint: "Anchor-4" 276 493 basechar 0
AnchorPoint: "Anchor-3" 482 0 basechar 0
AnchorPoint: "Anchor-2" 282 0 basechar 0
LayerCount: 2
Fore
SplineSet
524 -167 m 1,0,1
 483 -217 483 -217 426 -217 c 0,2,3
 383 -217 383 -217 355.5 -192.5 c 128,-1,4
 328 -168 328 -168 328 -127 c 0,5,6
 328 -87 328 -87 353 -54 c 128,-1,7
 378 -21 378 -21 412 0 c 1,8,-1
 396 0 l 1,9,-1
 396 67 l 1,10,11
 371 29 371 29 329 10 c 128,-1,12
 287 -9 287 -9 238 -9 c 0,13,14
 154 -9 154 -9 113 44.5 c 128,-1,15
 72 98 72 98 72 189 c 2,16,-1
 72 493 l 1,17,-1
 158 493 l 1,18,-1
 158 210 l 2,19,20
 158 147 158 147 178 107 c 128,-1,21
 198 67 198 67 260 67 c 0,22,23
 332 67 332 67 364 125.5 c 128,-1,24
 396 184 396 184 396 279 c 2,25,-1
 396 493 l 1,26,-1
 482 493 l 1,27,-1
 482 0 l 1,28,29
 442 -22 442 -22 411 -50 c 128,-1,30
 380 -78 380 -78 380 -119 c 0,31,32
 380 -141 380 -141 392.5 -151.5 c 128,-1,33
 405 -162 405 -162 423 -162 c 0,34,35
 454 -162 454 -162 481 -135 c 1,36,-1
 524 -167 l 1,0,1
EndSplineSet
EndChar

StartChar: florin
Encoding: 402 402 293
Width: 493
GlyphClass: 2
Flags: W
LayerCount: 2
Fore
SplineSet
54 -155 m 1,0,1
 108 -155 108 -155 138 -140 c 128,-1,2
 168 -125 168 -125 180 -94 c 128,-1,3
 192 -63 192 -63 192 -11 c 2,4,-1
 192 428 l 1,5,-1
 106 428 l 1,6,-1
 106 493 l 1,7,-1
 192 493 l 1,8,-1
 192 556 l 2,9,10
 192 624 192 624 231 667 c 128,-1,11
 270 710 270 710 329 710 c 0,12,13
 389 710 389 710 442 664 c 1,14,-1
 396 608 l 1,15,16
 377 624 377 624 362 631 c 128,-1,17
 347 638 347 638 329 638 c 0,18,19
 301 638 301 638 283 617 c 128,-1,20
 265 596 265 596 265 556 c 2,21,-1
 265 493 l 1,22,-1
 391 493 l 1,23,-1
 391 428 l 1,24,-1
 265 428 l 1,25,-1
 265 -18 l 2,26,27
 265 -121 265 -121 212 -170.5 c 128,-1,28
 159 -220 159 -220 54 -220 c 1,29,-1
 54 -155 l 1,0,1
EndSplineSet
EndChar

StartChar: Ohorn
Encoding: 416 416 294
Width: 763
GlyphClass: 2
Flags: W
AnchorPoint: "Anchor-6" 701 493 basechar 0
AnchorPoint: "Anchor-5" 381 349 basechar 0
AnchorPoint: "Anchor-4" 381 697 basechar 0
AnchorPoint: "Anchor-3" 455 0 basechar 0
AnchorPoint: "Anchor-2" 381 0 basechar 0
LayerCount: 2
Fore
SplineSet
773 697 m 1,0,-1
 773 652 l 2,1,2
 773 594 773 594 750 555 c 128,-1,3
 727 516 727 516 679 502 c 1,4,5
 705 433 705 433 705 348 c 0,6,7
 705 241 705 241 664.5 159.5 c 128,-1,8
 624 78 624 78 550.5 33 c 128,-1,9
 477 -12 477 -12 381 -12 c 256,10,11
 285 -12 285 -12 212 33 c 128,-1,12
 139 78 139 78 98.5 159.5 c 128,-1,13
 58 241 58 241 58 348 c 256,14,15
 58 455 58 455 98.5 537 c 128,-1,16
 139 619 139 619 212 664 c 128,-1,17
 285 709 285 709 381 709 c 0,18,19
 471 709 471 709 541.5 669 c 128,-1,20
 612 629 612 629 654 556 c 1,21,22
 683 564 683 564 695.5 588 c 128,-1,23
 708 612 708 612 708 645 c 2,24,-1
 708 697 l 1,25,-1
 773 697 l 1,0,-1
505 106.5 m 128,-1,27
 558 140 558 140 587 202.5 c 128,-1,28
 616 265 616 265 616 348 c 0,29,30
 616 432 616 432 587 494 c 128,-1,31
 558 556 558 556 505 590 c 128,-1,32
 452 624 452 624 381 624 c 256,33,34
 310 624 310 624 257 590.5 c 128,-1,35
 204 557 204 557 175.5 494.5 c 128,-1,36
 147 432 147 432 147 348 c 0,37,38
 147 265 147 265 175.5 202.5 c 128,-1,39
 204 140 204 140 257 106.5 c 128,-1,40
 310 73 310 73 381 73 c 256,41,26
 452 73 452 73 505 106.5 c 128,-1,27
EndSplineSet
EndChar

StartChar: ohorn
Encoding: 417 417 295
Width: 561
GlyphClass: 2
Flags: W
AnchorPoint: "Anchor-6" 528 355 basechar 0
AnchorPoint: "Anchor-5" 280 247 basechar 0
AnchorPoint: "Anchor-4" 280 493 basechar 0
AnchorPoint: "Anchor-3" 345 0 basechar 0
AnchorPoint: "Anchor-2" 280 0 basechar 0
LayerCount: 2
Fore
SplineSet
600 559 m 1,0,-1
 600 514 l 2,1,2
 600 453 600 453 575 413.5 c 128,-1,3
 550 374 550 374 498 362 c 1,4,5
 521 310 521 310 521 247 c 0,6,7
 521 176 521 176 491 117.5 c 128,-1,8
 461 59 461 59 406 25 c 128,-1,9
 351 -9 351 -9 280 -9 c 256,10,11
 209 -9 209 -9 154.5 24.5 c 128,-1,12
 100 58 100 58 70.5 116.5 c 128,-1,13
 41 175 41 175 41 247 c 256,14,15
 41 319 41 319 70.5 377 c 128,-1,16
 100 435 100 435 154.5 468.5 c 128,-1,17
 209 502 209 502 280 502 c 0,18,19
 338 502 338 502 385.5 479 c 128,-1,20
 433 456 433 456 466 415 c 1,21,22
 502 418 502 418 518.5 443.5 c 128,-1,23
 535 469 535 469 535 507 c 2,24,-1
 535 559 l 1,25,-1
 600 559 l 1,0,-1
394 118 m 128,-1,27
 435 169 435 169 435 247 c 0,28,29
 435 326 435 326 394.5 376 c 128,-1,30
 354 426 354 426 280 426 c 0,31,32
 207 426 207 426 167 376 c 128,-1,33
 127 326 127 326 127 247 c 256,34,35
 127 168 127 168 167 117.5 c 128,-1,36
 207 67 207 67 280 67 c 256,37,26
 353 67 353 67 394 118 c 128,-1,27
EndSplineSet
EndChar

StartChar: Uhorn
Encoding: 431 431 296
Width: 693
GlyphClass: 2
Flags: W
AnchorPoint: "Anchor-6" 667 493 basechar 0
AnchorPoint: "Anchor-4" 347 697 basechar 0
AnchorPoint: "Anchor-3" 422 0 basechar 0
AnchorPoint: "Anchor-2" 347 0 basechar 0
LayerCount: 2
Fore
SplineSet
739 697 m 1,0,-1
 739 652 l 2,1,2
 739 582 739 582 705.5 540 c 128,-1,3
 672 498 672 498 602 496 c 1,4,-1
 602 257 l 2,5,6
 602 125 602 125 537 56.5 c 128,-1,7
 472 -12 472 -12 346 -12 c 0,8,9
 221 -12 221 -12 156 55 c 128,-1,10
 91 122 91 122 91 252 c 2,11,-1
 91 697 l 1,12,-1
 180 697 l 1,13,-1
 180 261 l 2,14,15
 180 164 180 164 220 119.5 c 128,-1,16
 260 75 260 75 346 75 c 0,17,18
 433 75 433 75 473 120 c 128,-1,19
 513 165 513 165 513 263 c 2,20,-1
 513 697 l 1,21,-1
 602 697 l 1,22,-1
 602 553 l 1,23,24
 640 556 640 556 657 581.5 c 128,-1,25
 674 607 674 607 674 645 c 2,26,-1
 674 697 l 1,27,-1
 739 697 l 1,0,-1
EndSplineSet
EndChar

StartChar: uhorn
Encoding: 432 432 297
Width: 566
GlyphClass: 2
Flags: W
AnchorPoint: "Anchor-6" 495 432 basechar 0
AnchorPoint: "Anchor-4" 276 493 basechar 0
AnchorPoint: "Anchor-3" 482 0 basechar 0
AnchorPoint: "Anchor-2" 282 0 basechar 0
LayerCount: 2
Fore
SplineSet
567 636 m 1,0,-1
 567 591 l 2,1,2
 567 535 567 535 546 497 c 128,-1,3
 525 459 525 459 482 444 c 1,4,-1
 482 0 l 1,5,-1
 396 0 l 1,6,-1
 396 67 l 1,7,8
 371 29 371 29 329 10 c 128,-1,9
 287 -9 287 -9 238 -9 c 0,10,11
 154 -9 154 -9 113 44.5 c 128,-1,12
 72 98 72 98 72 189 c 2,13,-1
 72 493 l 1,14,-1
 158 493 l 1,15,-1
 158 210 l 2,16,17
 158 147 158 147 178 107 c 128,-1,18
 198 67 198 67 260 67 c 0,19,20
 332 67 332 67 364 125.5 c 128,-1,21
 396 184 396 184 396 279 c 2,22,-1
 396 493 l 1,23,-1
 438 493 l 1,24,25
 472 498 472 498 487 523 c 128,-1,26
 502 548 502 548 502 584 c 2,27,-1
 502 636 l 1,28,-1
 567 636 l 1,0,-1
EndSplineSet
EndChar

StartChar: uni0237
Encoding: 567 567 318
Width: 254
GlyphClass: 2
Flags: W
AnchorPoint: "Anchor-4" 127 493 basechar 0
AnchorPoint: "Anchor-2" 127 -254 basechar 0
LayerCount: 2
Fore
SplineSet
-3 -199 m 1,1,-1
 -2 -130 l 1,2,3
 20 -137 20 -137 41 -137 c 0,4,5
 84 -137 84 -137 84 -89 c 2,6,-1
 84 493 l 1,7,-1
 170 493 l 1,8,-1
 170 -95 l 2,9,10
 170 -154 170 -154 142.5 -183.5 c 128,-1,11
 115 -213 115 -213 68 -213 c 0,12,0
 37 -213 37 -213 -3 -199 c 1,1,-1
EndSplineSet
EndChar

StartChar: circumflex
Encoding: 710 710 319
Width: 344
GlyphClass: 2
Flags: W
LayerCount: 2
Fore
SplineSet
172 710 m 1,0,-1
 323 546 l 1,1,-1
 254 546 l 1,2,-1
 172 635 l 1,3,-1
 90 546 l 1,4,-1
 21 546 l 1,5,-1
 172 710 l 1,0,-1
EndSplineSet
EndChar

StartChar: caron
Encoding: 711 711 320
Width: 348
GlyphClass: 2
Flags: W
LayerCount: 2
Fore
SplineSet
23 697 m 1,0,-1
 92 697 l 1,1,-1
 174 611 l 1,2,-1
 256 697 l 1,3,-1
 325 697 l 1,4,-1
 174 540 l 1,5,-1
 23 697 l 1,0,-1
EndSplineSet
EndChar

StartChar: breve
Encoding: 728 728 321
Width: 418
GlyphClass: 2
Flags: W
LayerCount: 2
Fore
SplineSet
94.5 599 m 128,-1,1
 56 633 56 633 56 697 c 1,2,-1
 118 697 l 1,3,4
 118 658 118 658 142.5 637.5 c 128,-1,5
 167 617 167 617 209 617 c 0,6,7
 252 617 252 617 276 638 c 128,-1,8
 300 659 300 659 300 697 c 1,9,-1
 362 697 l 1,10,11
 362 631 362 631 323 598 c 128,-1,12
 284 565 284 565 209 565 c 0,13,0
 133 565 133 565 94.5 599 c 128,-1,1
EndSplineSet
EndChar

StartChar: dotaccent
Encoding: 729 729 322
Width: 258
GlyphClass: 2
Flags: W
LayerCount: 2
Fore
SplineSet
81 697 m 1,0,-1
 177 697 l 1,1,-1
 177 592 l 1,2,-1
 81 592 l 1,3,-1
 81 697 l 1,0,-1
EndSplineSet
EndChar

StartChar: ring
Encoding: 730 730 323
Width: 317
GlyphClass: 2
Flags: W
LayerCount: 2
Fore
SplineSet
86 565.5 m 128,-1,1
 56 596 56 596 56 638 c 0,2,3
 56 681 56 681 86 710.5 c 128,-1,4
 116 740 116 740 159 740 c 0,5,6
 201 740 201 740 231 710 c 128,-1,7
 261 680 261 680 261 638 c 0,8,9
 261 595 261 595 231.5 565 c 128,-1,10
 202 535 202 535 159 535 c 256,11,0
 116 535 116 535 86 565.5 c 128,-1,1
198 599 m 128,-1,13
 214 615 214 615 214 638 c 0,14,15
 214 662 214 662 198.5 677.5 c 128,-1,16
 183 693 183 693 159 693 c 256,17,18
 135 693 135 693 119.5 677 c 128,-1,19
 104 661 104 661 104 638 c 256,20,21
 104 615 104 615 119.5 599 c 128,-1,22
 135 583 135 583 159 583 c 0,23,12
 182 583 182 583 198 599 c 128,-1,13
EndSplineSet
EndChar

StartChar: ogonek
Encoding: 731 731 324
Width: 297
GlyphClass: 2
Flags: W
LayerCount: 2
Fore
SplineSet
81.5 -197 m 128,-1,1
 52 -171 52 -171 52 -127 c 0,2,3
 52 -93 52 -93 70.5 -65 c 128,-1,4
 89 -37 89 -37 113.5 -20 c 128,-1,5
 138 -3 138 -3 154 1 c 1,6,-1
 222 0 l 1,7,8
 199 -6 199 -6 171.5 -22.5 c 128,-1,9
 144 -39 144 -39 124.5 -63 c 128,-1,10
 105 -87 105 -87 105 -116 c 0,11,12
 105 -169 105 -169 156 -169 c 0,13,14
 195 -169 195 -169 220 -134 c 1,15,-1
 265 -165 l 1,16,17
 225 -223 225 -223 159 -223 c 0,18,0
 111 -223 111 -223 81.5 -197 c 128,-1,1
EndSplineSet
EndChar

StartChar: tilde
Encoding: 732 732 325
Width: 445
GlyphClass: 2
Flags: W
LayerCount: 2
Fore
SplineSet
240.5 577.5 m 128,-1,1
 222 590 222 590 203 614 c 0,2,3
 190 631 190 631 179.5 639 c 128,-1,4
 169 647 169 647 155 647 c 0,5,6
 135 647 135 647 123 627 c 128,-1,7
 111 607 111 607 111 572 c 1,8,-1
 61 572 l 1,9,10
 61 633 61 633 87 667 c 128,-1,11
 113 701 113 701 158 701 c 0,12,13
 185 701 185 701 202.5 689 c 128,-1,14
 220 677 220 677 239 654 c 0,15,16
 253 637 253 637 264.5 628.5 c 128,-1,17
 276 620 276 620 290 620 c 0,18,19
 308 620 308 620 319.5 641 c 128,-1,20
 331 662 331 662 331 697 c 1,21,-1
 383 697 l 1,22,23
 383 635 383 635 357.5 600 c 128,-1,24
 332 565 332 565 290 565 c 0,25,0
 259 565 259 565 240.5 577.5 c 128,-1,1
EndSplineSet
EndChar

StartChar: hungarumlaut
Encoding: 733 733 326
Width: 434
GlyphClass: 2
Flags: W
LayerCount: 2
Fore
SplineSet
140 697 m 1,0,-1
 218 697 l 1,1,-1
 95 541 l 1,2,-1
 31 541 l 1,3,-1
 140 697 l 1,0,-1
317 697 m 1,4,-1
 409 697 l 1,5,-1
 273 541 l 1,6,-1
 208 541 l 1,7,-1
 317 697 l 1,4,-1
EndSplineSet
EndChar

StartChar: uni02F5
Encoding: 757 757 327
Width: 553
GlyphClass: 2
Flags: W
LayerCount: 2
Fore
SplineSet
67 493 m 1,0,-1
 159 493 l 1,1,-1
 269 339 l 1,2,-1
 205 339 l 1,3,-1
 67 493 l 1,0,-1
276 493 m 1,4,-1
 368 493 l 1,5,-1
 481 339 l 1,6,-1
 416 339 l 1,7,-1
 276 493 l 1,4,-1
EndSplineSet
EndChar

StartChar: uni02F6
Encoding: 758 758 328
Width: 554
GlyphClass: 2
Flags: W
LayerCount: 2
Fore
SplineSet
185 493 m 1,0,-1
 277 493 l 1,1,-1
 138 339 l 1,2,-1
 73 339 l 1,3,-1
 185 493 l 1,0,-1
394 493 m 1,4,-1
 487 493 l 1,5,-1
 348 339 l 1,6,-1
 284 339 l 1,7,-1
 394 493 l 1,4,-1
EndSplineSet
EndChar

StartChar: gravecomb
Encoding: 768 768 329
Width: 0
GlyphClass: 4
Flags: W
AnchorPoint: "Anchor-10" -65 493 mark 0
AnchorPoint: "Anchor-8" -130 697 basemark 0
AnchorPoint: "Anchor-8" -65 493 mark 0
AnchorPoint: "Anchor-4" -65 493 mark 0
AnchorPoint: "Anchor-1" -65 493 mark 0
LayerCount: 2
Fore
SplineSet
-228 697 m 1,0,-1
 -136 697 l 1,1,-1
 -32 556 l 1,2,-1
 -98 556 l 1,3,-1
 -228 697 l 1,0,-1
EndSplineSet
EndChar

StartChar: acutecomb
Encoding: 769 769 330
Width: 0
GlyphClass: 4
Flags: W
AnchorPoint: "Anchor-10" -195 493 mark 0
AnchorPoint: "Anchor-8" -126 697 basemark 0
AnchorPoint: "Anchor-8" -195 493 mark 0
AnchorPoint: "Anchor-4" -195 493 mark 0
AnchorPoint: "Anchor-1" -195 493 mark 0
LayerCount: 2
Fore
SplineSet
-117 697 m 1,0,-1
 -25 697 l 1,1,-1
 -162 556 l 1,2,-1
 -226 556 l 1,3,-1
 -117 697 l 1,0,-1
EndSplineSet
EndChar

StartChar: uni0302
Encoding: 770 770 331
Width: 0
GlyphClass: 4
Flags: W
AnchorPoint: "Anchor-10" -172 493 mark 0
AnchorPoint: "Anchor-8" -172 682 basemark 0
AnchorPoint: "Anchor-8" -172 493 mark 0
AnchorPoint: "Anchor-4" -172 493 mark 0
AnchorPoint: "Anchor-1" -172 493 mark 0
LayerCount: 2
Fore
SplineSet
-172 710 m 1,0,-1
 -21 546 l 1,1,-1
 -90 546 l 1,2,-1
 -172 635 l 1,3,-1
 -254 546 l 1,4,-1
 -323 546 l 1,5,-1
 -172 710 l 1,0,-1
EndSplineSet
EndChar

StartChar: tildecomb
Encoding: 771 771 332
Width: 0
GlyphClass: 4
Flags: W
AnchorPoint: "Anchor-10" -223 493 mark 0
AnchorPoint: "Anchor-8" -223 701 basemark 0
AnchorPoint: "Anchor-8" -223 493 mark 0
AnchorPoint: "Anchor-4" -223 493 mark 0
AnchorPoint: "Anchor-1" -223 493 mark 0
LayerCount: 2
Fore
SplineSet
-204.5 577.5 m 128,-1,1
 -223 590 -223 590 -242 614 c 0,2,3
 -255 631 -255 631 -265.5 639 c 128,-1,4
 -276 647 -276 647 -290 647 c 0,5,6
 -310 647 -310 647 -322 627 c 128,-1,7
 -334 607 -334 607 -334 572 c 1,8,-1
 -384 572 l 1,9,10
 -384 633 -384 633 -358 667 c 128,-1,11
 -332 701 -332 701 -287 701 c 0,12,13
 -260 701 -260 701 -242.5 689 c 128,-1,14
 -225 677 -225 677 -206 654 c 0,15,16
 -192 637 -192 637 -180.5 628.5 c 128,-1,17
 -169 620 -169 620 -155 620 c 0,18,19
 -137 620 -137 620 -125.5 641 c 128,-1,20
 -114 662 -114 662 -114 697 c 1,21,-1
 -62 697 l 1,22,23
 -62 635 -62 635 -87.5 600 c 128,-1,24
 -113 565 -113 565 -155 565 c 0,25,0
 -186 565 -186 565 -204.5 577.5 c 128,-1,1
EndSplineSet
EndChar

StartChar: uni0304
Encoding: 772 772 333
Width: 0
GlyphClass: 4
Flags: W
AnchorPoint: "Anchor-10" -214 493 mark 0
AnchorPoint: "Anchor-8" -214 639 basemark 0
AnchorPoint: "Anchor-8" -214 493 mark 0
AnchorPoint: "Anchor-4" -214 493 mark 0
AnchorPoint: "Anchor-1" -214 493 mark 0
LayerCount: 2
Fore
SplineSet
-351 639 m 1,0,-1
 -79 639 l 1,1,-1
 -79 588 l 1,2,-1
 -351 588 l 1,3,-1
 -351 639 l 1,0,-1
EndSplineSet
EndChar

StartChar: uni0306
Encoding: 774 774 334
Width: 0
GlyphClass: 4
Flags: W
AnchorPoint: "Anchor-10" -209 493 mark 0
AnchorPoint: "Anchor-8" -209 697 basemark 0
AnchorPoint: "Anchor-8" -209 493 mark 0
AnchorPoint: "Anchor-4" -209 493 mark 0
AnchorPoint: "Anchor-1" -209 493 mark 0
LayerCount: 2
Fore
SplineSet
-323.5 599 m 128,-1,1
 -362 633 -362 633 -362 697 c 1,2,-1
 -300 697 l 1,3,4
 -300 658 -300 658 -275.5 637.5 c 128,-1,5
 -251 617 -251 617 -209 617 c 0,6,7
 -166 617 -166 617 -142 638 c 128,-1,8
 -118 659 -118 659 -118 697 c 1,9,-1
 -56 697 l 1,10,11
 -56 631 -56 631 -95 598 c 128,-1,12
 -134 565 -134 565 -209 565 c 0,13,0
 -285 565 -285 565 -323.5 599 c 128,-1,1
EndSplineSet
EndChar

StartChar: uni0307
Encoding: 775 775 335
Width: 0
GlyphClass: 4
Flags: W
AnchorPoint: "Anchor-10" -129 493 mark 0
AnchorPoint: "Anchor-8" -129 697 basemark 0
AnchorPoint: "Anchor-8" -129 493 mark 0
AnchorPoint: "Anchor-4" -129 493 mark 0
AnchorPoint: "Anchor-1" -129 493 mark 0
LayerCount: 2
Fore
SplineSet
-177 697 m 1,0,-1
 -81 697 l 1,1,-1
 -81 592 l 1,2,-1
 -177 592 l 1,3,-1
 -177 697 l 1,0,-1
EndSplineSet
EndChar

StartChar: uni0308
Encoding: 776 776 336
Width: 0
GlyphClass: 4
Flags: W
AnchorPoint: "Anchor-10" -217 493 mark 0
AnchorPoint: "Anchor-8" -217 697 basemark 0
AnchorPoint: "Anchor-8" -217 493 mark 0
AnchorPoint: "Anchor-4" -217 493 mark 0
AnchorPoint: "Anchor-1" -217 493 mark 0
LayerCount: 2
Fore
SplineSet
-354 697 m 1,0,-1
 -267 697 l 1,1,-1
 -267 592 l 1,2,-1
 -354 592 l 1,3,-1
 -354 697 l 1,0,-1
-169 697 m 1,4,-1
 -82 697 l 1,5,-1
 -82 592 l 1,6,-1
 -169 592 l 1,7,-1
 -169 697 l 1,4,-1
EndSplineSet
EndChar

StartChar: hookabovecomb
Encoding: 777 777 337
Width: 0
GlyphClass: 4
Flags: W
AnchorPoint: "Anchor-10" -165 493 mark 0
AnchorPoint: "Anchor-8" -134 718 basemark 0
AnchorPoint: "Anchor-8" -165 493 mark 0
AnchorPoint: "Anchor-4" -165 493 mark 0
AnchorPoint: "Anchor-1" -165 493 mark 0
LayerCount: 2
Fore
SplineSet
-186 574 m 1,0,1
 -149 580 -149 580 -130.5 589 c 128,-1,2
 -112 598 -112 598 -112 621 c 0,3,4
 -112 647 -112 647 -136.5 658 c 128,-1,5
 -161 669 -161 669 -198 669 c 2,6,-1
 -213 669 l 1,7,-1
 -213 718 l 1,8,-1
 -198 718 l 2,9,10
 -134 718 -134 718 -94.5 692.5 c 128,-1,11
 -55 667 -55 667 -55 620 c 0,12,13
 -55 589 -55 589 -72.5 571.5 c 128,-1,14
 -90 554 -90 554 -113.5 546 c 128,-1,15
 -137 538 -137 538 -173 532 c 1,16,-1
 -186 574 l 1,0,1
EndSplineSet
EndChar

StartChar: uni030A
Encoding: 778 778 338
Width: 0
GlyphClass: 4
Flags: W
AnchorPoint: "Anchor-10" -159 493 mark 0
AnchorPoint: "Anchor-8" -159 740 basemark 0
AnchorPoint: "Anchor-8" -159 493 mark 0
AnchorPoint: "Anchor-4" -159 493 mark 0
AnchorPoint: "Anchor-1" -159 493 mark 0
LayerCount: 2
Fore
SplineSet
-231 565.5 m 128,-1,1
 -261 596 -261 596 -261 638 c 0,2,3
 -261 681 -261 681 -231 710.5 c 128,-1,4
 -201 740 -201 740 -158 740 c 0,5,6
 -116 740 -116 740 -86 710 c 128,-1,7
 -56 680 -56 680 -56 638 c 0,8,9
 -56 595 -56 595 -85.5 565 c 128,-1,10
 -115 535 -115 535 -158 535 c 256,11,0
 -201 535 -201 535 -231 565.5 c 128,-1,1
-119 599 m 128,-1,13
 -103 615 -103 615 -103 638 c 0,14,15
 -103 662 -103 662 -118.5 677.5 c 128,-1,16
 -134 693 -134 693 -158 693 c 256,17,18
 -182 693 -182 693 -197.5 677 c 128,-1,19
 -213 661 -213 661 -213 638 c 256,20,21
 -213 615 -213 615 -197.5 599 c 128,-1,22
 -182 583 -182 583 -158 583 c 0,23,12
 -135 583 -135 583 -119 599 c 128,-1,13
EndSplineSet
Substitution2: "Single Substitution lookup 22 subtable" uni030A.case
Substitution2: "'case' Case-Sensitive Forms lookup 16 subtable" uni030A.case
Substitution2: "'aalt' Access All Alternates lookup 0 subtable" uni030A.case
EndChar

StartChar: uni030B
Encoding: 779 779 339
Width: 0
GlyphClass: 4
Flags: W
AnchorPoint: "Anchor-10" -282 493 mark 0
AnchorPoint: "Anchor-8" -214 697 basemark 0
AnchorPoint: "Anchor-8" -282 493 mark 0
AnchorPoint: "Anchor-4" -282 493 mark 0
AnchorPoint: "Anchor-1" -282 493 mark 0
LayerCount: 2
Fore
SplineSet
-294 697 m 1,0,-1
 -216 697 l 1,1,-1
 -339 541 l 1,2,-1
 -403 541 l 1,3,-1
 -294 697 l 1,0,-1
-117 697 m 1,4,-1
 -25 697 l 1,5,-1
 -161 541 l 1,6,-1
 -226 541 l 1,7,-1
 -117 697 l 1,4,-1
EndSplineSet
EndChar

StartChar: uni030C
Encoding: 780 780 340
Width: 0
GlyphClass: 4
Flags: W
AnchorPoint: "Anchor-10" -174 493 mark 0
AnchorPoint: "Anchor-8" -174 697 basemark 0
AnchorPoint: "Anchor-8" -174 493 mark 0
AnchorPoint: "Anchor-4" -174 493 mark 0
AnchorPoint: "Anchor-1" -174 493 mark 0
LayerCount: 2
Fore
SplineSet
-325 697 m 1,0,-1
 -256 697 l 1,1,-1
 -174 611 l 1,2,-1
 -92 697 l 1,3,-1
 -23 697 l 1,4,-1
 -174 540 l 1,5,-1
 -325 697 l 1,0,-1
EndSplineSet
EndChar

StartChar: uni030F
Encoding: 783 783 341
Width: 0
GlyphClass: 4
Flags: W
AnchorPoint: "Anchor-10" -151 493 mark 0
AnchorPoint: "Anchor-8" -220 697 basemark 0
AnchorPoint: "Anchor-8" -151 493 mark 0
AnchorPoint: "Anchor-4" -151 493 mark 0
AnchorPoint: "Anchor-1" -151 493 mark 0
LayerCount: 2
Fore
SplineSet
-409 697 m 1,0,-1
 -317 697 l 1,1,-1
 -208 541 l 1,2,-1
 -273 541 l 1,3,-1
 -409 697 l 1,0,-1
-218 697 m 1,4,-1
 -140 697 l 1,5,-1
 -31 541 l 1,6,-1
 -95 541 l 1,7,-1
 -218 697 l 1,4,-1
EndSplineSet
EndChar

StartChar: uni0312
Encoding: 786 786 342
Width: 0
GlyphClass: 4
Flags: W
AnchorPoint: "Anchor-10" -129 493 mark 0
AnchorPoint: "Anchor-8" -129 704 basemark 0
AnchorPoint: "Anchor-8" -129 493 mark 0
AnchorPoint: "Anchor-4" -129 493 mark 0
AnchorPoint: "Anchor-1" -129 493 mark 0
LayerCount: 2
Fore
SplineSet
-96 704 m 1,0,-1
 -43 704 l 1,1,-1
 -124 554 l 1,2,-1
 -215 554 l 1,3,-1
 -96 704 l 1,0,-1
EndSplineSet
EndChar

StartChar: uni031B
Encoding: 795 795 343
Width: 0
GlyphClass: 4
Flags: W
AnchorPoint: "Anchor-9" -134 493 basemark 0
AnchorPoint: "Anchor-9" -134 493 mark 0
AnchorPoint: "Anchor-6" -134 493 mark 0
LayerCount: 2
Fore
SplineSet
-206 553 m 1,0,1
 -164 553 -164 553 -145.5 579 c 128,-1,2
 -127 605 -127 605 -127 645 c 2,3,-1
 -127 697 l 1,4,-1
 -62 697 l 1,5,-1
 -62 652 l 2,6,7
 -62 580 -62 580 -97.5 538 c 128,-1,8
 -133 496 -133 496 -206 496 c 1,9,-1
 -206 553 l 1,0,1
EndSplineSet
EndChar

StartChar: dotbelowcomb
Encoding: 803 803 344
Width: 0
GlyphClass: 4
Flags: W
AnchorPoint: "Anchor-7" -129 -173 basemark 0
AnchorPoint: "Anchor-7" -129 0 mark 0
AnchorPoint: "Anchor-2" -129 0 mark 0
AnchorPoint: "Anchor-0" -129 0 mark 0
LayerCount: 2
Fore
SplineSet
-177 -69 m 1,0,-1
 -81 -69 l 1,1,-1
 -81 -173 l 1,2,-1
 -177 -173 l 1,3,-1
 -177 -69 l 1,0,-1
EndSplineSet
EndChar

StartChar: uni0326
Encoding: 806 806 345
Width: 0
GlyphClass: 4
Flags: W
AnchorPoint: "Anchor-7" -114 -223 basemark 0
AnchorPoint: "Anchor-7" -73 0 mark 0
AnchorPoint: "Anchor-2" -73 0 mark 0
AnchorPoint: "Anchor-0" -73 0 mark 0
LayerCount: 2
Fore
SplineSet
-119 -55 m 1,0,-1
 -28 -55 l 1,1,-1
 -147 -223 l 1,2,-1
 -200 -223 l 1,3,-1
 -119 -55 l 1,0,-1
EndSplineSet
EndChar

StartChar: uni0327
Encoding: 807 807 346
Width: 0
GlyphClass: 4
Flags: W
AnchorPoint: "Anchor-7" -148 -256 basemark 0
AnchorPoint: "Anchor-7" -142 0 mark 0
AnchorPoint: "Anchor-2" -142 0 mark 0
AnchorPoint: "Anchor-0" -142 0 mark 0
LayerCount: 2
Fore
SplineSet
-199 -245.5 m 128,-1,1
 -223 -235 -223 -235 -241 -214 c 1,2,-1
 -211 -173 l 1,3,4
 -199 -189 -199 -189 -182.5 -197 c 128,-1,5
 -166 -205 -166 -205 -150 -205 c 0,6,7
 -126 -205 -126 -205 -112 -191.5 c 128,-1,8
 -98 -178 -98 -178 -98 -155 c 0,9,10
 -98 -114 -98 -114 -152 -101 c 0,11,12
 -176 -95 -176 -95 -224 -95 c 1,13,-1
 -168 0 l 1,14,-1
 -116 0 l 1,15,-1
 -155 -59 l 1,16,17
 -120 -65 -120 -65 -96 -76 c 0,18,19
 -46 -99 -46 -99 -46 -153 c 0,20,21
 -46 -198 -46 -198 -76 -227 c 128,-1,22
 -106 -256 -106 -256 -153 -256 c 0,23,0
 -175 -256 -175 -256 -199 -245.5 c 128,-1,1
EndSplineSet
EndChar

StartChar: uni0328
Encoding: 808 808 347
Width: 0
GlyphClass: 4
Flags: W
AnchorPoint: "Anchor-3" -73 0 mark 0
LayerCount: 2
Fore
SplineSet
-199.5 -192.5 m 128,-1,1
 -227 -168 -227 -168 -227 -127 c 256,2,3
 -227 -86 -227 -86 -201.5 -53 c 128,-1,4
 -176 -20 -176 -20 -141 1 c 1,5,-1
 -73 0 l 1,6,7
 -113 -22 -113 -22 -144 -50 c 128,-1,8
 -175 -78 -175 -78 -175 -119 c 0,9,10
 -175 -141 -175 -141 -162.5 -151.5 c 128,-1,11
 -150 -162 -150 -162 -132 -162 c 0,12,13
 -101 -162 -101 -162 -74 -135 c 1,14,-1
 -31 -167 l 1,15,16
 -72 -217 -72 -217 -129 -217 c 0,17,0
 -172 -217 -172 -217 -199.5 -192.5 c 128,-1,1
EndSplineSet
EndChar

StartChar: uni0335
Encoding: 821 821 348
Width: 0
GlyphClass: 4
Flags: W
AnchorPoint: "Anchor-5" -224 290 mark 0
LayerCount: 2
Fore
SplineSet
-368 319 m 1,0,-1
 -80 319 l 1,1,-1
 -80 261 l 1,2,-1
 -368 261 l 1,3,-1
 -368 319 l 1,0,-1
EndSplineSet
EndChar

StartChar: uni0336
Encoding: 822 822 349
Width: 0
GlyphClass: 4
Flags: W
AnchorPoint: "Anchor-5" -400 281 mark 0
LayerCount: 2
Fore
SplineSet
-721 307 m 1,0,-1
 -79 307 l 1,1,-1
 -79 255 l 1,2,-1
 -721 255 l 1,3,-1
 -721 307 l 1,0,-1
EndSplineSet
EndChar

StartChar: uni0337
Encoding: 823 823 350
Width: 0
GlyphClass: 4
Flags: W
AnchorPoint: "Anchor-5" -147 371 mark 0
LayerCount: 2
Fore
SplineSet
-258 327 m 1,0,-1
 -35 503 l 1,1,-1
 -35 416 l 1,2,-1
 -258 238 l 1,3,-1
 -258 327 l 1,0,-1
EndSplineSet
Substitution2: "Single Substitution lookup 22 subtable" uni0337.case
Substitution2: "'case' Case-Sensitive Forms lookup 16 subtable" uni0337.case
Substitution2: "'aalt' Access All Alternates lookup 0 subtable" uni0337.case
EndChar

StartChar: uni0338
Encoding: 824 824 351
Width: 0
GlyphClass: 4
Flags: W
AnchorPoint: "Anchor-5" -213 294 mark 0
LayerCount: 2
Fore
SplineSet
-66 587 m 1,0,-1
 -1 587 l 1,1,-1
 -362 0 l 1,2,-1
 -428 0 l 1,3,-1
 -66 587 l 1,0,-1
EndSplineSet
Substitution2: "Single Substitution lookup 22 subtable" uni0338.case
Substitution2: "'case' Case-Sensitive Forms lookup 16 subtable" uni0338.case
Substitution2: "'aalt' Access All Alternates lookup 0 subtable" uni0338.case
EndChar

StartChar: uni03BC
Encoding: 956 956 354
Width: 578
GlyphClass: 2
Flags: W
LayerCount: 2
Fore
SplineSet
84 493 m 1,0,-1
 169 493 l 1,1,-1
 169 202 l 2,2,3
 169 141 169 141 198 106 c 128,-1,4
 227 71 227 71 281 71 c 0,5,6
 341 71 341 71 375 106.5 c 128,-1,7
 409 142 409 142 409 210 c 2,8,-1
 409 493 l 1,9,-1
 495 493 l 1,10,-1
 495 0 l 1,11,-1
 409 0 l 1,12,-1
 409 74 l 1,13,14
 385 33 385 33 344 12 c 128,-1,15
 303 -9 303 -9 258 -9 c 0,16,17
 188 -9 188 -9 154 36 c 1,18,-1
 154 -168 l 1,19,-1
 84 -168 l 1,20,-1
 84 493 l 1,0,-1
EndSplineSet
EndChar

StartChar: pi
Encoding: 960 960 355
Width: 539
GlyphClass: 2
Flags: W
LayerCount: 2
Fore
SplineSet
365 26 m 128,-1,1
 342 61 342 61 342 115 c 2,2,-1
 342 420 l 1,3,-1
 170 420 l 1,4,-1
 170 0 l 1,5,-1
 97 0 l 1,6,-1
 97 420 l 1,7,-1
 42 420 l 1,8,-1
 42 493 l 1,9,-1
 483 493 l 1,10,-1
 483 420 l 1,11,-1
 415 420 l 1,12,-1
 415 126 l 2,13,14
 415 89 415 89 426 72.5 c 128,-1,15
 437 56 437 56 461 56 c 0,16,17
 476 56 476 56 490 63 c 1,18,-1
 514 6 l 1,19,20
 487 -9 487 -9 453 -9 c 0,21,0
 388 -9 388 -9 365 26 c 128,-1,1
EndSplineSet
EndChar

StartChar: uni1E9E
Encoding: 7838 7838 362
Width: 689
GlyphClass: 2
Flags: W
AnchorPoint: "Anchor-4" 355 697 basechar 0
AnchorPoint: "Anchor-2" 355 0 basechar 0
LayerCount: 2
Fore
SplineSet
330 27.5 m 128,-1,1
 273 65 273 65 254 124 c 1,2,-1
 330 164 l 1,3,4
 348 123 348 123 382.5 98 c 128,-1,5
 417 73 417 73 466 73 c 0,6,7
 508 73 508 73 530.5 91 c 128,-1,8
 553 109 553 109 553 140 c 0,9,10
 553 176 553 176 524.5 192.5 c 128,-1,11
 496 209 496 209 438 226 c 0,12,13
 390 240 390 240 360.5 252.5 c 128,-1,14
 331 265 331 265 310 290.5 c 128,-1,15
 289 316 289 316 289 358 c 0,16,17
 289 384 289 384 296.5 403.5 c 128,-1,18
 304 423 304 423 313 435 c 128,-1,19
 322 447 322 447 343 471 c 2,20,-1
 465 611 l 1,21,-1
 332 611 l 2,22,23
 250 611 250 611 215 569 c 128,-1,24
 180 527 180 527 180 436 c 2,25,-1
 180 0 l 1,26,-1
 91 0 l 1,27,-1
 91 436 l 2,28,29
 91 505 91 505 107.5 561.5 c 128,-1,30
 124 618 124 618 177 657.5 c 128,-1,31
 230 697 230 697 332 697 c 2,32,-1
 589 697 l 1,33,-1
 589 631 l 1,34,-1
 405 419 l 2,35,36
 393 405 393 405 386 392.5 c 128,-1,37
 379 380 379 380 379 365 c 0,38,39
 379 337 379 337 404 323.5 c 128,-1,40
 429 310 429 310 483 296 c 0,41,42
 535 282 535 282 568.5 267.5 c 128,-1,43
 602 253 602 253 626 223 c 128,-1,44
 650 193 650 193 650 143 c 0,45,46
 650 99 650 99 626 64 c 128,-1,47
 602 29 602 29 559.5 9.5 c 128,-1,48
 517 -10 517 -10 463 -10 c 0,49,0
 387 -10 387 -10 330 27.5 c 128,-1,1
EndSplineSet
EndChar

StartChar: endash
Encoding: 8211 8211 453
Width: 525
GlyphClass: 2
Flags: W
LayerCount: 2
Fore
SplineSet
80 336 m 1,0,-1
 445 336 l 1,1,-1
 445 270 l 1,2,-1
 80 270 l 1,3,-1
 80 336 l 1,0,-1
EndSplineSet
EndChar

StartChar: emdash
Encoding: 8212 8212 454
Width: 1010
GlyphClass: 2
Flags: W
LayerCount: 2
Fore
SplineSet
0 336 m 1,0,-1
 1010 336 l 1,1,-1
 1010 270 l 1,2,-1
 0 270 l 1,3,-1
 0 336 l 1,0,-1
EndSplineSet
EndChar

StartChar: uni2015
Encoding: 8213 8213 455
Width: 768
GlyphClass: 2
Flags: W
LayerCount: 2
Fore
SplineSet
80 336 m 1,0,-1
 688 336 l 1,1,-1
 688 270 l 1,2,-1
 80 270 l 1,3,-1
 80 336 l 1,0,-1
EndSplineSet
EndChar

StartChar: quoteleft
Encoding: 8216 8216 456
Width: 287
GlyphClass: 2
Flags: W
LayerCount: 2
Fore
SplineSet
172 697 m 1,0,-1
 229 697 l 1,1,-1
 141 414 l 1,2,-1
 42 414 l 1,3,-1
 172 697 l 1,0,-1
EndSplineSet
EndChar

StartChar: quoteright
Encoding: 8217 8217 457
Width: 287
GlyphClass: 2
Flags: W
LayerCount: 2
Fore
SplineSet
146 697 m 1,0,-1
 245 697 l 1,1,-1
 115 415 l 1,2,-1
 57 415 l 1,3,-1
 146 697 l 1,0,-1
EndSplineSet
EndChar

StartChar: quotesinglbase
Encoding: 8218 8218 458
Width: 287
GlyphClass: 2
Flags: W
LayerCount: 2
Fore
SplineSet
146 129 m 1,0,-1
 245 129 l 1,1,-1
 115 -153 l 1,2,-1
 57 -153 l 1,3,-1
 146 129 l 1,0,-1
EndSplineSet
EndChar

StartChar: quotedblleft
Encoding: 8220 8220 459
Width: 463
GlyphClass: 2
Flags: W
LayerCount: 2
Fore
SplineSet
172 697 m 1,0,-1
 229 697 l 1,1,-1
 141 414 l 1,2,-1
 42 414 l 1,3,-1
 172 697 l 1,0,-1
347 697 m 1,4,-1
 406 697 l 1,5,-1
 317 414 l 1,6,-1
 218 414 l 1,7,-1
 347 697 l 1,4,-1
EndSplineSet
EndChar

StartChar: quotedblright
Encoding: 8221 8221 460
Width: 464
GlyphClass: 2
Flags: W
LayerCount: 2
Fore
SplineSet
146 697 m 1,0,-1
 245 697 l 1,1,-1
 115 415 l 1,2,-1
 57 415 l 1,3,-1
 146 697 l 1,0,-1
322 697 m 1,4,-1
 421 697 l 1,5,-1
 291 415 l 1,6,-1
 233 415 l 1,7,-1
 322 697 l 1,4,-1
EndSplineSet
EndChar

StartChar: quotedblbase
Encoding: 8222 8222 461
Width: 471
GlyphClass: 2
Flags: W
LayerCount: 2
Fore
SplineSet
146 129 m 1,0,-1
 245 129 l 1,1,-1
 115 -153 l 1,2,-1
 57 -153 l 1,3,-1
 146 129 l 1,0,-1
329 129 m 1,4,-1
 428 129 l 1,5,-1
 298 -153 l 1,6,-1
 240 -153 l 1,7,-1
 329 129 l 1,4,-1
EndSplineSet
EndChar

StartChar: dagger
Encoding: 8224 8224 462
Width: 407
GlyphClass: 2
Flags: W
LayerCount: 2
Fore
SplineSet
164 423 m 1,0,-1
 47 423 l 1,1,-1
 47 501 l 1,2,-1
 164 501 l 1,3,-1
 164 697 l 1,4,-1
 243 697 l 1,5,-1
 243 501 l 1,6,-1
 361 501 l 1,7,-1
 361 423 l 1,8,-1
 243 423 l 1,9,-1
 243 -101 l 1,10,-1
 164 -101 l 1,11,-1
 164 423 l 1,0,-1
EndSplineSet
EndChar

StartChar: daggerdbl
Encoding: 8225 8225 463
Width: 451
GlyphClass: 2
Flags: W
LayerCount: 2
Fore
SplineSet
186 95 m 1,0,-1
 69 95 l 1,1,-1
 69 173 l 1,2,-1
 186 173 l 1,3,-1
 186 423 l 1,4,-1
 69 423 l 1,5,-1
 69 501 l 1,6,-1
 186 501 l 1,7,-1
 186 697 l 1,8,-1
 265 697 l 1,9,-1
 265 501 l 1,10,-1
 382 501 l 1,11,-1
 382 423 l 1,12,-1
 265 423 l 1,13,-1
 265 173 l 1,14,-1
 382 173 l 1,15,-1
 382 95 l 1,16,-1
 265 95 l 1,17,-1
 265 -101 l 1,18,-1
 186 -101 l 1,19,-1
 186 95 l 1,0,-1
EndSplineSet
EndChar

StartChar: bullet
Encoding: 8226 8226 464
Width: 409
GlyphClass: 2
Flags: W
LayerCount: 2
Fore
SplineSet
121 154.5 m 128,-1,1
 87 189 87 189 87 237 c 0,2,3
 87 286 87 286 121 320.5 c 128,-1,4
 155 355 155 355 204 355 c 256,5,6
 253 355 253 355 287 320.5 c 128,-1,7
 321 286 321 286 321 237 c 0,8,9
 321 189 321 189 287 154.5 c 128,-1,10
 253 120 253 120 204 120 c 256,11,0
 155 120 155 120 121 154.5 c 128,-1,1
EndSplineSet
EndChar

StartChar: uni2023
Encoding: 8227 8227 465
Width: 449
GlyphClass: 2
Flags: W
LayerCount: 2
Fore
SplineSet
117 420 m 1,0,-1
 403 254 l 1,1,-1
 117 89 l 1,2,-1
 117 420 l 1,0,-1
EndSplineSet
EndChar

StartChar: twodotenleader
Encoding: 8229 8229 466
Width: 522
GlyphClass: 2
Flags: W
LayerCount: 2
Fore
SplineSet
116 117 m 1,0,-1
 203 117 l 1,1,-1
 203 0 l 1,2,-1
 116 0 l 1,3,-1
 116 117 l 1,0,-1
320 117 m 1,4,-1
 407 117 l 1,5,-1
 407 0 l 1,6,-1
 320 0 l 1,7,-1
 320 117 l 1,4,-1
EndSplineSet
EndChar

StartChar: ellipsis
Encoding: 8230 8230 467
Width: 740
GlyphClass: 2
Flags: W
LayerCount: 2
Fore
SplineSet
116 117 m 1,0,-1
 216 117 l 1,1,-1
 216 0 l 1,2,-1
 116 0 l 1,3,-1
 116 117 l 1,0,-1
320 117 m 1,4,-1
 420 117 l 1,5,-1
 420 0 l 1,6,-1
 320 0 l 1,7,-1
 320 117 l 1,4,-1
524 117 m 1,8,-1
 624 117 l 1,9,-1
 624 0 l 1,10,-1
 524 0 l 1,11,-1
 524 117 l 1,8,-1
EndSplineSet
EndChar

StartChar: perthousand
Encoding: 8240 8240 468
Width: 1050
GlyphClass: 2
Flags: W
LayerCount: 2
Fore
SplineSet
96 434.5 m 128,-1,1
 59 481 59 481 59 547 c 256,2,3
 59 613 59 613 95.5 659.5 c 128,-1,4
 132 706 132 706 193 706 c 0,5,6
 232 706 232 706 263 685 c 128,-1,7
 294 664 294 664 311.5 627.5 c 128,-1,8
 329 591 329 591 329 546 c 0,9,10
 329 502 329 502 312 465.5 c 128,-1,11
 295 429 295 429 264.5 408.5 c 128,-1,12
 234 388 234 388 196 388 c 0,13,0
 133 388 133 388 96 434.5 c 128,-1,1
539 697 m 1,14,-1
 601 697 l 1,15,-1
 198 0 l 1,16,-1
 137 0 l 1,17,-1
 539 697 l 1,14,-1
249 475 m 128,-1,19
 270 503 270 503 270 546 c 0,20,21
 270 590 270 590 249.5 618.5 c 128,-1,22
 229 647 229 647 193 647 c 256,23,24
 157 647 157 647 137.5 618 c 128,-1,25
 118 589 118 589 118 547 c 0,26,27
 118 504 118 504 138 475.5 c 128,-1,28
 158 447 158 447 196 447 c 0,29,18
 228 447 228 447 249 475 c 128,-1,19
446 38 m 128,-1,31
 409 85 409 85 409 151 c 0,32,33
 409 216 409 216 445 262.5 c 128,-1,34
 481 309 481 309 543 309 c 0,35,36
 582 309 582 309 613 288 c 128,-1,37
 644 267 644 267 661.5 231 c 128,-1,38
 679 195 679 195 679 150 c 0,39,40
 679 82 679 82 641.5 36.5 c 128,-1,41
 604 -9 604 -9 546 -9 c 0,42,30
 483 -9 483 -9 446 38 c 128,-1,31
759 38 m 128,-1,44
 722 85 722 85 722 151 c 0,45,46
 722 193 722 193 738 229 c 128,-1,47
 754 265 754 265 784.5 287 c 128,-1,48
 815 309 815 309 856 309 c 0,49,50
 895 309 895 309 926 288 c 128,-1,51
 957 267 957 267 974.5 231 c 128,-1,52
 992 195 992 195 992 150 c 256,53,54
 992 105 992 105 975 69 c 128,-1,55
 958 33 958 33 927.5 12 c 128,-1,56
 897 -9 897 -9 859 -9 c 0,57,43
 796 -9 796 -9 759 38 c 128,-1,44
599 78 m 128,-1,59
 620 106 620 106 620 150 c 0,60,61
 620 193 620 193 599.5 221.5 c 128,-1,62
 579 250 579 250 543 250 c 256,63,64
 507 250 507 250 487.5 221.5 c 128,-1,65
 468 193 468 193 468 151 c 0,66,67
 468 108 468 108 488 79 c 128,-1,68
 508 50 508 50 546 50 c 0,69,58
 578 50 578 50 599 78 c 128,-1,59
912 78 m 128,-1,71
 933 106 933 106 933 150 c 0,72,73
 933 193 933 193 912.5 221.5 c 128,-1,74
 892 250 892 250 856 250 c 256,75,76
 820 250 820 250 800.5 221 c 128,-1,77
 781 192 781 192 781 151 c 0,78,79
 781 108 781 108 801 79 c 128,-1,80
 821 50 821 50 859 50 c 0,81,70
 891 50 891 50 912 78 c 128,-1,71
EndSplineSet
EndChar

StartChar: uni2031
Encoding: 8241 8241 469
Width: 1363
GlyphClass: 2
Flags: W
LayerCount: 2
Fore
SplineSet
96 434.5 m 128,-1,1
 59 481 59 481 59 547 c 256,2,3
 59 613 59 613 95.5 659.5 c 128,-1,4
 132 706 132 706 193 706 c 0,5,6
 232 706 232 706 263 685 c 128,-1,7
 294 664 294 664 311.5 627.5 c 128,-1,8
 329 591 329 591 329 546 c 0,9,10
 329 502 329 502 312 465.5 c 128,-1,11
 295 429 295 429 264.5 408.5 c 128,-1,12
 234 388 234 388 196 388 c 0,13,0
 133 388 133 388 96 434.5 c 128,-1,1
539 697 m 1,14,-1
 601 697 l 1,15,-1
 199 0 l 1,16,-1
 137 0 l 1,17,-1
 539 697 l 1,14,-1
249 475 m 128,-1,19
 270 503 270 503 270 546 c 0,20,21
 270 590 270 590 249.5 618.5 c 128,-1,22
 229 647 229 647 193 647 c 256,23,24
 157 647 157 647 137.5 618 c 128,-1,25
 118 589 118 589 118 547 c 0,26,27
 118 504 118 504 138 475.5 c 128,-1,28
 158 447 158 447 196 447 c 0,29,18
 228 447 228 447 249 475 c 128,-1,19
446 38 m 128,-1,31
 409 85 409 85 409 151 c 0,32,33
 409 216 409 216 445 262.5 c 128,-1,34
 481 309 481 309 543 309 c 0,35,36
 582 309 582 309 613 288 c 128,-1,37
 644 267 644 267 661.5 231 c 128,-1,38
 679 195 679 195 679 150 c 0,39,40
 679 82 679 82 641.5 36.5 c 128,-1,41
 604 -9 604 -9 546 -9 c 0,42,30
 483 -9 483 -9 446 38 c 128,-1,31
759 38 m 128,-1,44
 722 85 722 85 722 151 c 0,45,46
 722 193 722 193 738 229 c 128,-1,47
 754 265 754 265 784.5 287 c 128,-1,48
 815 309 815 309 856 309 c 0,49,50
 895 309 895 309 926 288 c 128,-1,51
 957 267 957 267 974.5 231 c 128,-1,52
 992 195 992 195 992 150 c 256,53,54
 992 105 992 105 975 69 c 128,-1,55
 958 33 958 33 927.5 12 c 128,-1,56
 897 -9 897 -9 859 -9 c 0,57,43
 796 -9 796 -9 759 38 c 128,-1,44
1072 38 m 128,-1,59
 1035 85 1035 85 1035 151 c 0,60,61
 1035 193 1035 193 1051 229 c 128,-1,62
 1067 265 1067 265 1097.5 287 c 128,-1,63
 1128 309 1128 309 1169 309 c 0,64,65
 1207 309 1207 309 1238.5 288.5 c 128,-1,66
 1270 268 1270 268 1287.5 231.5 c 128,-1,67
 1305 195 1305 195 1305 150 c 256,68,69
 1305 105 1305 105 1287.5 68.5 c 128,-1,70
 1270 32 1270 32 1239.5 11.5 c 128,-1,71
 1209 -9 1209 -9 1172 -9 c 0,72,58
 1109 -9 1109 -9 1072 38 c 128,-1,59
599 78 m 128,-1,74
 620 106 620 106 620 150 c 0,75,76
 620 193 620 193 599.5 221.5 c 128,-1,77
 579 250 579 250 543 250 c 256,78,79
 507 250 507 250 487.5 221.5 c 128,-1,80
 468 193 468 193 468 151 c 0,81,82
 468 108 468 108 488 79 c 128,-1,83
 508 50 508 50 546 50 c 0,84,73
 578 50 578 50 599 78 c 128,-1,74
912 78 m 128,-1,86
 933 106 933 106 933 150 c 0,87,88
 933 193 933 193 912.5 221.5 c 128,-1,89
 892 250 892 250 856 250 c 256,90,91
 820 250 820 250 800.5 221 c 128,-1,92
 781 192 781 192 781 151 c 0,93,94
 781 108 781 108 801 79 c 128,-1,95
 821 50 821 50 859 50 c 0,96,85
 891 50 891 50 912 78 c 128,-1,86
1225 78 m 128,-1,98
 1246 106 1246 106 1246 150 c 0,99,100
 1246 192 1246 192 1225 221 c 128,-1,101
 1204 250 1204 250 1169 250 c 0,102,103
 1133 250 1133 250 1113.5 221 c 128,-1,104
 1094 192 1094 192 1094 151 c 0,105,106
 1094 108 1094 108 1114 79 c 128,-1,107
 1134 50 1134 50 1172 50 c 0,108,97
 1204 50 1204 50 1225 78 c 128,-1,98
EndSplineSet
EndChar

StartChar: guilsinglleft
Encoding: 8249 8249 470
Width: 310
GlyphClass: 2
Flags: W
LayerCount: 2
Fore
SplineSet
26 252 m 1,0,-1
 234 428 l 1,1,-1
 234 349 l 1,2,-1
 119 252 l 1,3,-1
 234 155 l 1,4,-1
 234 76 l 1,5,-1
 26 252 l 1,0,-1
EndSplineSet
EndChar

StartChar: guilsinglright
Encoding: 8250 8250 471
Width: 310
GlyphClass: 2
Flags: W
LayerCount: 2
Fore
SplineSet
74 155 m 1,0,-1
 190 252 l 1,1,-1
 74 349 l 1,2,-1
 74 428 l 1,3,-1
 283 252 l 1,4,-1
 74 76 l 1,5,-1
 74 155 l 1,0,-1
EndSplineSet
EndChar

StartChar: fraction
Encoding: 8260 8260 472
Width: 149
GlyphClass: 2
Flags: W
LayerCount: 2
Fore
SplineSet
244 697 m 1,0,-1
 306 697 l 1,1,-1
 -96 0 l 1,2,-1
 -158 0 l 1,3,-1
 244 697 l 1,0,-1
EndSplineSet
EndChar

StartChar: Euro
Encoding: 8364 8364 473
Width: 720
GlyphClass: 2
Flags: W
LayerCount: 2
Fore
SplineSet
654 57 m 1,0,1
 574 -9 574 -9 450 -9 c 0,2,3
 324 -9 324 -9 242.5 60.5 c 128,-1,4
 161 130 161 130 136 249 c 1,5,-1
 72 249 l 1,6,-1
 73 307 l 1,7,-1
 128 307 l 1,8,9
 126 337 126 337 126 353 c 0,10,11
 126 370 126 370 128 402 c 1,12,-1
 73 402 l 1,13,-1
 73 460 l 1,14,-1
 138 460 l 1,15,16
 165 573 165 573 246.5 639.5 c 128,-1,17
 328 706 328 706 453 706 c 0,18,19
 576 706 576 706 652 646 c 1,20,-1
 605 572 l 1,21,22
 543 621 543 621 453 621 c 0,23,24
 368 621 368 621 310.5 578 c 128,-1,25
 253 535 253 535 229 460 c 1,26,-1
 536 460 l 1,27,-1
 535 402 l 1,28,-1
 216 402 l 1,29,30
 213 378 213 378 213 352 c 0,31,32
 213 337 213 337 215 307 c 1,33,-1
 535 307 l 1,34,-1
 533 249 l 1,35,-1
 226 249 l 1,36,37
 248 168 248 168 305.5 122 c 128,-1,38
 363 76 363 76 450 76 c 0,39,40
 545 76 545 76 607 130 c 1,41,-1
 654 57 l 1,0,1
EndSplineSet
EndChar

StartChar: uni20B1
Encoding: 8369 8369 474
Width: 689
GlyphClass: 2
Flags: W
LayerCount: 2
Fore
SplineSet
634 474 m 1,0,-1
 585 474 l 1,1,2
 577 393 577 393 516.5 346 c 128,-1,3
 456 299 456 299 353 299 c 2,4,-1
 233 299 l 1,5,-1
 233 0 l 1,6,-1
 145 0 l 1,7,-1
 145 474 l 1,8,-1
 82 474 l 1,9,-1
 82 523 l 1,10,-1
 145 523 l 1,11,-1
 145 697 l 1,12,-1
 353 697 l 2,13,14
 462 697 462 697 519.5 651 c 128,-1,15
 577 605 577 605 585 523 c 1,16,-1
 634 523 l 1,17,-1
 634 474 l 1,0,-1
233 523 m 1,18,-1
 495 523 l 1,19,20
 481 613 481 613 353 613 c 2,21,-1
 233 613 l 1,22,-1
 233 523 l 1,18,-1
495 474 m 1,24,-1
 233 474 l 1,25,-1
 233 383 l 1,26,-1
 353 383 l 2,27,23
 481 383 481 383 495 474 c 1,24,-1
EndSplineSet
EndChar

StartChar: uni20B3
Encoding: 8371 8371 475
Width: 805
GlyphClass: 2
Flags: W
LayerCount: 2
Fore
SplineSet
154 141 m 1,0,-1
 86 141 l 1,1,-1
 86 218 l 1,2,-1
 185 218 l 1,3,-1
 217 305 l 1,4,-1
 86 305 l 1,5,-1
 86 382 l 1,6,-1
 248 382 l 1,7,-1
 368 697 l 1,8,-1
 439 697 l 1,9,-1
 558 382 l 1,10,-1
 719 382 l 1,11,-1
 719 305 l 1,12,-1
 588 305 l 1,13,-1
 621 218 l 1,14,-1
 719 218 l 1,15,-1
 719 141 l 1,16,-1
 652 141 l 1,17,-1
 704 0 l 1,18,-1
 607 0 l 1,19,-1
 558 141 l 1,20,-1
 249 141 l 1,21,-1
 199 0 l 1,22,-1
 101 0 l 1,23,-1
 154 141 l 1,0,-1
469 382 m 1,24,-1
 404 568 l 1,25,-1
 338 382 l 1,26,-1
 469 382 l 1,24,-1
529 218 m 1,27,-1
 498 305 l 1,28,-1
 309 305 l 1,29,-1
 278 218 l 1,30,-1
 529 218 l 1,27,-1
EndSplineSet
EndChar

StartChar: uni20B4
Encoding: 8372 8372 476
Width: 730
GlyphClass: 2
Flags: W
LayerCount: 2
Fore
SplineSet
649 462 m 1,0,-1
 649 399 l 1,1,-1
 80 399 l 1,2,-1
 80 462 l 1,3,-1
 452 462 l 1,4,5
 481 489 481 489 481 526 c 0,6,7
 481 570 481 570 449 598 c 128,-1,8
 417 626 417 626 369 626 c 0,9,10
 327 626 327 626 293 605 c 128,-1,11
 259 584 259 584 237 544 c 1,12,-1
 163 590 l 1,13,14
 196 648 196 648 251 677 c 128,-1,15
 306 706 306 706 373 706 c 0,16,17
 427 706 427 706 471 684 c 128,-1,18
 515 662 515 662 540 624.5 c 128,-1,19
 565 587 565 587 565 542 c 0,20,21
 565 500 565 500 540 462 c 1,22,-1
 649 462 l 1,0,-1
80 328 m 1,23,-1
 649 328 l 1,24,-1
 649 267 l 1,25,-1
 265 267 l 1,26,27
 244 249 244 249 233 226.5 c 128,-1,28
 222 204 222 204 222 182 c 0,29,30
 222 134 222 134 260 103 c 128,-1,31
 298 72 298 72 361 72 c 0,32,33
 423 72 423 72 466 103 c 128,-1,34
 509 134 509 134 522 193 c 1,35,-1
 609 167 l 1,36,37
 587 84 587 84 518.5 38.5 c 128,-1,38
 450 -7 450 -7 362 -7 c 0,39,40
 296 -7 296 -7 245 17 c 128,-1,41
 194 41 194 41 165.5 82.5 c 128,-1,42
 137 124 137 124 137 175 c 0,43,44
 137 224 137 224 164 267 c 1,45,-1
 80 267 l 1,46,-1
 80 328 l 1,23,-1
EndSplineSet
EndChar

StartChar: uni20B8
Encoding: 8376 8376 477
Width: 709
GlyphClass: 2
Flags: W
LayerCount: 2
Fore
SplineSet
76 697 m 1,0,-1
 633 697 l 1,1,-1
 633 623 l 1,2,-1
 76 623 l 1,3,-1
 76 697 l 1,0,-1
310 460 m 1,4,-1
 76 460 l 1,5,-1
 76 534 l 1,6,-1
 633 534 l 1,7,-1
 633 460 l 1,8,-1
 399 460 l 1,9,-1
 399 0 l 1,10,-1
 310 0 l 1,11,-1
 310 460 l 1,4,-1
EndSplineSet
EndChar

StartChar: uni20BD
Encoding: 8381 8381 478
Width: 679
GlyphClass: 2
Flags: W
LayerCount: 2
Fore
SplineSet
171 148 m 1,0,-1
 82 148 l 1,1,-1
 82 213 l 1,2,-1
 171 213 l 1,3,-1
 171 306 l 1,4,-1
 82 306 l 1,5,-1
 82 383 l 1,6,-1
 171 383 l 1,7,-1
 171 697 l 1,8,-1
 372 697 l 2,9,10
 480 697 480 697 545.5 643.5 c 128,-1,11
 611 590 611 590 611 496 c 0,12,13
 611 404 611 404 546.5 355 c 128,-1,14
 482 306 482 306 372 306 c 2,15,-1
 260 306 l 1,16,-1
 260 213 l 1,17,-1
 420 213 l 1,18,-1
 420 148 l 1,19,-1
 260 148 l 1,20,-1
 260 0 l 1,21,-1
 171 0 l 1,22,-1
 171 148 l 1,0,-1
372 383 m 2,23,24
 522 383 522 383 522 496 c 0,25,26
 522 552 522 552 484 582.5 c 128,-1,27
 446 613 446 613 372 613 c 2,28,-1
 260 613 l 1,29,-1
 260 383 l 1,30,-1
 372 383 l 2,23,24
EndSplineSet
EndChar

StartChar: uni2116
Encoding: 8470 8470 479
Width: 1216
GlyphClass: 3
Flags: W
LayerCount: 2
Fore
SplineSet
544 697 m 1,0,-1
 630 697 l 1,1,-1
 630 0 l 1,2,-1
 539 0 l 1,3,-1
 213 551 l 1,4,-1
 213 0 l 1,5,-1
 127 0 l 1,6,-1
 127 697 l 1,7,-1
 218 697 l 1,8,-1
 544 148 l 1,9,-1
 544 697 l 1,0,-1
830 187.5 m 128,-1,11
 784 216 784 216 758 265 c 128,-1,12
 732 314 732 314 732 373 c 0,13,14
 732 431 732 431 758 479.5 c 128,-1,15
 784 528 784 528 830 556.5 c 128,-1,16
 876 585 876 585 935 585 c 256,17,18
 994 585 994 585 1040.5 556.5 c 128,-1,19
 1087 528 1087 528 1113 479.5 c 128,-1,20
 1139 431 1139 431 1139 373 c 256,21,22
 1139 315 1139 315 1113 266 c 128,-1,23
 1087 217 1087 217 1040.5 188 c 128,-1,24
 994 159 994 159 935 159 c 256,25,10
 876 159 876 159 830 187.5 c 128,-1,11
840 480 m 128,-1,27
 806 437 806 437 806 373 c 0,28,29
 806 307 806 307 840 263.5 c 128,-1,30
 874 220 874 220 935 220 c 256,31,32
 996 220 996 220 1030.5 264 c 128,-1,33
 1065 308 1065 308 1065 373 c 0,34,35
 1065 437 1065 437 1030.5 480 c 128,-1,36
 996 523 996 523 935 523 c 256,37,26
 874 523 874 523 840 480 c 128,-1,27
738 66 m 1,38,-1
 1121 66 l 1,39,-1
 1121 0 l 1,40,-1
 738 0 l 1,41,-1
 738 66 l 1,38,-1
EndSplineSet
Ligature2: "'ordn' Ordinals lookup 13 subtable" N o period
EndChar

StartChar: trademark
Encoding: 8482 8482 480
Width: 748
GlyphClass: 2
Flags: W
LayerCount: 2
Fore
SplineSet
153 647 m 1,0,-1
 78 647 l 1,1,-1
 78 697 l 1,2,-1
 282 697 l 1,3,-1
 282 647 l 1,4,-1
 208 647 l 1,5,-1
 208 432 l 1,6,-1
 153 432 l 1,7,-1
 153 647 l 1,0,-1
339 697 m 1,8,-1
 427 697 l 1,9,-1
 482 523 l 1,10,-1
 536 697 l 1,11,-1
 622 697 l 1,12,-1
 622 432 l 1,13,-1
 568 432 l 1,14,-1
 568 639 l 1,15,-1
 499 443 l 1,16,-1
 464 443 l 1,17,-1
 393 641 l 1,18,-1
 393 432 l 1,19,-1
 339 432 l 1,20,-1
 339 697 l 1,8,-1
EndSplineSet
EndChar

StartChar: uni2126
Encoding: 8486 8486 481
Width: 829
GlyphClass: 2
Flags: W
LayerCount: 2
Fore
SplineSet
79 69 m 1,0,-1
 276 69 l 1,1,-1
 259 71 l 1,2,3
 188 113 188 113 143.5 192 c 128,-1,4
 99 271 99 271 99 358 c 0,5,6
 99 448 99 448 139.5 521.5 c 128,-1,7
 180 595 180 595 252 637 c 128,-1,8
 324 679 324 679 415 679 c 256,9,10
 506 679 506 679 578 637 c 128,-1,11
 650 595 650 595 690 521.5 c 128,-1,12
 730 448 730 448 730 358 c 0,13,14
 730 269 730 269 685.5 189.5 c 128,-1,15
 641 110 641 110 569 70 c 1,16,-1
 552 69 l 1,17,-1
 749 69 l 1,18,-1
 749 0 l 1,19,-1
 475 0 l 1,20,-1
 475 86 l 1,21,22
 560 119 560 119 607 186.5 c 128,-1,23
 654 254 654 254 654 357 c 0,24,25
 654 430 654 430 624.5 486.5 c 128,-1,26
 595 543 595 543 541 574.5 c 128,-1,27
 487 606 487 606 415 606 c 256,28,29
 343 606 343 606 288.5 574.5 c 128,-1,30
 234 543 234 543 204.5 486.5 c 128,-1,31
 175 430 175 430 175 358 c 0,32,33
 175 258 175 258 221.5 190 c 128,-1,34
 268 122 268 122 353 85 c 1,35,-1
 353 0 l 1,36,-1
 79 0 l 1,37,-1
 79 69 l 1,0,-1
EndSplineSet
EndChar

StartChar: arrowleft
Encoding: 8592 8592 482
Width: 1141
GlyphClass: 2
Flags: W
LayerCount: 2
Fore
SplineSet
43 315 m 1,0,-1
 549 595 l 1,1,-1
 577 537 l 1,2,-1
 237 348 l 1,3,-1
 1088 347 l 1,4,-1
 1088 282 l 1,5,-1
 236 283 l 1,6,-1
 577 91 l 1,7,-1
 549 33 l 1,8,-1
 43 315 l 1,0,-1
EndSplineSet
EndChar

StartChar: arrowright
Encoding: 8594 8594 483
Width: 1088
GlyphClass: 2
Flags: W
LayerCount: 2
Fore
SplineSet
511 79 m 1,0,-1
 853 271 l 1,1,-1
 0 270 l 1,2,-1
 0 336 l 1,3,-1
 853 335 l 1,4,-1
 511 526 l 1,5,-1
 540 584 l 1,6,-1
 1045 303 l 1,7,-1
 540 22 l 1,8,-1
 511 79 l 1,0,-1
EndSplineSet
EndChar

StartChar: partialdiff
Encoding: 8706 8706 484
Width: 662
GlyphClass: 2
Flags: W
LayerCount: 2
Fore
SplineSet
173 22.5 m 128,-1,1
 123 51 123 51 96 102 c 128,-1,2
 69 153 69 153 69 218 c 0,3,4
 69 300 69 300 105.5 364.5 c 128,-1,5
 142 429 142 429 203.5 465 c 128,-1,6
 265 501 265 501 337 501 c 0,7,8
 431 501 431 501 490 402 c 1,9,10
 493 438 493 438 484 479 c 0,11,12
 473 559 473 559 434 599.5 c 128,-1,13
 395 640 395 640 332 640 c 0,14,15
 287 640 287 640 249.5 619 c 128,-1,16
 212 598 212 598 193 550 c 1,17,-1
 129 570 l 1,18,19
 154 634 154 634 209 669 c 128,-1,20
 264 704 264 704 339 704 c 0,21,22
 459 704 459 704 518.5 615 c 128,-1,23
 578 526 578 526 578 372 c 0,24,25
 578 265 578 265 545 179 c 128,-1,26
 512 93 512 93 447 43.5 c 128,-1,27
 382 -6 382 -6 290 -6 c 0,28,0
 223 -6 223 -6 173 22.5 c 128,-1,1
393.5 95 m 128,-1,30
 436 122 436 122 460 166 c 128,-1,31
 484 210 484 210 489 259 c 0,32,33
 492 300 492 300 477.5 339.5 c 128,-1,34
 463 379 463 379 430 404.5 c 128,-1,35
 397 430 397 430 347 430 c 0,36,37
 286 430 286 430 241 401 c 128,-1,38
 196 372 196 372 172.5 323.5 c 128,-1,39
 149 275 149 275 149 219 c 0,40,41
 149 149 149 149 190.5 108.5 c 128,-1,42
 232 68 232 68 295 68 c 0,43,29
 351 68 351 68 393.5 95 c 128,-1,30
EndSplineSet
EndChar

StartChar: uni2206
Encoding: 8710 8710 485
Width: 667
GlyphClass: 2
Flags: W
LayerCount: 2
Fore
SplineSet
323 697 m 1,0,-1
 345 697 l 1,1,-1
 622 0 l 1,2,-1
 46 0 l 1,3,-1
 323 697 l 1,0,-1
516 73 m 1,4,-1
 334 549 l 1,5,-1
 152 73 l 1,6,-1
 516 73 l 1,4,-1
EndSplineSet
EndChar

StartChar: product
Encoding: 8719 8719 486
Width: 669
GlyphClass: 2
Flags: W
LayerCount: 2
Fore
SplineSet
134 624 m 1,0,-1
 86 624 l 1,1,-1
 86 697 l 1,2,-1
 584 697 l 1,3,-1
 584 624 l 1,4,-1
 535 624 l 1,5,-1
 535 0 l 1,6,-1
 463 0 l 1,7,-1
 463 624 l 1,8,-1
 206 624 l 1,9,-1
 206 0 l 1,10,-1
 134 0 l 1,11,-1
 134 624 l 1,0,-1
EndSplineSet
EndChar

StartChar: summation
Encoding: 8721 8721 487
Width: 652
GlyphClass: 2
Flags: W
LayerCount: 2
Fore
SplineSet
585 616 m 1,0,-1
 197 616 l 1,1,-1
 457 348 l 1,2,-1
 197 81 l 1,3,-1
 585 81 l 1,4,-1
 585 0 l 1,5,-1
 59 0 l 1,6,-1
 59 49 l 1,7,-1
 340 348 l 1,8,-1
 59 648 l 1,9,-1
 59 697 l 1,10,-1
 585 697 l 1,11,-1
 585 616 l 1,0,-1
EndSplineSet
EndChar

StartChar: minus
Encoding: 8722 8722 488
Width: 619
GlyphClass: 2
Flags: W
LayerCount: 2
Fore
SplineSet
123 347 m 1,0,-1
 497 347 l 1,1,-1
 497 275 l 1,2,-1
 123 275 l 1,3,-1
 123 347 l 1,0,-1
EndSplineSet
EndChar

StartChar: radical
Encoding: 8730 8730 489
Width: 621
GlyphClass: 2
Flags: W
LayerCount: 2
Fore
SplineSet
122 272 m 1,0,-1
 47 272 l 1,1,-1
 47 345 l 1,2,-1
 174 345 l 1,3,-1
 261 101 l 1,4,-1
 500 697 l 1,5,-1
 578 697 l 1,6,-1
 257 -86 l 1,7,-1
 122 272 l 1,0,-1
EndSplineSet
EndChar

StartChar: infinity
Encoding: 8734 8734 490
Width: 981
GlyphClass: 2
Flags: W
LayerCount: 2
Fore
SplineSet
177.5 200 m 128,-1,1
 134 224 134 224 110.5 266.5 c 128,-1,2
 87 309 87 309 87 362 c 256,3,4
 87 415 87 415 110.5 457 c 128,-1,5
 134 499 134 499 177.5 522.5 c 128,-1,6
 221 546 221 546 278 546 c 256,7,8
 335 546 335 546 390.5 512 c 128,-1,9
 446 478 446 478 489 420 c 1,10,11
 535 479 535 479 591 512.5 c 128,-1,12
 647 546 647 546 703 546 c 0,13,14
 760 546 760 546 803.5 522.5 c 128,-1,15
 847 499 847 499 871 457 c 128,-1,16
 895 415 895 415 895 362 c 256,17,18
 895 309 895 309 871 266.5 c 128,-1,19
 847 224 847 224 803.5 200 c 128,-1,20
 760 176 760 176 703 176 c 256,21,22
 646 176 646 176 590.5 209.5 c 128,-1,23
 535 243 535 243 489 302 c 1,24,25
 444 242 444 242 389 209 c 128,-1,26
 334 176 334 176 278 176 c 0,27,0
 221 176 221 176 177.5 200 c 128,-1,1
371.5 275 m 128,-1,29
 415 305 415 305 450 362 c 1,30,31
 415 418 415 418 371.5 447.5 c 128,-1,32
 328 477 328 477 288 477 c 0,33,34
 233 477 233 477 198.5 445 c 128,-1,35
 164 413 164 413 164 362 c 0,36,37
 164 310 164 310 198.5 277.5 c 128,-1,38
 233 245 233 245 288 245 c 0,39,28
 328 245 328 245 371.5 275 c 128,-1,29
782.5 277.5 m 128,-1,41
 818 310 818 310 818 362 c 0,42,43
 818 413 818 413 782.5 445 c 128,-1,44
 747 477 747 477 692 477 c 0,45,46
 651 477 651 477 607 446.5 c 128,-1,47
 563 416 563 416 527 362 c 1,48,49
 564 307 564 307 607.5 276 c 128,-1,50
 651 245 651 245 692 245 c 0,51,40
 747 245 747 245 782.5 277.5 c 128,-1,41
EndSplineSet
EndChar

StartChar: integral
Encoding: 8747 8747 491
Width: 483
GlyphClass: 2
Flags: W
LayerCount: 2
Fore
SplineSet
40 -158 m 1,0,1
 129 -158 129 -158 163 -124 c 128,-1,2
 197 -90 197 -90 197 -17 c 2,3,-1
 197 560 l 2,4,5
 197 602 197 602 216 636.5 c 128,-1,6
 235 671 235 671 267.5 690.5 c 128,-1,7
 300 710 300 710 340 710 c 0,8,9
 400 710 400 710 447 669 c 1,10,-1
 401 614 l 1,11,12
 370 638 370 638 340 638 c 256,13,14
 310 638 310 638 290 616.5 c 128,-1,15
 270 595 270 595 270 557 c 2,16,-1
 270 -18 l 2,17,18
 270 -122 270 -122 210 -176 c 128,-1,19
 150 -230 150 -230 40 -230 c 1,20,-1
 40 -158 l 1,0,1
EndSplineSet
EndChar

StartChar: approxequal
Encoding: 8776 8776 492
Width: 620
GlyphClass: 2
Flags: W
LayerCount: 2
Fore
SplineSet
334 366.5 m 128,-1,1
 312 384 312 384 288 418 c 0,2,3
 271 444 271 444 256.5 456.5 c 128,-1,4
 242 469 242 469 220 469 c 0,5,6
 194 469 194 469 179 443.5 c 128,-1,7
 164 418 164 418 164 375 c 1,8,-1
 98 375 l 1,9,10
 98 444 98 444 131.5 485.5 c 128,-1,11
 165 527 165 527 220 527 c 0,12,13
 262 527 262 527 285.5 508.5 c 128,-1,14
 309 490 309 490 333 456 c 0,15,16
 351 430 351 430 363.5 419 c 128,-1,17
 376 408 376 408 396 408 c 0,18,19
 422 408 422 408 438.5 437.5 c 128,-1,20
 455 467 455 467 455 514 c 1,21,-1
 521 514 l 1,22,23
 521 441 521 441 487 395 c 128,-1,24
 453 349 453 349 396 349 c 0,25,0
 356 349 356 349 334 366.5 c 128,-1,1
334 139.5 m 128,-1,27
 312 157 312 157 288 190 c 0,28,29
 271 216 271 216 256.5 228.5 c 128,-1,30
 242 241 242 241 220 241 c 0,31,32
 194 241 194 241 179 216 c 128,-1,33
 164 191 164 191 164 147 c 1,34,-1
 98 147 l 1,35,36
 98 216 98 216 131.5 258 c 128,-1,37
 165 300 165 300 220 300 c 0,38,39
 262 300 262 300 285.5 281.5 c 128,-1,40
 309 263 309 263 333 229 c 0,41,42
 351 203 351 203 363.5 192 c 128,-1,43
 376 181 376 181 396 181 c 0,44,45
 422 181 422 181 438.5 210 c 128,-1,46
 455 239 455 239 455 286 c 1,47,-1
 521 286 l 1,48,49
 521 213 521 213 487 167.5 c 128,-1,50
 453 122 453 122 396 122 c 0,51,26
 356 122 356 122 334 139.5 c 128,-1,27
EndSplineSet
EndChar

StartChar: notequal
Encoding: 8800 8800 493
Width: 607
GlyphClass: 2
Flags: W
LayerCount: 2
Fore
SplineSet
182 194 m 1,0,-1
 95 194 l 1,1,-1
 95 267 l 1,2,-1
 224 267 l 1,3,-1
 300 398 l 1,4,-1
 95 398 l 1,5,-1
 95 470 l 1,6,-1
 344 470 l 1,7,-1
 473 697 l 1,8,-1
 535 697 l 1,9,-1
 405 470 l 1,10,-1
 511 470 l 1,11,-1
 511 398 l 1,12,-1
 362 398 l 1,13,-1
 286 267 l 1,14,-1
 511 267 l 1,15,-1
 511 194 l 1,16,-1
 243 194 l 1,17,-1
 132 0 l 1,18,-1
 70 0 l 1,19,-1
 182 194 l 1,0,-1
EndSplineSet
EndChar

StartChar: lessequal
Encoding: 8804 8804 494
Width: 672
GlyphClass: 2
Flags: W
LayerCount: 2
Fore
SplineSet
52 389 m 1,0,-1
 559 678 l 1,1,-1
 591 621 l 1,2,-1
 185 389 l 1,3,-1
 591 157 l 1,4,-1
 559 100 l 1,5,-1
 52 389 l 1,0,-1
79 0 m 1,6,-1
 602 0 l 1,7,-1
 602 -66 l 1,8,-1
 79 -66 l 1,9,-1
 79 0 l 1,6,-1
EndSplineSet
EndChar

StartChar: greaterequal
Encoding: 8805 8805 495
Width: 671
GlyphClass: 2
Flags: W
LayerCount: 2
Fore
SplineSet
80 157 m 1,0,-1
 486 389 l 1,1,-1
 80 621 l 1,2,-1
 113 678 l 1,3,-1
 619 389 l 1,4,-1
 113 100 l 1,5,-1
 80 157 l 1,0,-1
69 0 m 1,6,-1
 592 0 l 1,7,-1
 592 -66 l 1,8,-1
 69 -66 l 1,9,-1
 69 0 l 1,6,-1
EndSplineSet
EndChar

StartChar: lozenge
Encoding: 9674 9674 496
Width: 597
GlyphClass: 2
Flags: W
LayerCount: 2
Fore
SplineSet
52 348 m 1,0,-1
 238 697 l 1,1,-1
 358 697 l 1,2,-1
 544 348 l 1,3,-1
 358 0 l 1,4,-1
 238 0 l 1,5,-1
 52 348 l 1,0,-1
305 46 m 1,6,-1
 459 348 l 1,7,-1
 305 651 l 1,8,-1
 291 651 l 1,9,-1
 138 348 l 1,10,-1
 291 46 l 1,11,-1
 305 46 l 1,6,-1
EndSplineSet
EndChar

StartChar: uniF8FF
Encoding: 63743 63743 497
Width: 871
GlyphClass: 2
Flags: W
LayerCount: 2
Fore
SplineSet
246.5 41 m 128,-1,1
 160 92 160 92 109 179 c 128,-1,2
 58 266 58 266 58 368 c 256,3,4
 58 470 58 470 109 557 c 128,-1,5
 160 644 160 644 246.5 695 c 128,-1,6
 333 746 333 746 436 746 c 256,7,8
 539 746 539 746 625.5 695 c 128,-1,9
 712 644 712 644 763 557 c 128,-1,10
 814 470 814 470 814 368 c 256,11,12
 814 266 814 266 763 179 c 128,-1,13
 712 92 712 92 625.5 41 c 128,-1,14
 539 -10 539 -10 436 -10 c 256,15,0
 333 -10 333 -10 246.5 41 c 128,-1,1
607.5 72 m 128,-1,17
 686 118 686 118 732 196.5 c 128,-1,18
 778 275 778 275 778 368 c 256,19,20
 778 461 778 461 732 539.5 c 128,-1,21
 686 618 686 618 607.5 664 c 128,-1,22
 529 710 529 710 436 710 c 256,23,24
 343 710 343 710 264.5 664 c 128,-1,25
 186 618 186 618 140 539.5 c 128,-1,26
 94 461 94 461 94 368 c 256,27,28
 94 275 94 275 140 196.5 c 128,-1,29
 186 118 186 118 264.5 72 c 128,-1,30
 343 26 343 26 436 26 c 256,31,16
 529 26 529 26 607.5 72 c 128,-1,17
207.5 222.5 m 128,-1,33
 202 228 202 228 202 235 c 2,34,-1
 202 500 l 2,35,36
 202 508 202 508 207.5 513 c 128,-1,37
 213 518 213 518 220 518 c 0,38,39
 228 518 228 518 233 513 c 128,-1,40
 238 508 238 508 238 500 c 2,41,-1
 238 235 l 2,42,43
 238 228 238 228 233 222.5 c 128,-1,44
 228 217 228 217 220 217 c 0,45,32
 213 217 213 217 207.5 222.5 c 128,-1,33
423.5 222.5 m 128,-1,47
 418 228 418 228 418 235 c 2,48,-1
 418 500 l 2,49,50
 418 508 418 508 423.5 513 c 128,-1,51
 429 518 429 518 436 518 c 0,52,53
 444 518 444 518 449 513 c 128,-1,54
 454 508 454 508 454 500 c 2,55,-1
 454 235 l 2,56,57
 454 228 454 228 449 222.5 c 128,-1,58
 444 217 444 217 436 217 c 0,59,46
 429 217 429 217 423.5 222.5 c 128,-1,47
641 222 m 2,61,-1
 496 356 l 2,62,63
 491 360 491 360 491 368 c 0,64,65
 491 375 491 375 496 380 c 2,66,-1
 639 511 l 2,67,68
 646 518 646 518 653 518 c 0,69,70
 659 518 659 518 664.5 513.5 c 128,-1,71
 670 509 670 509 670 501 c 0,72,73
 670 494 670 494 665 489 c 2,74,-1
 533 368 l 1,75,-1
 665 246 l 2,76,77
 670 241 670 241 670 234 c 0,78,79
 670 228 670 228 665.5 222.5 c 128,-1,80
 661 217 661 217 654 217 c 0,81,60
 646 217 646 217 641 222 c 2,61,-1
279.5 355.5 m 128,-1,83
 274 361 274 361 274 368 c 0,84,85
 274 376 274 376 279.5 381 c 128,-1,86
 285 386 285 386 292 386 c 2,87,-1
 364 386 l 2,88,89
 372 386 372 386 377 381 c 128,-1,90
 382 376 382 376 382 368 c 0,91,92
 382 361 382 361 377 355.5 c 128,-1,93
 372 350 372 350 364 350 c 2,94,-1
 292 350 l 2,95,82
 285 350 285 350 279.5 355.5 c 128,-1,83
EndSplineSet
EndChar

StartChar: fi
Encoding: 64257 64257 498
Width: 529
GlyphClass: 3
Flags: W
LayerCount: 2
Fore
SplineSet
448 0 m 1,0,-1
 362 0 l 1,1,-1
 362 423 l 1,2,-1
 183 423 l 1,3,-1
 183 0 l 1,4,-1
 97 0 l 1,5,-1
 97 423 l 1,6,-1
 13 423 l 1,7,-1
 13 493 l 1,8,-1
 97 493 l 1,9,-1
 97 531 l 2,10,11
 97 614 97 614 150 660 c 128,-1,12
 203 706 203 706 283 706 c 0,13,14
 333 706 333 706 372.5 694 c 128,-1,15
 412 682 412 682 449 657 c 1,16,-1
 408 597 l 1,17,18
 354 635 354 635 287 635 c 0,19,20
 183 635 183 635 183 530 c 2,21,-1
 183 493 l 1,22,-1
 448 493 l 1,23,-1
 448 0 l 1,0,-1
EndSplineSet
Ligature2: "'liga' Standard Ligatures lookup 18 subtable" f i
EndChar

StartChar: fl
Encoding: 64258 64258 499
Width: 565
GlyphClass: 3
Flags: W
LayerCount: 2
Fore
SplineSet
398.5 19 m 128,-1,1
 372 47 372 47 372 109 c 2,2,-1
 372 612 l 1,3,4
 332 635 332 635 281 635 c 0,5,6
 181 635 181 635 181 530 c 2,7,-1
 181 493 l 1,8,-1
 287 493 l 1,9,-1
 286 423 l 1,10,-1
 181 423 l 1,11,-1
 181 0 l 1,12,-1
 95 0 l 1,13,-1
 95 423 l 1,14,-1
 13 423 l 1,15,-1
 13 493 l 1,16,-1
 95 493 l 1,17,-1
 95 531 l 2,18,19
 95 614 95 614 147 660 c 128,-1,20
 199 706 199 706 277 706 c 0,21,22
 329 706 329 706 367 695.5 c 128,-1,23
 405 685 405 685 457 656 c 1,24,-1
 457 118 l 2,25,26
 457 91 457 91 468 80.5 c 128,-1,27
 479 70 479 70 500 70 c 0,28,29
 518 70 518 70 544 78 c 1,30,-1
 544 5 l 1,31,32
 499 -9 499 -9 471 -9 c 0,33,0
 425 -9 425 -9 398.5 19 c 128,-1,1
EndSplineSet
Ligature2: "'liga' Standard Ligatures lookup 18 subtable" f l
EndChar

StartChar: g.ss01
Encoding: 65540 -1 501
Width: 587
GlyphClass: 2
Flags: W
AnchorPoint: "Anchor-4" 293 493 basechar 0
AnchorPoint: "Anchor-2" 293 -254 basechar 0
LayerCount: 2
Fore
SplineSet
503 493 m 1,0,-1
 503 26 l 2,1,2
 503 -87 503 -87 443 -150.5 c 128,-1,3
 383 -214 383 -214 275 -214 c 0,4,5
 197 -214 197 -214 141 -182 c 128,-1,6
 85 -150 85 -150 54 -97 c 1,7,-1
 120 -43 l 1,8,9
 138 -82 138 -82 179 -110 c 128,-1,10
 220 -138 220 -138 277 -138 c 0,11,12
 343 -138 343 -138 379.5 -99.5 c 128,-1,13
 416 -61 416 -61 416 7 c 2,14,-1
 416 67 l 1,15,16
 389 33 389 33 349.5 15.5 c 128,-1,17
 310 -2 310 -2 261 -2 c 0,18,19
 158 -2 158 -2 101 68 c 128,-1,20
 44 138 44 138 44 250 c 0,21,22
 44 324 44 324 70 381 c 128,-1,23
 96 438 96 438 145 470 c 128,-1,24
 194 502 194 502 261 502 c 0,25,26
 309 502 309 502 349.5 484.5 c 128,-1,27
 390 467 390 467 416 433 c 1,28,-1
 416 493 l 1,29,-1
 503 493 l 1,0,-1
386 124.5 m 128,-1,31
 424 173 424 173 424 250 c 0,32,33
 424 329 424 329 385.5 377 c 128,-1,34
 347 425 347 425 277 425 c 0,35,36
 208 425 208 425 169.5 377.5 c 128,-1,37
 131 330 131 330 131 250 c 0,38,39
 131 171 131 171 169 123.5 c 128,-1,40
 207 76 207 76 277 76 c 0,41,30
 348 76 348 76 386 124.5 c 128,-1,31
EndSplineSet
EndChar

StartChar: g.ss02
Encoding: 65544 -1 505
Width: 530
GlyphClass: 2
Flags: W
AnchorPoint: "Anchor-4" 265 493 basechar 0
AnchorPoint: "Anchor-2" 265 -254 basechar 0
LayerCount: 2
Fore
SplineSet
448 40.5 m 128,-1,1
 493 5 493 5 493 -60 c 0,2,3
 493 -131 493 -131 437.5 -172 c 128,-1,4
 382 -213 382 -213 278 -213 c 0,5,6
 170 -213 170 -213 103.5 -175.5 c 128,-1,7
 37 -138 37 -138 37 -61 c 0,8,9
 37 -43 37 -43 43 -23 c 1,10,-1
 117 19 l 1,11,12
 88 34 88 34 70 59 c 128,-1,13
 52 84 52 84 51 120 c 0,14,15
 51 183 51 183 108 223 c 1,16,17
 74 266 74 266 74 327 c 0,18,19
 74 378 74 378 99 417.5 c 128,-1,20
 124 457 124 457 167 479.5 c 128,-1,21
 210 502 210 502 264 502 c 0,22,23
 336 502 336 502 386 463 c 1,24,-1
 461 528 l 1,25,-1
 505 474 l 1,26,-1
 431 411 l 1,27,28
 453 370 453 370 453 324 c 0,29,30
 453 273 453 273 428 234 c 128,-1,31
 403 195 403 195 360 174 c 128,-1,32
 317 153 317 153 264 153 c 0,33,34
 205 153 205 153 159 179 c 1,35,36
 132 159 132 159 132 131 c 0,37,38
 132 100 132 100 159 88 c 128,-1,39
 186 76 186 76 234 76 c 2,40,-1
 335 76 l 2,41,0
 403 76 403 76 448 40.5 c 128,-1,1
188 403 m 128,-1,43
 159 373 159 373 159 326 c 0,44,45
 159 281 159 281 188 251.5 c 128,-1,46
 217 222 217 222 266 222 c 0,47,48
 313 222 313 222 341 251 c 128,-1,49
 369 280 369 280 369 325 c 0,50,51
 369 372 369 372 341 402.5 c 128,-1,52
 313 433 313 433 266 433 c 0,53,42
 217 433 217 433 188 403 c 128,-1,43
410 -65 m 0,55,56
 410 -30 410 -30 384 -13.5 c 128,-1,57
 358 3 358 3 316 3 c 2,58,-1
 178 3 l 1,59,-1
 171 3 l 1,60,-1
 117 -46 l 1,61,-1
 117 -59 l 2,62,63
 117 -96 117 -96 152.5 -121 c 128,-1,64
 188 -146 188 -146 273 -146 c 0,65,54
 410 -146 410 -146 410 -65 c 0,55,56
EndSplineSet
EndChar

StartChar: T_h
Encoding: 65548 -1 509
Width: 1046
GlyphClass: 3
Flags: W
LayerCount: 2
Fore
SplineSet
259 615 m 1,0,-1
 25 615 l 1,1,-1
 25 697 l 1,2,-1
 650 697 l 1,3,-1
 650 426 l 1,4,5
 676 463 676 463 718 482.5 c 128,-1,6
 760 502 760 502 806 502 c 0,7,8
 891 502 891 502 932.5 447 c 128,-1,9
 974 392 974 392 974 300 c 2,10,-1
 974 0 l 1,11,-1
 887 0 l 1,12,-1
 887 284 l 2,13,14
 887 349 887 349 866 387 c 128,-1,15
 845 425 845 425 786 425 c 0,16,17
 720 425 720 425 685 373.5 c 128,-1,18
 650 322 650 322 650 234 c 2,19,-1
 650 0 l 1,20,-1
 563 0 l 1,21,-1
 563 615 l 1,22,-1
 349 615 l 1,23,-1
 349 0 l 1,24,-1
 259 0 l 1,25,-1
 259 615 l 1,0,-1
EndSplineSet
Ligature2: "'dlig' Discretionary Ligatures lookup 17 subtable" T h
EndChar

StartChar: f_f
Encoding: 65549 -1 510
Width: 605
GlyphClass: 3
Flags: W
LayerCount: 2
Fore
SplineSet
97 423 m 1,0,-1
 13 423 l 1,1,-1
 13 493 l 1,2,-1
 97 493 l 1,3,-1
 97 535 l 2,4,5
 97 586 97 586 123 625 c 128,-1,6
 149 664 149 664 193.5 685 c 128,-1,7
 238 706 238 706 291 706 c 0,8,9
 362 706 362 706 415 673 c 1,10,11
 457 706 457 706 519 706 c 0,12,13
 557 706 557 706 599 686 c 1,14,-1
 571 616 l 1,15,16
 547 629 547 629 526 629 c 0,17,18
 453 629 453 629 453 557 c 2,19,-1
 453 493 l 1,20,-1
 596 493 l 1,21,-1
 596 423 l 1,22,-1
 453 423 l 1,23,-1
 453 0 l 1,24,-1
 368 0 l 1,25,-1
 368 423 l 1,26,-1
 183 423 l 1,27,-1
 183 0 l 1,28,-1
 97 0 l 1,29,-1
 97 423 l 1,0,-1
368 493 m 1,30,-1
 368 566 l 2,31,32
 368 592 368 592 379 616 c 1,33,34
 343 635 343 635 295 635 c 0,35,36
 241 635 241 635 212 607.5 c 128,-1,37
 183 580 183 580 183 533 c 2,38,-1
 183 493 l 1,39,-1
 368 493 l 1,30,-1
EndSplineSet
Ligature2: "'liga' Standard Ligatures lookup 18 subtable" f f
EndChar

StartChar: f_f_i
Encoding: 65550 -1 511
Width: 804
GlyphClass: 3
Flags: W
LayerCount: 2
Fore
SplineSet
97 423 m 1,0,-1
 13 423 l 1,1,-1
 13 493 l 1,2,-1
 97 493 l 1,3,-1
 97 535 l 2,4,5
 97 586 97 586 123 625 c 128,-1,6
 149 664 149 664 193.5 685 c 128,-1,7
 238 706 238 706 291 706 c 0,8,9
 370 706 370 706 427 665 c 1,10,11
 451 685 451 685 484.5 695.5 c 128,-1,12
 518 706 518 706 554 706 c 0,13,14
 604 706 604 706 643.5 693.5 c 128,-1,15
 683 681 683 681 719 657 c 1,16,-1
 678 597 l 1,17,18
 628 635 628 635 558 635 c 0,19,20
 453 635 453 635 453 530 c 2,21,-1
 453 493 l 1,22,-1
 725 493 l 1,23,-1
 725 0 l 1,24,-1
 639 0 l 1,25,-1
 639 423 l 1,26,-1
 453 423 l 1,27,-1
 453 0 l 1,28,-1
 368 0 l 1,29,-1
 368 423 l 1,30,-1
 183 423 l 1,31,-1
 183 0 l 1,32,-1
 97 0 l 1,33,-1
 97 423 l 1,0,-1
368 493 m 1,34,-1
 368 531 l 2,35,36
 368 582 368 582 386 612 c 1,37,38
 345 635 345 635 295 635 c 0,39,40
 241 635 241 635 212 607.5 c 128,-1,41
 183 580 183 580 183 533 c 2,42,-1
 183 493 l 1,43,-1
 368 493 l 1,34,-1
EndSplineSet
Ligature2: "'liga' Standard Ligatures lookup 18 subtable" f f i
EndChar

StartChar: f_f_l
Encoding: 65551 -1 512
Width: 832
GlyphClass: 3
Flags: W
LayerCount: 2
Fore
SplineSet
664.5 17 m 128,-1,1
 639 43 639 43 639 95 c 2,2,-1
 639 617 l 1,3,4
 603 635 603 635 558 635 c 0,5,6
 453 635 453 635 453 530 c 2,7,-1
 453 493 l 1,8,-1
 559 493 l 1,9,-1
 559 423 l 1,10,-1
 453 423 l 1,11,-1
 453 0 l 1,12,-1
 368 0 l 1,13,-1
 368 423 l 1,14,-1
 183 423 l 1,15,-1
 183 0 l 1,16,-1
 97 0 l 1,17,-1
 97 423 l 1,18,-1
 13 423 l 1,19,-1
 13 493 l 1,20,-1
 97 493 l 1,21,-1
 97 535 l 2,22,23
 97 586 97 586 123 625 c 128,-1,24
 149 664 149 664 193.5 685 c 128,-1,25
 238 706 238 706 291 706 c 0,26,27
 327 706 327 706 363 696 c 128,-1,28
 399 686 399 686 427 666 c 1,29,30
 478 706 478 706 554 706 c 0,31,32
 604 706 604 706 644 693.5 c 128,-1,33
 684 681 684 681 725 655 c 1,34,-1
 725 118 l 2,35,36
 725 70 725 70 767 70 c 0,37,38
 784 70 784 70 811 78 c 1,39,-1
 812 5 l 1,40,41
 765 -9 765 -9 735 -9 c 0,42,0
 690 -9 690 -9 664.5 17 c 128,-1,1
368 493 m 1,43,-1
 368 531 l 2,44,45
 368 576 368 576 385 612 c 1,46,47
 347 635 347 635 295 635 c 0,48,49
 241 635 241 635 212 607.5 c 128,-1,50
 183 580 183 580 183 533 c 2,51,-1
 183 493 l 1,52,-1
 368 493 l 1,43,-1
EndSplineSet
Ligature2: "'liga' Standard Ligatures lookup 18 subtable" f f l
EndChar

StartChar: H_d_c_o.liga
Encoding: 65552 -1 513
Width: 871
GlyphClass: 3
Flags: W
LayerCount: 2
Fore
SplineSet
246.5 41 m 128,-1,1
 160 92 160 92 109 179 c 128,-1,2
 58 266 58 266 58 368 c 256,3,4
 58 470 58 470 109 557 c 128,-1,5
 160 644 160 644 246.5 695 c 128,-1,6
 333 746 333 746 436 746 c 256,7,8
 539 746 539 746 625.5 695 c 128,-1,9
 712 644 712 644 763 557 c 128,-1,10
 814 470 814 470 814 368 c 256,11,12
 814 266 814 266 763 179 c 128,-1,13
 712 92 712 92 625.5 41 c 128,-1,14
 539 -10 539 -10 436 -10 c 256,15,0
 333 -10 333 -10 246.5 41 c 128,-1,1
607.5 72 m 128,-1,17
 686 118 686 118 732 196.5 c 128,-1,18
 778 275 778 275 778 368 c 256,19,20
 778 461 778 461 732 539.5 c 128,-1,21
 686 618 686 618 607.5 664 c 128,-1,22
 529 710 529 710 436 710 c 256,23,24
 343 710 343 710 264.5 664 c 128,-1,25
 186 618 186 618 140 539.5 c 128,-1,26
 94 461 94 461 94 368 c 256,27,28
 94 275 94 275 140 196.5 c 128,-1,29
 186 118 186 118 264.5 72 c 128,-1,30
 343 26 343 26 436 26 c 256,31,16
 529 26 529 26 607.5 72 c 128,-1,17
207.5 222.5 m 128,-1,33
 202 228 202 228 202 235 c 2,34,-1
 202 500 l 2,35,36
 202 508 202 508 207.5 513 c 128,-1,37
 213 518 213 518 220 518 c 0,38,39
 228 518 228 518 233 513 c 128,-1,40
 238 508 238 508 238 500 c 2,41,-1
 238 235 l 2,42,43
 238 228 238 228 233 222.5 c 128,-1,44
 228 217 228 217 220 217 c 0,45,32
 213 217 213 217 207.5 222.5 c 128,-1,33
423.5 222.5 m 128,-1,47
 418 228 418 228 418 235 c 2,48,-1
 418 500 l 2,49,50
 418 508 418 508 423.5 513 c 128,-1,51
 429 518 429 518 436 518 c 0,52,53
 444 518 444 518 449 513 c 128,-1,54
 454 508 454 508 454 500 c 2,55,-1
 454 235 l 2,56,57
 454 228 454 228 449 222.5 c 128,-1,58
 444 217 444 217 436 217 c 0,59,46
 429 217 429 217 423.5 222.5 c 128,-1,47
641 222 m 2,61,-1
 496 356 l 2,62,63
 491 360 491 360 491 368 c 0,64,65
 491 375 491 375 496 380 c 2,66,-1
 639 511 l 2,67,68
 646 518 646 518 653 518 c 0,69,70
 659 518 659 518 664.5 513.5 c 128,-1,71
 670 509 670 509 670 501 c 0,72,73
 670 494 670 494 665 489 c 2,74,-1
 533 368 l 1,75,-1
 665 246 l 2,76,77
 670 241 670 241 670 234 c 0,78,79
 670 228 670 228 665.5 222.5 c 128,-1,80
 661 217 661 217 654 217 c 0,81,60
 646 217 646 217 641 222 c 2,61,-1
279.5 355.5 m 128,-1,83
 274 361 274 361 274 368 c 0,84,85
 274 376 274 376 279.5 381 c 128,-1,86
 285 386 285 386 292 386 c 2,87,-1
 364 386 l 2,88,89
 372 386 372 386 377 381 c 128,-1,90
 382 376 382 376 382 368 c 0,91,92
 382 361 382 361 377 355.5 c 128,-1,93
 372 350 372 350 364 350 c 2,94,-1
 292 350 l 2,95,82
 285 350 285 350 279.5 355.5 c 128,-1,83
EndSplineSet
Ligature2: "'liga' Standard Ligatures lookup 18 subtable" H d c o
EndChar

StartChar: h_d_c_o.liga
Encoding: 65553 -1 514
Width: 871
GlyphClass: 3
Flags: W
LayerCount: 2
Fore
SplineSet
246.5 41 m 128,-1,1
 160 92 160 92 109 179 c 128,-1,2
 58 266 58 266 58 368 c 256,3,4
 58 470 58 470 109 557 c 128,-1,5
 160 644 160 644 246.5 695 c 128,-1,6
 333 746 333 746 436 746 c 256,7,8
 539 746 539 746 625.5 695 c 128,-1,9
 712 644 712 644 763 557 c 128,-1,10
 814 470 814 470 814 368 c 256,11,12
 814 266 814 266 763 179 c 128,-1,13
 712 92 712 92 625.5 41 c 128,-1,14
 539 -10 539 -10 436 -10 c 256,15,0
 333 -10 333 -10 246.5 41 c 128,-1,1
607.5 72 m 128,-1,17
 686 118 686 118 732 196.5 c 128,-1,18
 778 275 778 275 778 368 c 256,19,20
 778 461 778 461 732 539.5 c 128,-1,21
 686 618 686 618 607.5 664 c 128,-1,22
 529 710 529 710 436 710 c 256,23,24
 343 710 343 710 264.5 664 c 128,-1,25
 186 618 186 618 140 539.5 c 128,-1,26
 94 461 94 461 94 368 c 256,27,28
 94 275 94 275 140 196.5 c 128,-1,29
 186 118 186 118 264.5 72 c 128,-1,30
 343 26 343 26 436 26 c 256,31,16
 529 26 529 26 607.5 72 c 128,-1,17
207.5 222.5 m 128,-1,33
 202 228 202 228 202 235 c 2,34,-1
 202 500 l 2,35,36
 202 508 202 508 207.5 513 c 128,-1,37
 213 518 213 518 220 518 c 0,38,39
 228 518 228 518 233 513 c 128,-1,40
 238 508 238 508 238 500 c 2,41,-1
 238 235 l 2,42,43
 238 228 238 228 233 222.5 c 128,-1,44
 228 217 228 217 220 217 c 0,45,32
 213 217 213 217 207.5 222.5 c 128,-1,33
423.5 222.5 m 128,-1,47
 418 228 418 228 418 235 c 2,48,-1
 418 500 l 2,49,50
 418 508 418 508 423.5 513 c 128,-1,51
 429 518 429 518 436 518 c 0,52,53
 444 518 444 518 449 513 c 128,-1,54
 454 508 454 508 454 500 c 2,55,-1
 454 235 l 2,56,57
 454 228 454 228 449 222.5 c 128,-1,58
 444 217 444 217 436 217 c 0,59,46
 429 217 429 217 423.5 222.5 c 128,-1,47
641 222 m 2,61,-1
 496 356 l 2,62,63
 491 360 491 360 491 368 c 0,64,65
 491 375 491 375 496 380 c 2,66,-1
 639 511 l 2,67,68
 646 518 646 518 653 518 c 0,69,70
 659 518 659 518 664.5 513.5 c 128,-1,71
 670 509 670 509 670 501 c 0,72,73
 670 494 670 494 665 489 c 2,74,-1
 533 368 l 1,75,-1
 665 246 l 2,76,77
 670 241 670 241 670 234 c 0,78,79
 670 228 670 228 665.5 222.5 c 128,-1,80
 661 217 661 217 654 217 c 0,81,60
 646 217 646 217 641 222 c 2,61,-1
279.5 355.5 m 128,-1,83
 274 361 274 361 274 368 c 0,84,85
 274 376 274 376 279.5 381 c 128,-1,86
 285 386 285 386 292 386 c 2,87,-1
 364 386 l 2,88,89
 372 386 372 386 377 381 c 128,-1,90
 382 376 382 376 382 368 c 0,91,92
 382 361 382 361 377 355.5 c 128,-1,93
 372 350 372 350 364 350 c 2,94,-1
 292 350 l 2,95,82
 285 350 285 350 279.5 355.5 c 128,-1,83
EndSplineSet
Ligature2: "'liga' Standard Ligatures lookup 18 subtable" h d c o
EndChar

StartChar: less_hyphen.liga
Encoding: 65565 -1 526
Width: 1089
GlyphClass: 3
Flags: W
LayerCount: 2
Fore
SplineSet
43 303 m 1,0,-1
 549 584 l 1,1,-1
 577 526 l 1,2,-1
 235 335 l 1,3,-1
 1088 336 l 1,4,-1
 1088 270 l 1,5,-1
 235 271 l 1,6,-1
 577 79 l 1,7,-1
 549 22 l 1,8,-1
 43 303 l 1,0,-1
EndSplineSet
Ligature2: "'liga' Standard Ligatures lookup 18 subtable" less hyphen
EndChar

StartChar: uni030C.alt
Encoding: 65566 -1 527
Width: 0
GlyphClass: 4
Flags: W
AnchorPoint: "Anchor-9" -111 493 mark 0
AnchorPoint: "Anchor-6" -111 493 mark 0
LayerCount: 2
Fore
SplineSet
-128 697 m 1,0,-1
 -38 697 l 1,1,-1
 -134 484 l 1,2,-1
 -185 484 l 1,3,-1
 -128 697 l 1,0,-1
EndSplineSet
EndChar

StartChar: uni030A.case
Encoding: 65567 -1 528
Width: 0
GlyphClass: 4
Flags: W
AnchorPoint: "Anchor-10" -159 552 mark 0
AnchorPoint: "Anchor-8" -159 740 basemark 0
AnchorPoint: "Anchor-8" -159 552 mark 0
AnchorPoint: "Anchor-4" -159 552 mark 0
AnchorPoint: "Anchor-1" -159 552 mark 0
LayerCount: 2
Fore
SplineSet
-231 565.5 m 128,-1,1
 -261 596 -261 596 -261 638 c 0,2,3
 -261 681 -261 681 -231 710.5 c 128,-1,4
 -201 740 -201 740 -158 740 c 0,5,6
 -116 740 -116 740 -86 710 c 128,-1,7
 -56 680 -56 680 -56 638 c 0,8,9
 -56 595 -56 595 -85.5 565 c 128,-1,10
 -115 535 -115 535 -158 535 c 256,11,0
 -201 535 -201 535 -231 565.5 c 128,-1,1
-119 599 m 128,-1,13
 -103 615 -103 615 -103 638 c 0,14,15
 -103 662 -103 662 -118.5 677.5 c 128,-1,16
 -134 693 -134 693 -158 693 c 256,17,18
 -182 693 -182 693 -197.5 677 c 128,-1,19
 -213 661 -213 661 -213 638 c 256,20,21
 -213 615 -213 615 -197.5 599 c 128,-1,22
 -182 583 -182 583 -158 583 c 0,23,12
 -135 583 -135 583 -119 599 c 128,-1,13
EndSplineSet
EndChar

StartChar: uni0337.case
Encoding: 65568 -1 529
Width: 0
GlyphClass: 4
Flags: W
AnchorPoint: "Anchor-5" -174 322 mark 0
LayerCount: 2
Fore
SplineSet
-321 251 m 1,0,-1
 -27 483 l 1,1,-1
 -27 395 l 1,2,-1
 -321 162 l 1,3,-1
 -321 251 l 1,0,-1
EndSplineSet
EndChar

StartChar: uni0338.case
Encoding: 65569 -1 530
Width: 0
GlyphClass: 4
Flags: W
AnchorPoint: "Anchor-5" -269 349 mark 0
LayerCount: 2
Fore
SplineSet
-73 697 m 1,0,-1
 3 697 l 1,1,-1
 -464 0 l 1,2,-1
 -540 0 l 1,3,-1
 -73 697 l 1,0,-1
EndSplineSet
EndChar

